G04 #@! TF.GenerationSoftware,KiCad,Pcbnew,(5.1.4)-1*
G04 #@! TF.CreationDate,2021-03-22T19:47:50+01:00*
G04 #@! TF.ProjectId,TFG_CANDevice,5446475f-4341-44e4-9465-766963652e6b,rev?*
G04 #@! TF.SameCoordinates,Original*
G04 #@! TF.FileFunction,Legend,Bot*
G04 #@! TF.FilePolarity,Positive*
%FSLAX46Y46*%
G04 Gerber Fmt 4.6, Leading zero omitted, Abs format (unit mm)*
G04 Created by KiCad (PCBNEW (5.1.4)-1) date 2021-03-22 19:47:50*
%MOMM*%
%LPD*%
G04 APERTURE LIST*
%ADD10C,0.200000*%
%ADD11C,0.050000*%
%ADD12C,0.120000*%
%ADD13C,0.150000*%
G04 APERTURE END LIST*
D10*
X218433809Y-150982380D02*
X217862380Y-150982380D01*
X218148095Y-151982380D02*
X218148095Y-150982380D01*
X217195714Y-151458571D02*
X217529047Y-151458571D01*
X217529047Y-151982380D02*
X217529047Y-150982380D01*
X217052857Y-150982380D01*
X216148095Y-151030000D02*
X216243333Y-150982380D01*
X216386190Y-150982380D01*
X216529047Y-151030000D01*
X216624285Y-151125238D01*
X216671904Y-151220476D01*
X216719523Y-151410952D01*
X216719523Y-151553809D01*
X216671904Y-151744285D01*
X216624285Y-151839523D01*
X216529047Y-151934761D01*
X216386190Y-151982380D01*
X216290952Y-151982380D01*
X216148095Y-151934761D01*
X216100476Y-151887142D01*
X216100476Y-151553809D01*
X216290952Y-151553809D01*
X214910000Y-151601428D02*
X214148095Y-151601428D01*
X212910000Y-151982380D02*
X212910000Y-150982380D01*
X212576666Y-151696666D01*
X212243333Y-150982380D01*
X212243333Y-151982380D01*
X211338571Y-151982380D02*
X211338571Y-151458571D01*
X211386190Y-151363333D01*
X211481428Y-151315714D01*
X211671904Y-151315714D01*
X211767142Y-151363333D01*
X211338571Y-151934761D02*
X211433809Y-151982380D01*
X211671904Y-151982380D01*
X211767142Y-151934761D01*
X211814761Y-151839523D01*
X211814761Y-151744285D01*
X211767142Y-151649047D01*
X211671904Y-151601428D01*
X211433809Y-151601428D01*
X211338571Y-151553809D01*
X210862380Y-151315714D02*
X210862380Y-151982380D01*
X210862380Y-151410952D02*
X210814761Y-151363333D01*
X210719523Y-151315714D01*
X210576666Y-151315714D01*
X210481428Y-151363333D01*
X210433809Y-151458571D01*
X210433809Y-151982380D01*
X209529047Y-151315714D02*
X209529047Y-151982380D01*
X209957619Y-151315714D02*
X209957619Y-151839523D01*
X209910000Y-151934761D01*
X209814761Y-151982380D01*
X209671904Y-151982380D01*
X209576666Y-151934761D01*
X209529047Y-151887142D01*
X208671904Y-151934761D02*
X208767142Y-151982380D01*
X208957619Y-151982380D01*
X209052857Y-151934761D01*
X209100476Y-151839523D01*
X209100476Y-151458571D01*
X209052857Y-151363333D01*
X208957619Y-151315714D01*
X208767142Y-151315714D01*
X208671904Y-151363333D01*
X208624285Y-151458571D01*
X208624285Y-151553809D01*
X209100476Y-151649047D01*
X208052857Y-151982380D02*
X208148095Y-151934761D01*
X208195714Y-151839523D01*
X208195714Y-150982380D01*
X206957619Y-151934761D02*
X206814761Y-151982380D01*
X206576666Y-151982380D01*
X206481428Y-151934761D01*
X206433809Y-151887142D01*
X206386190Y-151791904D01*
X206386190Y-151696666D01*
X206433809Y-151601428D01*
X206481428Y-151553809D01*
X206576666Y-151506190D01*
X206767142Y-151458571D01*
X206862380Y-151410952D01*
X206910000Y-151363333D01*
X206957619Y-151268095D01*
X206957619Y-151172857D01*
X206910000Y-151077619D01*
X206862380Y-151030000D01*
X206767142Y-150982380D01*
X206529047Y-150982380D01*
X206386190Y-151030000D01*
X205529047Y-151982380D02*
X205529047Y-151458571D01*
X205576666Y-151363333D01*
X205671904Y-151315714D01*
X205862380Y-151315714D01*
X205957619Y-151363333D01*
X205529047Y-151934761D02*
X205624285Y-151982380D01*
X205862380Y-151982380D01*
X205957619Y-151934761D01*
X206005238Y-151839523D01*
X206005238Y-151744285D01*
X205957619Y-151649047D01*
X205862380Y-151601428D01*
X205624285Y-151601428D01*
X205529047Y-151553809D01*
X205671904Y-150934761D02*
X205814761Y-151077619D01*
X205052857Y-151315714D02*
X205052857Y-151982380D01*
X205052857Y-151410952D02*
X205005238Y-151363333D01*
X204910000Y-151315714D01*
X204767142Y-151315714D01*
X204671904Y-151363333D01*
X204624285Y-151458571D01*
X204624285Y-151982380D01*
X203719523Y-151934761D02*
X203814761Y-151982380D01*
X204005238Y-151982380D01*
X204100476Y-151934761D01*
X204148095Y-151887142D01*
X204195714Y-151791904D01*
X204195714Y-151506190D01*
X204148095Y-151410952D01*
X204100476Y-151363333D01*
X204005238Y-151315714D01*
X203814761Y-151315714D01*
X203719523Y-151363333D01*
X203290952Y-151982380D02*
X203290952Y-150982380D01*
X202862380Y-151982380D02*
X202862380Y-151458571D01*
X202910000Y-151363333D01*
X203005238Y-151315714D01*
X203148095Y-151315714D01*
X203243333Y-151363333D01*
X203290952Y-151410952D01*
X202005238Y-151934761D02*
X202100476Y-151982380D01*
X202290952Y-151982380D01*
X202386190Y-151934761D01*
X202433809Y-151839523D01*
X202433809Y-151458571D01*
X202386190Y-151363333D01*
X202290952Y-151315714D01*
X202100476Y-151315714D01*
X202005238Y-151363333D01*
X201957619Y-151458571D01*
X201957619Y-151553809D01*
X202433809Y-151649047D01*
X201624285Y-151315714D02*
X201100476Y-151315714D01*
X201624285Y-151982380D01*
X201100476Y-151982380D01*
X199957619Y-151982380D02*
X199957619Y-150982380D01*
X199386190Y-151982380D01*
X199386190Y-150982380D01*
X198481428Y-151982380D02*
X198481428Y-151458571D01*
X198529047Y-151363333D01*
X198624285Y-151315714D01*
X198814761Y-151315714D01*
X198910000Y-151363333D01*
X198481428Y-151934761D02*
X198576666Y-151982380D01*
X198814761Y-151982380D01*
X198910000Y-151934761D01*
X198957619Y-151839523D01*
X198957619Y-151744285D01*
X198910000Y-151649047D01*
X198814761Y-151601428D01*
X198576666Y-151601428D01*
X198481428Y-151553809D01*
X198148095Y-151315714D02*
X197767142Y-151315714D01*
X198005238Y-150982380D02*
X198005238Y-151839523D01*
X197957619Y-151934761D01*
X197862380Y-151982380D01*
X197767142Y-151982380D01*
X197052857Y-151934761D02*
X197148095Y-151982380D01*
X197338571Y-151982380D01*
X197433809Y-151934761D01*
X197481428Y-151839523D01*
X197481428Y-151458571D01*
X197433809Y-151363333D01*
X197338571Y-151315714D01*
X197148095Y-151315714D01*
X197052857Y-151363333D01*
X197005238Y-151458571D01*
X197005238Y-151553809D01*
X197481428Y-151649047D01*
X196576666Y-151982380D02*
X196576666Y-151315714D01*
X196576666Y-151506190D02*
X196529047Y-151410952D01*
X196481428Y-151363333D01*
X196386190Y-151315714D01*
X196290952Y-151315714D01*
X195529047Y-151982380D02*
X195529047Y-151458571D01*
X195576666Y-151363333D01*
X195671904Y-151315714D01*
X195862380Y-151315714D01*
X195957619Y-151363333D01*
X195529047Y-151934761D02*
X195624285Y-151982380D01*
X195862380Y-151982380D01*
X195957619Y-151934761D01*
X196005238Y-151839523D01*
X196005238Y-151744285D01*
X195957619Y-151649047D01*
X195862380Y-151601428D01*
X195624285Y-151601428D01*
X195529047Y-151553809D01*
X212576666Y-152730000D02*
X212671904Y-152682380D01*
X212814761Y-152682380D01*
X212957619Y-152730000D01*
X213052857Y-152825238D01*
X213100476Y-152920476D01*
X213148095Y-153110952D01*
X213148095Y-153253809D01*
X213100476Y-153444285D01*
X213052857Y-153539523D01*
X212957619Y-153634761D01*
X212814761Y-153682380D01*
X212719523Y-153682380D01*
X212576666Y-153634761D01*
X212529047Y-153587142D01*
X212529047Y-153253809D01*
X212719523Y-153253809D01*
X212100476Y-153682380D02*
X212100476Y-152682380D01*
X211671904Y-153634761D02*
X211529047Y-153682380D01*
X211290952Y-153682380D01*
X211195714Y-153634761D01*
X211148095Y-153587142D01*
X211100476Y-153491904D01*
X211100476Y-153396666D01*
X211148095Y-153301428D01*
X211195714Y-153253809D01*
X211290952Y-153206190D01*
X211481428Y-153158571D01*
X211576666Y-153110952D01*
X211624285Y-153063333D01*
X211671904Y-152968095D01*
X211671904Y-152872857D01*
X211624285Y-152777619D01*
X211576666Y-152730000D01*
X211481428Y-152682380D01*
X211243333Y-152682380D01*
X211100476Y-152730000D01*
X210671904Y-153158571D02*
X210338571Y-153158571D01*
X210195714Y-153682380D02*
X210671904Y-153682380D01*
X210671904Y-152682380D01*
X210195714Y-152682380D01*
X209005238Y-153301428D02*
X208243333Y-153301428D01*
X207052857Y-152777619D02*
X207005238Y-152730000D01*
X206910000Y-152682380D01*
X206671904Y-152682380D01*
X206576666Y-152730000D01*
X206529047Y-152777619D01*
X206481428Y-152872857D01*
X206481428Y-152968095D01*
X206529047Y-153110952D01*
X207100476Y-153682380D01*
X206481428Y-153682380D01*
X205862380Y-152682380D02*
X205767142Y-152682380D01*
X205671904Y-152730000D01*
X205624285Y-152777619D01*
X205576666Y-152872857D01*
X205529047Y-153063333D01*
X205529047Y-153301428D01*
X205576666Y-153491904D01*
X205624285Y-153587142D01*
X205671904Y-153634761D01*
X205767142Y-153682380D01*
X205862380Y-153682380D01*
X205957619Y-153634761D01*
X206005238Y-153587142D01*
X206052857Y-153491904D01*
X206100476Y-153301428D01*
X206100476Y-153063333D01*
X206052857Y-152872857D01*
X206005238Y-152777619D01*
X205957619Y-152730000D01*
X205862380Y-152682380D01*
X205148095Y-152777619D02*
X205100476Y-152730000D01*
X205005238Y-152682380D01*
X204767142Y-152682380D01*
X204671904Y-152730000D01*
X204624285Y-152777619D01*
X204576666Y-152872857D01*
X204576666Y-152968095D01*
X204624285Y-153110952D01*
X205195714Y-153682380D01*
X204576666Y-153682380D01*
X203957619Y-152682380D02*
X203862380Y-152682380D01*
X203767142Y-152730000D01*
X203719523Y-152777619D01*
X203671904Y-152872857D01*
X203624285Y-153063333D01*
X203624285Y-153301428D01*
X203671904Y-153491904D01*
X203719523Y-153587142D01*
X203767142Y-153634761D01*
X203862380Y-153682380D01*
X203957619Y-153682380D01*
X204052857Y-153634761D01*
X204100476Y-153587142D01*
X204148095Y-153491904D01*
X204195714Y-153301428D01*
X204195714Y-153063333D01*
X204148095Y-152872857D01*
X204100476Y-152777619D01*
X204052857Y-152730000D01*
X203957619Y-152682380D01*
X202481428Y-152634761D02*
X203338571Y-153920476D01*
X202195714Y-152777619D02*
X202148095Y-152730000D01*
X202052857Y-152682380D01*
X201814761Y-152682380D01*
X201719523Y-152730000D01*
X201671904Y-152777619D01*
X201624285Y-152872857D01*
X201624285Y-152968095D01*
X201671904Y-153110952D01*
X202243333Y-153682380D01*
X201624285Y-153682380D01*
X200671904Y-153682380D02*
X201243333Y-153682380D01*
X200957619Y-153682380D02*
X200957619Y-152682380D01*
X201052857Y-152825238D01*
X201148095Y-152920476D01*
X201243333Y-152968095D01*
D11*
X222680000Y-42020000D02*
X222680000Y-162000000D01*
X132690000Y-42020000D02*
X222680000Y-42020000D01*
X132690000Y-162000000D02*
X132690000Y-42020000D01*
X222680000Y-162000000D02*
X132690000Y-162000000D01*
D12*
X149880000Y-46070000D02*
X149880000Y-81070000D01*
X149880000Y-81070000D02*
X205880000Y-81070000D01*
X205880000Y-81070000D02*
X205880000Y-46070000D01*
X205880000Y-46070000D02*
X149880000Y-46070000D01*
X161890000Y-129920000D02*
X161890000Y-127200000D01*
X161890000Y-120340000D02*
X161890000Y-117620000D01*
X149590000Y-122200000D02*
X149590000Y-125340000D01*
X149590000Y-117620000D02*
X149590000Y-120340000D01*
X160419050Y-123730000D02*
G75*
G03X160419050Y-123730000I-4579050J0D01*
G01*
X149590000Y-127200000D02*
X149590000Y-129920000D01*
X161890000Y-117620000D02*
X149590000Y-117620000D01*
X161890000Y-125340000D02*
X161890000Y-122200000D01*
X149590000Y-129920000D02*
X161890000Y-129920000D01*
X184040000Y-148620000D02*
X184040000Y-145900000D01*
X184040000Y-139040000D02*
X184040000Y-136320000D01*
X171740000Y-140900000D02*
X171740000Y-144040000D01*
X171740000Y-136320000D02*
X171740000Y-139040000D01*
X182569050Y-142430000D02*
G75*
G03X182569050Y-142430000I-4579050J0D01*
G01*
X171740000Y-145900000D02*
X171740000Y-148620000D01*
X184040000Y-136320000D02*
X171740000Y-136320000D01*
X184040000Y-144040000D02*
X184040000Y-140900000D01*
X171740000Y-148620000D02*
X184040000Y-148620000D01*
X184040000Y-129920000D02*
X184040000Y-127200000D01*
X184040000Y-120340000D02*
X184040000Y-117620000D01*
X171740000Y-122200000D02*
X171740000Y-125340000D01*
X171740000Y-117620000D02*
X171740000Y-120340000D01*
X182569050Y-123730000D02*
G75*
G03X182569050Y-123730000I-4579050J0D01*
G01*
X171740000Y-127200000D02*
X171740000Y-129920000D01*
X184040000Y-117620000D02*
X171740000Y-117620000D01*
X184040000Y-125340000D02*
X184040000Y-122200000D01*
X171740000Y-129920000D02*
X184040000Y-129920000D01*
X184040000Y-111470000D02*
X184040000Y-108750000D01*
X184040000Y-101890000D02*
X184040000Y-99170000D01*
X171740000Y-103750000D02*
X171740000Y-106890000D01*
X171740000Y-99170000D02*
X171740000Y-101890000D01*
X182569050Y-105280000D02*
G75*
G03X182569050Y-105280000I-4579050J0D01*
G01*
X171740000Y-108750000D02*
X171740000Y-111470000D01*
X184040000Y-99170000D02*
X171740000Y-99170000D01*
X184040000Y-106890000D02*
X184040000Y-103750000D01*
X171740000Y-111470000D02*
X184040000Y-111470000D01*
X206020000Y-129920000D02*
X206020000Y-127200000D01*
X206020000Y-120340000D02*
X206020000Y-117620000D01*
X193720000Y-122200000D02*
X193720000Y-125340000D01*
X193720000Y-117620000D02*
X193720000Y-120340000D01*
X204549050Y-123730000D02*
G75*
G03X204549050Y-123730000I-4579050J0D01*
G01*
X193720000Y-127200000D02*
X193720000Y-129920000D01*
X206020000Y-117620000D02*
X193720000Y-117620000D01*
X206020000Y-125340000D02*
X206020000Y-122200000D01*
X193720000Y-129920000D02*
X206020000Y-129920000D01*
X151090000Y-156350000D02*
X151090000Y-153630000D01*
X151090000Y-146770000D02*
X151090000Y-144050000D01*
X138790000Y-148630000D02*
X138790000Y-151770000D01*
X138790000Y-144050000D02*
X138790000Y-146770000D01*
X149619050Y-150160000D02*
G75*
G03X149619050Y-150160000I-4579050J0D01*
G01*
X138790000Y-153630000D02*
X138790000Y-156350000D01*
X151090000Y-144050000D02*
X138790000Y-144050000D01*
X151090000Y-151770000D02*
X151090000Y-148630000D01*
X138790000Y-156350000D02*
X151090000Y-156350000D01*
X193935000Y-165270000D02*
X193935000Y-152930000D01*
X193935000Y-152930000D02*
X162965000Y-152930000D01*
X162965000Y-152930000D02*
X162965000Y-165270000D01*
X184240000Y-152035662D02*
X183740000Y-152035662D01*
X183740000Y-152035662D02*
X183990000Y-152468675D01*
X183990000Y-152468675D02*
X184240000Y-152035662D01*
D13*
X180733904Y-60754380D02*
X180733904Y-61563904D01*
X180686285Y-61659142D01*
X180638666Y-61706761D01*
X180543428Y-61754380D01*
X180352952Y-61754380D01*
X180257714Y-61706761D01*
X180210095Y-61659142D01*
X180162476Y-61563904D01*
X180162476Y-60754380D01*
X179733904Y-60849619D02*
X179686285Y-60802000D01*
X179591047Y-60754380D01*
X179352952Y-60754380D01*
X179257714Y-60802000D01*
X179210095Y-60849619D01*
X179162476Y-60944857D01*
X179162476Y-61040095D01*
X179210095Y-61182952D01*
X179781523Y-61754380D01*
X179162476Y-61754380D01*
X209387619Y-71851000D02*
X209508571Y-71790523D01*
X209690000Y-71790523D01*
X209871428Y-71851000D01*
X209992380Y-71971952D01*
X210052857Y-72092904D01*
X210113333Y-72334809D01*
X210113333Y-72516238D01*
X210052857Y-72758142D01*
X209992380Y-72879095D01*
X209871428Y-73000047D01*
X209690000Y-73060523D01*
X209569047Y-73060523D01*
X209387619Y-73000047D01*
X209327142Y-72939571D01*
X209327142Y-72516238D01*
X209569047Y-72516238D01*
X208782857Y-73060523D02*
X208782857Y-71790523D01*
X208057142Y-73060523D01*
X208057142Y-71790523D01*
X207452380Y-73060523D02*
X207452380Y-71790523D01*
X207150000Y-71790523D01*
X206968571Y-71851000D01*
X206847619Y-71971952D01*
X206787142Y-72092904D01*
X206726666Y-72334809D01*
X206726666Y-72516238D01*
X206787142Y-72758142D01*
X206847619Y-72879095D01*
X206968571Y-73000047D01*
X207150000Y-73060523D01*
X207452380Y-73060523D01*
X210113333Y-69250523D02*
X209690000Y-70520523D01*
X209266666Y-69250523D01*
X208117619Y-70399571D02*
X208178095Y-70460047D01*
X208359523Y-70520523D01*
X208480476Y-70520523D01*
X208661904Y-70460047D01*
X208782857Y-70339095D01*
X208843333Y-70218142D01*
X208903809Y-69976238D01*
X208903809Y-69794809D01*
X208843333Y-69552904D01*
X208782857Y-69431952D01*
X208661904Y-69311000D01*
X208480476Y-69250523D01*
X208359523Y-69250523D01*
X208178095Y-69311000D01*
X208117619Y-69371476D01*
X206847619Y-70399571D02*
X206908095Y-70460047D01*
X207089523Y-70520523D01*
X207210476Y-70520523D01*
X207391904Y-70460047D01*
X207512857Y-70339095D01*
X207573333Y-70218142D01*
X207633809Y-69976238D01*
X207633809Y-69794809D01*
X207573333Y-69552904D01*
X207512857Y-69431952D01*
X207391904Y-69311000D01*
X207210476Y-69250523D01*
X207089523Y-69250523D01*
X206908095Y-69311000D01*
X206847619Y-69371476D01*
X209931904Y-67920047D02*
X209750476Y-67980523D01*
X209448095Y-67980523D01*
X209327142Y-67920047D01*
X209266666Y-67859571D01*
X209206190Y-67738619D01*
X209206190Y-67617666D01*
X209266666Y-67496714D01*
X209327142Y-67436238D01*
X209448095Y-67375761D01*
X209690000Y-67315285D01*
X209810952Y-67254809D01*
X209871428Y-67194333D01*
X209931904Y-67073380D01*
X209931904Y-66952428D01*
X209871428Y-66831476D01*
X209810952Y-66771000D01*
X209690000Y-66710523D01*
X209387619Y-66710523D01*
X209206190Y-66771000D01*
X207936190Y-67859571D02*
X207996666Y-67920047D01*
X208178095Y-67980523D01*
X208299047Y-67980523D01*
X208480476Y-67920047D01*
X208601428Y-67799095D01*
X208661904Y-67678142D01*
X208722380Y-67436238D01*
X208722380Y-67254809D01*
X208661904Y-67012904D01*
X208601428Y-66891952D01*
X208480476Y-66771000D01*
X208299047Y-66710523D01*
X208178095Y-66710523D01*
X207996666Y-66771000D01*
X207936190Y-66831476D01*
X206787142Y-67980523D02*
X207391904Y-67980523D01*
X207391904Y-66710523D01*
X209962142Y-65380047D02*
X209780714Y-65440523D01*
X209478333Y-65440523D01*
X209357380Y-65380047D01*
X209296904Y-65319571D01*
X209236428Y-65198619D01*
X209236428Y-65077666D01*
X209296904Y-64956714D01*
X209357380Y-64896238D01*
X209478333Y-64835761D01*
X209720238Y-64775285D01*
X209841190Y-64714809D01*
X209901666Y-64654333D01*
X209962142Y-64533380D01*
X209962142Y-64412428D01*
X209901666Y-64291476D01*
X209841190Y-64231000D01*
X209720238Y-64170523D01*
X209417857Y-64170523D01*
X209236428Y-64231000D01*
X208692142Y-65440523D02*
X208692142Y-64170523D01*
X208389761Y-64170523D01*
X208208333Y-64231000D01*
X208087380Y-64351952D01*
X208026904Y-64472904D01*
X207966428Y-64714809D01*
X207966428Y-64896238D01*
X208026904Y-65138142D01*
X208087380Y-65259095D01*
X208208333Y-65380047D01*
X208389761Y-65440523D01*
X208692142Y-65440523D01*
X207482619Y-65077666D02*
X206877857Y-65077666D01*
X207603571Y-65440523D02*
X207180238Y-64170523D01*
X206756904Y-65440523D01*
X209206190Y-62900523D02*
X209629523Y-62295761D01*
X209931904Y-62900523D02*
X209931904Y-61630523D01*
X209448095Y-61630523D01*
X209327142Y-61691000D01*
X209266666Y-61751476D01*
X209206190Y-61872428D01*
X209206190Y-62053857D01*
X209266666Y-62174809D01*
X209327142Y-62235285D01*
X209448095Y-62295761D01*
X209931904Y-62295761D01*
X208661904Y-62235285D02*
X208238571Y-62235285D01*
X208057142Y-62900523D02*
X208661904Y-62900523D01*
X208661904Y-61630523D01*
X208057142Y-61630523D01*
X207573333Y-62840047D02*
X207391904Y-62900523D01*
X207089523Y-62900523D01*
X206968571Y-62840047D01*
X206908095Y-62779571D01*
X206847619Y-62658619D01*
X206847619Y-62537666D01*
X206908095Y-62416714D01*
X206968571Y-62356238D01*
X207089523Y-62295761D01*
X207331428Y-62235285D01*
X207452380Y-62174809D01*
X207512857Y-62114333D01*
X207573333Y-61993380D01*
X207573333Y-61872428D01*
X207512857Y-61751476D01*
X207452380Y-61691000D01*
X207331428Y-61630523D01*
X207029047Y-61630523D01*
X206847619Y-61691000D01*
X208879619Y-60360523D02*
X208879619Y-59090523D01*
X208577238Y-59090523D01*
X208395809Y-59151000D01*
X208274857Y-59271952D01*
X208214380Y-59392904D01*
X208153904Y-59634809D01*
X208153904Y-59816238D01*
X208214380Y-60058142D01*
X208274857Y-60179095D01*
X208395809Y-60300047D01*
X208577238Y-60360523D01*
X208879619Y-60360523D01*
X206883904Y-60239571D02*
X206944380Y-60300047D01*
X207125809Y-60360523D01*
X207246761Y-60360523D01*
X207428190Y-60300047D01*
X207549142Y-60179095D01*
X207609619Y-60058142D01*
X207670095Y-59816238D01*
X207670095Y-59634809D01*
X207609619Y-59392904D01*
X207549142Y-59271952D01*
X207428190Y-59151000D01*
X207246761Y-59090523D01*
X207125809Y-59090523D01*
X206944380Y-59151000D01*
X206883904Y-59211476D01*
X208123666Y-57699571D02*
X208184142Y-57760047D01*
X208365571Y-57820523D01*
X208486523Y-57820523D01*
X208667952Y-57760047D01*
X208788904Y-57639095D01*
X208849380Y-57518142D01*
X208909857Y-57276238D01*
X208909857Y-57094809D01*
X208849380Y-56852904D01*
X208788904Y-56731952D01*
X208667952Y-56611000D01*
X208486523Y-56550523D01*
X208365571Y-56550523D01*
X208184142Y-56611000D01*
X208123666Y-56671476D01*
X207639857Y-57760047D02*
X207458428Y-57820523D01*
X207156047Y-57820523D01*
X207035095Y-57760047D01*
X206974619Y-57699571D01*
X206914142Y-57578619D01*
X206914142Y-57457666D01*
X206974619Y-57336714D01*
X207035095Y-57276238D01*
X207156047Y-57215761D01*
X207397952Y-57155285D01*
X207518904Y-57094809D01*
X207579380Y-57034333D01*
X207639857Y-56913380D01*
X207639857Y-56792428D01*
X207579380Y-56671476D01*
X207518904Y-56611000D01*
X207397952Y-56550523D01*
X207095571Y-56550523D01*
X206914142Y-56611000D01*
X208335333Y-54615285D02*
X208153904Y-54675761D01*
X208093428Y-54736238D01*
X208032952Y-54857190D01*
X208032952Y-55038619D01*
X208093428Y-55159571D01*
X208153904Y-55220047D01*
X208274857Y-55280523D01*
X208758666Y-55280523D01*
X208758666Y-54010523D01*
X208335333Y-54010523D01*
X208214380Y-54071000D01*
X208153904Y-54131476D01*
X208093428Y-54252428D01*
X208093428Y-54373380D01*
X208153904Y-54494333D01*
X208214380Y-54554809D01*
X208335333Y-54615285D01*
X208758666Y-54615285D01*
X206883904Y-55280523D02*
X207488666Y-55280523D01*
X207488666Y-54010523D01*
X156903333Y-131334761D02*
X156760476Y-131382380D01*
X156522380Y-131382380D01*
X156427142Y-131334761D01*
X156379523Y-131287142D01*
X156331904Y-131191904D01*
X156331904Y-131096666D01*
X156379523Y-131001428D01*
X156427142Y-130953809D01*
X156522380Y-130906190D01*
X156712857Y-130858571D01*
X156808095Y-130810952D01*
X156855714Y-130763333D01*
X156903333Y-130668095D01*
X156903333Y-130572857D01*
X156855714Y-130477619D01*
X156808095Y-130430000D01*
X156712857Y-130382380D01*
X156474761Y-130382380D01*
X156331904Y-130430000D01*
X155998571Y-130382380D02*
X155760476Y-131382380D01*
X155570000Y-130668095D01*
X155379523Y-131382380D01*
X155141428Y-130382380D01*
X154331904Y-130382380D02*
X154522380Y-130382380D01*
X154617619Y-130430000D01*
X154665238Y-130477619D01*
X154760476Y-130620476D01*
X154808095Y-130810952D01*
X154808095Y-131191904D01*
X154760476Y-131287142D01*
X154712857Y-131334761D01*
X154617619Y-131382380D01*
X154427142Y-131382380D01*
X154331904Y-131334761D01*
X154284285Y-131287142D01*
X154236666Y-131191904D01*
X154236666Y-130953809D01*
X154284285Y-130858571D01*
X154331904Y-130810952D01*
X154427142Y-130763333D01*
X154617619Y-130763333D01*
X154712857Y-130810952D01*
X154760476Y-130858571D01*
X154808095Y-130953809D01*
X179053333Y-150034761D02*
X178910476Y-150082380D01*
X178672380Y-150082380D01*
X178577142Y-150034761D01*
X178529523Y-149987142D01*
X178481904Y-149891904D01*
X178481904Y-149796666D01*
X178529523Y-149701428D01*
X178577142Y-149653809D01*
X178672380Y-149606190D01*
X178862857Y-149558571D01*
X178958095Y-149510952D01*
X179005714Y-149463333D01*
X179053333Y-149368095D01*
X179053333Y-149272857D01*
X179005714Y-149177619D01*
X178958095Y-149130000D01*
X178862857Y-149082380D01*
X178624761Y-149082380D01*
X178481904Y-149130000D01*
X178148571Y-149082380D02*
X177910476Y-150082380D01*
X177720000Y-149368095D01*
X177529523Y-150082380D01*
X177291428Y-149082380D01*
X176434285Y-149082380D02*
X176910476Y-149082380D01*
X176958095Y-149558571D01*
X176910476Y-149510952D01*
X176815238Y-149463333D01*
X176577142Y-149463333D01*
X176481904Y-149510952D01*
X176434285Y-149558571D01*
X176386666Y-149653809D01*
X176386666Y-149891904D01*
X176434285Y-149987142D01*
X176481904Y-150034761D01*
X176577142Y-150082380D01*
X176815238Y-150082380D01*
X176910476Y-150034761D01*
X176958095Y-149987142D01*
X179053333Y-131334761D02*
X178910476Y-131382380D01*
X178672380Y-131382380D01*
X178577142Y-131334761D01*
X178529523Y-131287142D01*
X178481904Y-131191904D01*
X178481904Y-131096666D01*
X178529523Y-131001428D01*
X178577142Y-130953809D01*
X178672380Y-130906190D01*
X178862857Y-130858571D01*
X178958095Y-130810952D01*
X179005714Y-130763333D01*
X179053333Y-130668095D01*
X179053333Y-130572857D01*
X179005714Y-130477619D01*
X178958095Y-130430000D01*
X178862857Y-130382380D01*
X178624761Y-130382380D01*
X178481904Y-130430000D01*
X178148571Y-130382380D02*
X177910476Y-131382380D01*
X177720000Y-130668095D01*
X177529523Y-131382380D01*
X177291428Y-130382380D01*
X176481904Y-130715714D02*
X176481904Y-131382380D01*
X176720000Y-130334761D02*
X176958095Y-131049047D01*
X176339047Y-131049047D01*
X179053333Y-112884761D02*
X178910476Y-112932380D01*
X178672380Y-112932380D01*
X178577142Y-112884761D01*
X178529523Y-112837142D01*
X178481904Y-112741904D01*
X178481904Y-112646666D01*
X178529523Y-112551428D01*
X178577142Y-112503809D01*
X178672380Y-112456190D01*
X178862857Y-112408571D01*
X178958095Y-112360952D01*
X179005714Y-112313333D01*
X179053333Y-112218095D01*
X179053333Y-112122857D01*
X179005714Y-112027619D01*
X178958095Y-111980000D01*
X178862857Y-111932380D01*
X178624761Y-111932380D01*
X178481904Y-111980000D01*
X178148571Y-111932380D02*
X177910476Y-112932380D01*
X177720000Y-112218095D01*
X177529523Y-112932380D01*
X177291428Y-111932380D01*
X177005714Y-111932380D02*
X176386666Y-111932380D01*
X176720000Y-112313333D01*
X176577142Y-112313333D01*
X176481904Y-112360952D01*
X176434285Y-112408571D01*
X176386666Y-112503809D01*
X176386666Y-112741904D01*
X176434285Y-112837142D01*
X176481904Y-112884761D01*
X176577142Y-112932380D01*
X176862857Y-112932380D01*
X176958095Y-112884761D01*
X177005714Y-112837142D01*
X201033333Y-131334761D02*
X200890476Y-131382380D01*
X200652380Y-131382380D01*
X200557142Y-131334761D01*
X200509523Y-131287142D01*
X200461904Y-131191904D01*
X200461904Y-131096666D01*
X200509523Y-131001428D01*
X200557142Y-130953809D01*
X200652380Y-130906190D01*
X200842857Y-130858571D01*
X200938095Y-130810952D01*
X200985714Y-130763333D01*
X201033333Y-130668095D01*
X201033333Y-130572857D01*
X200985714Y-130477619D01*
X200938095Y-130430000D01*
X200842857Y-130382380D01*
X200604761Y-130382380D01*
X200461904Y-130430000D01*
X200128571Y-130382380D02*
X199890476Y-131382380D01*
X199700000Y-130668095D01*
X199509523Y-131382380D01*
X199271428Y-130382380D01*
X198938095Y-130477619D02*
X198890476Y-130430000D01*
X198795238Y-130382380D01*
X198557142Y-130382380D01*
X198461904Y-130430000D01*
X198414285Y-130477619D01*
X198366666Y-130572857D01*
X198366666Y-130668095D01*
X198414285Y-130810952D01*
X198985714Y-131382380D01*
X198366666Y-131382380D01*
X146103333Y-157764761D02*
X145960476Y-157812380D01*
X145722380Y-157812380D01*
X145627142Y-157764761D01*
X145579523Y-157717142D01*
X145531904Y-157621904D01*
X145531904Y-157526666D01*
X145579523Y-157431428D01*
X145627142Y-157383809D01*
X145722380Y-157336190D01*
X145912857Y-157288571D01*
X146008095Y-157240952D01*
X146055714Y-157193333D01*
X146103333Y-157098095D01*
X146103333Y-157002857D01*
X146055714Y-156907619D01*
X146008095Y-156860000D01*
X145912857Y-156812380D01*
X145674761Y-156812380D01*
X145531904Y-156860000D01*
X145198571Y-156812380D02*
X144960476Y-157812380D01*
X144770000Y-157098095D01*
X144579523Y-157812380D01*
X144341428Y-156812380D01*
X143436666Y-157812380D02*
X144008095Y-157812380D01*
X143722380Y-157812380D02*
X143722380Y-156812380D01*
X143817619Y-156955238D01*
X143912857Y-157050476D01*
X144008095Y-157098095D01*
X178783333Y-151442380D02*
X178783333Y-152156666D01*
X178830952Y-152299523D01*
X178926190Y-152394761D01*
X179069047Y-152442380D01*
X179164285Y-152442380D01*
X177783333Y-152442380D02*
X178354761Y-152442380D01*
X178069047Y-152442380D02*
X178069047Y-151442380D01*
X178164285Y-151585238D01*
X178259523Y-151680476D01*
X178354761Y-151728095D01*
M02*
