M48
; DRILL file {KiCad (5.1.4)-1} date 22/03/2021 19:47:42
; FORMAT={-:-/ absolute / inch / decimal}
; #@! TF.CreationDate,2021-03-22T19:47:42+01:00
; #@! TF.GenerationSoftware,Kicad,Pcbnew,(5.1.4)-1
FMAT,2
INCH
T1C0.0157
T2C0.0300
T3C0.0315
T4C0.0394
T5C0.0512
T6C0.0984
T7C0.1260
%
G90
G05
T1
X6.752Y-3.8425
X6.9567Y-2.252
X7.1209Y-2.6476
T2
X7.9299Y-3.276
X8.0299Y-3.276
X8.1299Y-3.276
X8.2299Y-3.276
X8.3299Y-3.276
X8.4299Y-3.276
X8.0661Y-2.1528
X8.0661Y-2.2528
X8.0661Y-2.3528
X8.0661Y-2.4528
X8.0661Y-2.5528
X8.0661Y-2.6528
X8.0661Y-2.7528
X8.0661Y-2.8528
T3
X6.6409Y-3.4894
X6.6409Y-3.5894
X6.6409Y-5.1894
X6.6409Y-5.2894
X6.7409Y-3.4894
X6.7409Y-3.5894
X6.7409Y-5.1894
X6.7409Y-5.2894
X6.8409Y-3.4894
X6.8409Y-3.5894
X6.8409Y-5.1894
X6.8409Y-5.2894
X6.9409Y-3.4894
X6.9409Y-3.5894
X6.9409Y-5.1894
X6.9409Y-5.2894
X7.0409Y-3.4894
X7.0409Y-3.5894
X7.0409Y-5.1894
X7.0409Y-5.2894
X7.1409Y-3.4894
X7.1409Y-3.5894
X7.1409Y-5.1894
X7.1409Y-5.2894
X7.2409Y-3.4894
X7.2409Y-3.5894
X7.2409Y-5.1894
X7.2409Y-5.2894
X7.3409Y-3.4894
X7.3409Y-3.5894
X7.3409Y-5.1894
X7.3409Y-5.2894
X7.4409Y-3.4894
X7.4409Y-3.5894
X7.4409Y-5.1894
X7.4409Y-5.2894
X7.5409Y-3.4894
X7.5409Y-3.5894
X7.5409Y-5.1894
X7.5409Y-5.2894
T4
X6.8075Y-6.0941
X6.862Y-6.2059
X6.9165Y-6.0941
X6.9711Y-6.2059
X7.0256Y-6.0941
X7.0801Y-6.2059
X7.1346Y-6.0941
X7.1892Y-6.2059
X7.2437Y-6.0941
T5
X7.6228Y-4.7744
X7.6228Y-4.9713
X8.115Y-4.7744
X8.115Y-4.9713
X6.7575Y-4.048
X6.7575Y-4.2449
X7.2496Y-4.048
X7.2496Y-4.2449
X6.7575Y-4.7744
X6.7575Y-4.9713
X7.2496Y-4.7744
X7.2496Y-4.9713
X5.8854Y-4.7744
X5.8854Y-4.9713
X6.3776Y-4.7744
X6.3776Y-4.9713
X5.4602Y-5.815
X5.4602Y-6.0118
X5.9524Y-5.815
X5.9524Y-6.0118
X6.7575Y-5.5106
X6.7575Y-5.7075
X7.2496Y-5.5106
X7.2496Y-5.7075
T6
X5.3016Y-6.2988
X5.3138Y-1.7299
X8.6772Y-1.7346
X8.6866Y-6.2953
T7
X6.5335Y-6.15
X7.5177Y-6.15
T0
M30
