G04 #@! TF.GenerationSoftware,KiCad,Pcbnew,(5.1.4)-1*
G04 #@! TF.CreationDate,2021-03-22T19:47:50+01:00*
G04 #@! TF.ProjectId,TFG_CANDevice,5446475f-4341-44e4-9465-766963652e6b,rev?*
G04 #@! TF.SameCoordinates,Original*
G04 #@! TF.FileFunction,Soldermask,Top*
G04 #@! TF.FilePolarity,Negative*
%FSLAX46Y46*%
G04 Gerber Fmt 4.6, Leading zero omitted, Abs format (unit mm)*
G04 Created by KiCad (PCBNEW (5.1.4)-1) date 2021-03-22 19:47:50*
%MOMM*%
%LPD*%
G04 APERTURE LIST*
%ADD10C,0.050000*%
%ADD11C,0.100000*%
G04 APERTURE END LIST*
D10*
X222680000Y-42020000D02*
X222680000Y-162000000D01*
X132690000Y-42020000D02*
X222680000Y-42020000D01*
X132690000Y-162000000D02*
X132690000Y-42020000D01*
X222680000Y-162000000D02*
X132690000Y-162000000D01*
D11*
G36*
X182853228Y-156811703D02*
G01*
X183008100Y-156875853D01*
X183147481Y-156968985D01*
X183266015Y-157087519D01*
X183359147Y-157226900D01*
X183423297Y-157381772D01*
X183456000Y-157546184D01*
X183456000Y-157713816D01*
X183423297Y-157878228D01*
X183359147Y-158033100D01*
X183266015Y-158172481D01*
X183147481Y-158291015D01*
X183008100Y-158384147D01*
X182853228Y-158448297D01*
X182688816Y-158481000D01*
X182521184Y-158481000D01*
X182356772Y-158448297D01*
X182201900Y-158384147D01*
X182062519Y-158291015D01*
X181943985Y-158172481D01*
X181850853Y-158033100D01*
X181786703Y-157878228D01*
X181754000Y-157713816D01*
X181754000Y-157546184D01*
X181786703Y-157381772D01*
X181850853Y-157226900D01*
X181943985Y-157087519D01*
X182062519Y-156968985D01*
X182201900Y-156875853D01*
X182356772Y-156811703D01*
X182521184Y-156779000D01*
X182688816Y-156779000D01*
X182853228Y-156811703D01*
X182853228Y-156811703D01*
G37*
G36*
X180083228Y-156811703D02*
G01*
X180238100Y-156875853D01*
X180377481Y-156968985D01*
X180496015Y-157087519D01*
X180589147Y-157226900D01*
X180653297Y-157381772D01*
X180686000Y-157546184D01*
X180686000Y-157713816D01*
X180653297Y-157878228D01*
X180589147Y-158033100D01*
X180496015Y-158172481D01*
X180377481Y-158291015D01*
X180238100Y-158384147D01*
X180083228Y-158448297D01*
X179918816Y-158481000D01*
X179751184Y-158481000D01*
X179586772Y-158448297D01*
X179431900Y-158384147D01*
X179292519Y-158291015D01*
X179173985Y-158172481D01*
X179080853Y-158033100D01*
X179016703Y-157878228D01*
X178984000Y-157713816D01*
X178984000Y-157546184D01*
X179016703Y-157381772D01*
X179080853Y-157226900D01*
X179173985Y-157087519D01*
X179292519Y-156968985D01*
X179431900Y-156875853D01*
X179586772Y-156811703D01*
X179751184Y-156779000D01*
X179918816Y-156779000D01*
X180083228Y-156811703D01*
X180083228Y-156811703D01*
G37*
G36*
X174543228Y-156811703D02*
G01*
X174698100Y-156875853D01*
X174837481Y-156968985D01*
X174956015Y-157087519D01*
X175049147Y-157226900D01*
X175113297Y-157381772D01*
X175146000Y-157546184D01*
X175146000Y-157713816D01*
X175113297Y-157878228D01*
X175049147Y-158033100D01*
X174956015Y-158172481D01*
X174837481Y-158291015D01*
X174698100Y-158384147D01*
X174543228Y-158448297D01*
X174378816Y-158481000D01*
X174211184Y-158481000D01*
X174046772Y-158448297D01*
X173891900Y-158384147D01*
X173752519Y-158291015D01*
X173633985Y-158172481D01*
X173540853Y-158033100D01*
X173476703Y-157878228D01*
X173444000Y-157713816D01*
X173444000Y-157546184D01*
X173476703Y-157381772D01*
X173540853Y-157226900D01*
X173633985Y-157087519D01*
X173752519Y-156968985D01*
X173891900Y-156875853D01*
X174046772Y-156811703D01*
X174211184Y-156779000D01*
X174378816Y-156779000D01*
X174543228Y-156811703D01*
X174543228Y-156811703D01*
G37*
G36*
X177313228Y-156811703D02*
G01*
X177468100Y-156875853D01*
X177607481Y-156968985D01*
X177726015Y-157087519D01*
X177819147Y-157226900D01*
X177883297Y-157381772D01*
X177916000Y-157546184D01*
X177916000Y-157713816D01*
X177883297Y-157878228D01*
X177819147Y-158033100D01*
X177726015Y-158172481D01*
X177607481Y-158291015D01*
X177468100Y-158384147D01*
X177313228Y-158448297D01*
X177148816Y-158481000D01*
X176981184Y-158481000D01*
X176816772Y-158448297D01*
X176661900Y-158384147D01*
X176522519Y-158291015D01*
X176403985Y-158172481D01*
X176310853Y-158033100D01*
X176246703Y-157878228D01*
X176214000Y-157713816D01*
X176214000Y-157546184D01*
X176246703Y-157381772D01*
X176310853Y-157226900D01*
X176403985Y-157087519D01*
X176522519Y-156968985D01*
X176661900Y-156875853D01*
X176816772Y-156811703D01*
X176981184Y-156779000D01*
X177148816Y-156779000D01*
X177313228Y-156811703D01*
X177313228Y-156811703D01*
G37*
G36*
X191548254Y-154237818D02*
G01*
X191908170Y-154386900D01*
X191921513Y-154392427D01*
X192257436Y-154616884D01*
X192543116Y-154902564D01*
X192633765Y-155038229D01*
X192767574Y-155238489D01*
X192922182Y-155611746D01*
X193001000Y-156007993D01*
X193001000Y-156412007D01*
X192922182Y-156808254D01*
X192806506Y-157087520D01*
X192767573Y-157181513D01*
X192543116Y-157517436D01*
X192257436Y-157803116D01*
X191921513Y-158027573D01*
X191921512Y-158027574D01*
X191921511Y-158027574D01*
X191548254Y-158182182D01*
X191152007Y-158261000D01*
X190747993Y-158261000D01*
X190351746Y-158182182D01*
X189978489Y-158027574D01*
X189978488Y-158027574D01*
X189978487Y-158027573D01*
X189642564Y-157803116D01*
X189356884Y-157517436D01*
X189132427Y-157181513D01*
X189093494Y-157087520D01*
X188977818Y-156808254D01*
X188899000Y-156412007D01*
X188899000Y-156007993D01*
X188977818Y-155611746D01*
X189132426Y-155238489D01*
X189266236Y-155038229D01*
X189356884Y-154902564D01*
X189642564Y-154616884D01*
X189978487Y-154392427D01*
X189991830Y-154386900D01*
X190351746Y-154237818D01*
X190747993Y-154159000D01*
X191152007Y-154159000D01*
X191548254Y-154237818D01*
X191548254Y-154237818D01*
G37*
G36*
X166548254Y-154237818D02*
G01*
X166908170Y-154386900D01*
X166921513Y-154392427D01*
X167257436Y-154616884D01*
X167543116Y-154902564D01*
X167633765Y-155038229D01*
X167767574Y-155238489D01*
X167922182Y-155611746D01*
X168001000Y-156007993D01*
X168001000Y-156412007D01*
X167922182Y-156808254D01*
X167806506Y-157087520D01*
X167767573Y-157181513D01*
X167543116Y-157517436D01*
X167257436Y-157803116D01*
X166921513Y-158027573D01*
X166921512Y-158027574D01*
X166921511Y-158027574D01*
X166548254Y-158182182D01*
X166152007Y-158261000D01*
X165747993Y-158261000D01*
X165351746Y-158182182D01*
X164978489Y-158027574D01*
X164978488Y-158027574D01*
X164978487Y-158027573D01*
X164642564Y-157803116D01*
X164356884Y-157517436D01*
X164132427Y-157181513D01*
X164093494Y-157087520D01*
X163977818Y-156808254D01*
X163899000Y-156412007D01*
X163899000Y-156007993D01*
X163977818Y-155611746D01*
X164132426Y-155238489D01*
X164266236Y-155038229D01*
X164356884Y-154902564D01*
X164642564Y-154616884D01*
X164978487Y-154392427D01*
X164991830Y-154386900D01*
X165351746Y-154237818D01*
X165747993Y-154159000D01*
X166152007Y-154159000D01*
X166548254Y-154237818D01*
X166548254Y-154237818D01*
G37*
G36*
X181468228Y-153971703D02*
G01*
X181623100Y-154035853D01*
X181762481Y-154128985D01*
X181881015Y-154247519D01*
X181974147Y-154386900D01*
X182038297Y-154541772D01*
X182071000Y-154706184D01*
X182071000Y-154873816D01*
X182038297Y-155038228D01*
X181974147Y-155193100D01*
X181881015Y-155332481D01*
X181762481Y-155451015D01*
X181623100Y-155544147D01*
X181468228Y-155608297D01*
X181303816Y-155641000D01*
X181136184Y-155641000D01*
X180971772Y-155608297D01*
X180816900Y-155544147D01*
X180677519Y-155451015D01*
X180558985Y-155332481D01*
X180465853Y-155193100D01*
X180401703Y-155038228D01*
X180369000Y-154873816D01*
X180369000Y-154706184D01*
X180401703Y-154541772D01*
X180465853Y-154386900D01*
X180558985Y-154247519D01*
X180677519Y-154128985D01*
X180816900Y-154035853D01*
X180971772Y-153971703D01*
X181136184Y-153939000D01*
X181303816Y-153939000D01*
X181468228Y-153971703D01*
X181468228Y-153971703D01*
G37*
G36*
X184841000Y-155641000D02*
G01*
X183139000Y-155641000D01*
X183139000Y-153939000D01*
X184841000Y-153939000D01*
X184841000Y-155641000D01*
X184841000Y-155641000D01*
G37*
G36*
X178698228Y-153971703D02*
G01*
X178853100Y-154035853D01*
X178992481Y-154128985D01*
X179111015Y-154247519D01*
X179204147Y-154386900D01*
X179268297Y-154541772D01*
X179301000Y-154706184D01*
X179301000Y-154873816D01*
X179268297Y-155038228D01*
X179204147Y-155193100D01*
X179111015Y-155332481D01*
X178992481Y-155451015D01*
X178853100Y-155544147D01*
X178698228Y-155608297D01*
X178533816Y-155641000D01*
X178366184Y-155641000D01*
X178201772Y-155608297D01*
X178046900Y-155544147D01*
X177907519Y-155451015D01*
X177788985Y-155332481D01*
X177695853Y-155193100D01*
X177631703Y-155038228D01*
X177599000Y-154873816D01*
X177599000Y-154706184D01*
X177631703Y-154541772D01*
X177695853Y-154386900D01*
X177788985Y-154247519D01*
X177907519Y-154128985D01*
X178046900Y-154035853D01*
X178201772Y-153971703D01*
X178366184Y-153939000D01*
X178533816Y-153939000D01*
X178698228Y-153971703D01*
X178698228Y-153971703D01*
G37*
G36*
X175928228Y-153971703D02*
G01*
X176083100Y-154035853D01*
X176222481Y-154128985D01*
X176341015Y-154247519D01*
X176434147Y-154386900D01*
X176498297Y-154541772D01*
X176531000Y-154706184D01*
X176531000Y-154873816D01*
X176498297Y-155038228D01*
X176434147Y-155193100D01*
X176341015Y-155332481D01*
X176222481Y-155451015D01*
X176083100Y-155544147D01*
X175928228Y-155608297D01*
X175763816Y-155641000D01*
X175596184Y-155641000D01*
X175431772Y-155608297D01*
X175276900Y-155544147D01*
X175137519Y-155451015D01*
X175018985Y-155332481D01*
X174925853Y-155193100D01*
X174861703Y-155038228D01*
X174829000Y-154873816D01*
X174829000Y-154706184D01*
X174861703Y-154541772D01*
X174925853Y-154386900D01*
X175018985Y-154247519D01*
X175137519Y-154128985D01*
X175276900Y-154035853D01*
X175431772Y-153971703D01*
X175596184Y-153939000D01*
X175763816Y-153939000D01*
X175928228Y-153971703D01*
X175928228Y-153971703D01*
G37*
G36*
X173158228Y-153971703D02*
G01*
X173313100Y-154035853D01*
X173452481Y-154128985D01*
X173571015Y-154247519D01*
X173664147Y-154386900D01*
X173728297Y-154541772D01*
X173761000Y-154706184D01*
X173761000Y-154873816D01*
X173728297Y-155038228D01*
X173664147Y-155193100D01*
X173571015Y-155332481D01*
X173452481Y-155451015D01*
X173313100Y-155544147D01*
X173158228Y-155608297D01*
X172993816Y-155641000D01*
X172826184Y-155641000D01*
X172661772Y-155608297D01*
X172506900Y-155544147D01*
X172367519Y-155451015D01*
X172248985Y-155332481D01*
X172155853Y-155193100D01*
X172091703Y-155038228D01*
X172059000Y-154873816D01*
X172059000Y-154706184D01*
X172091703Y-154541772D01*
X172155853Y-154386900D01*
X172248985Y-154247519D01*
X172367519Y-154128985D01*
X172506900Y-154035853D01*
X172661772Y-153971703D01*
X172826184Y-153939000D01*
X172993816Y-153939000D01*
X173158228Y-153971703D01*
X173158228Y-153971703D01*
G37*
G36*
X151884739Y-151728707D02*
G01*
X151980329Y-151738122D01*
X152164306Y-151793931D01*
X152164309Y-151793932D01*
X152254225Y-151841994D01*
X152333860Y-151884559D01*
X152380035Y-151922454D01*
X152482476Y-152006524D01*
X152566546Y-152108965D01*
X152604441Y-152155140D01*
X152616036Y-152176833D01*
X152695068Y-152324691D01*
X152695069Y-152324694D01*
X152750878Y-152508671D01*
X152769722Y-152700000D01*
X152750878Y-152891329D01*
X152695069Y-153075306D01*
X152695068Y-153075309D01*
X152647006Y-153165225D01*
X152604441Y-153244860D01*
X152566546Y-153291035D01*
X152482476Y-153393476D01*
X152380035Y-153477546D01*
X152333860Y-153515441D01*
X152254225Y-153558006D01*
X152164309Y-153606068D01*
X152164306Y-153606069D01*
X151980329Y-153661878D01*
X151884739Y-153671293D01*
X151836945Y-153676000D01*
X150543055Y-153676000D01*
X150495261Y-153671293D01*
X150399671Y-153661878D01*
X150215694Y-153606069D01*
X150215691Y-153606068D01*
X150125775Y-153558006D01*
X150046140Y-153515441D01*
X149999965Y-153477546D01*
X149897524Y-153393476D01*
X149813454Y-153291035D01*
X149775559Y-153244860D01*
X149732994Y-153165225D01*
X149684932Y-153075309D01*
X149684931Y-153075306D01*
X149629122Y-152891329D01*
X149610278Y-152700000D01*
X149629122Y-152508671D01*
X149684931Y-152324694D01*
X149684932Y-152324691D01*
X149763964Y-152176833D01*
X149775559Y-152155140D01*
X149813454Y-152108965D01*
X149897524Y-152006524D01*
X149999965Y-151922454D01*
X150046140Y-151884559D01*
X150125775Y-151841994D01*
X150215691Y-151793932D01*
X150215694Y-151793931D01*
X150399671Y-151738122D01*
X150495261Y-151728707D01*
X150543055Y-151724000D01*
X151836945Y-151724000D01*
X151884739Y-151728707D01*
X151884739Y-151728707D01*
G37*
G36*
X139384739Y-151728707D02*
G01*
X139480329Y-151738122D01*
X139664306Y-151793931D01*
X139664309Y-151793932D01*
X139754225Y-151841994D01*
X139833860Y-151884559D01*
X139880035Y-151922454D01*
X139982476Y-152006524D01*
X140066546Y-152108965D01*
X140104441Y-152155140D01*
X140116036Y-152176833D01*
X140195068Y-152324691D01*
X140195069Y-152324694D01*
X140250878Y-152508671D01*
X140269722Y-152700000D01*
X140250878Y-152891329D01*
X140195069Y-153075306D01*
X140195068Y-153075309D01*
X140147006Y-153165225D01*
X140104441Y-153244860D01*
X140066546Y-153291035D01*
X139982476Y-153393476D01*
X139880035Y-153477546D01*
X139833860Y-153515441D01*
X139754225Y-153558006D01*
X139664309Y-153606068D01*
X139664306Y-153606069D01*
X139480329Y-153661878D01*
X139384739Y-153671293D01*
X139336945Y-153676000D01*
X138043055Y-153676000D01*
X137995261Y-153671293D01*
X137899671Y-153661878D01*
X137715694Y-153606069D01*
X137715691Y-153606068D01*
X137625775Y-153558006D01*
X137546140Y-153515441D01*
X137499965Y-153477546D01*
X137397524Y-153393476D01*
X137313454Y-153291035D01*
X137275559Y-153244860D01*
X137232994Y-153165225D01*
X137184932Y-153075309D01*
X137184931Y-153075306D01*
X137129122Y-152891329D01*
X137110278Y-152700000D01*
X137129122Y-152508671D01*
X137184931Y-152324694D01*
X137184932Y-152324691D01*
X137263964Y-152176833D01*
X137275559Y-152155140D01*
X137313454Y-152108965D01*
X137397524Y-152006524D01*
X137499965Y-151922454D01*
X137546140Y-151884559D01*
X137625775Y-151841994D01*
X137715691Y-151793932D01*
X137715694Y-151793931D01*
X137899671Y-151738122D01*
X137995261Y-151728707D01*
X138043055Y-151724000D01*
X139336945Y-151724000D01*
X139384739Y-151728707D01*
X139384739Y-151728707D01*
G37*
G36*
X196535997Y-150643051D02*
G01*
X196569652Y-150653261D01*
X196600665Y-150669838D01*
X196627851Y-150692149D01*
X196650162Y-150719335D01*
X196666739Y-150750348D01*
X196676949Y-150784003D01*
X196681000Y-150825138D01*
X196681000Y-152154862D01*
X196676949Y-152195997D01*
X196666739Y-152229652D01*
X196650162Y-152260665D01*
X196627851Y-152287851D01*
X196600665Y-152310162D01*
X196569652Y-152326739D01*
X196535997Y-152336949D01*
X196494862Y-152341000D01*
X194165138Y-152341000D01*
X194124003Y-152336949D01*
X194090348Y-152326739D01*
X194059335Y-152310162D01*
X194032149Y-152287851D01*
X194009838Y-152260665D01*
X193993261Y-152229652D01*
X193983051Y-152195997D01*
X193979000Y-152154862D01*
X193979000Y-150825138D01*
X193983051Y-150784003D01*
X193993261Y-150750348D01*
X194009838Y-150719335D01*
X194032149Y-150692149D01*
X194059335Y-150669838D01*
X194090348Y-150653261D01*
X194124003Y-150643051D01*
X194165138Y-150639000D01*
X196494862Y-150639000D01*
X196535997Y-150643051D01*
X196535997Y-150643051D01*
G37*
G36*
X200135997Y-150643051D02*
G01*
X200169652Y-150653261D01*
X200200665Y-150669838D01*
X200227851Y-150692149D01*
X200250162Y-150719335D01*
X200266739Y-150750348D01*
X200276949Y-150784003D01*
X200281000Y-150825138D01*
X200281000Y-152154862D01*
X200276949Y-152195997D01*
X200266739Y-152229652D01*
X200250162Y-152260665D01*
X200227851Y-152287851D01*
X200200665Y-152310162D01*
X200169652Y-152326739D01*
X200135997Y-152336949D01*
X200094862Y-152341000D01*
X197765138Y-152341000D01*
X197724003Y-152336949D01*
X197690348Y-152326739D01*
X197659335Y-152310162D01*
X197632149Y-152287851D01*
X197609838Y-152260665D01*
X197593261Y-152229652D01*
X197583051Y-152195997D01*
X197579000Y-152154862D01*
X197579000Y-150825138D01*
X197583051Y-150784003D01*
X197593261Y-150750348D01*
X197609838Y-150719335D01*
X197632149Y-150692149D01*
X197659335Y-150669838D01*
X197690348Y-150653261D01*
X197724003Y-150643051D01*
X197765138Y-150639000D01*
X200094862Y-150639000D01*
X200135997Y-150643051D01*
X200135997Y-150643051D01*
G37*
G36*
X157729928Y-149966764D02*
G01*
X157751009Y-149973160D01*
X157770445Y-149983548D01*
X157787476Y-149997524D01*
X157801452Y-150014555D01*
X157811840Y-150033991D01*
X157818236Y-150055072D01*
X157821000Y-150083140D01*
X157821000Y-150546860D01*
X157818236Y-150574928D01*
X157811840Y-150596009D01*
X157801452Y-150615445D01*
X157787476Y-150632476D01*
X157770445Y-150646452D01*
X157751009Y-150656840D01*
X157729928Y-150663236D01*
X157701860Y-150666000D01*
X156088140Y-150666000D01*
X156060072Y-150663236D01*
X156038991Y-150656840D01*
X156019555Y-150646452D01*
X156002524Y-150632476D01*
X155988548Y-150615445D01*
X155978160Y-150596009D01*
X155971764Y-150574928D01*
X155969000Y-150546860D01*
X155969000Y-150083140D01*
X155971764Y-150055072D01*
X155978160Y-150033991D01*
X155988548Y-150014555D01*
X156002524Y-149997524D01*
X156019555Y-149983548D01*
X156038991Y-149973160D01*
X156060072Y-149966764D01*
X156088140Y-149964000D01*
X157701860Y-149964000D01*
X157729928Y-149966764D01*
X157729928Y-149966764D01*
G37*
G36*
X162879928Y-149966764D02*
G01*
X162901009Y-149973160D01*
X162920445Y-149983548D01*
X162937476Y-149997524D01*
X162951452Y-150014555D01*
X162961840Y-150033991D01*
X162968236Y-150055072D01*
X162971000Y-150083140D01*
X162971000Y-150546860D01*
X162968236Y-150574928D01*
X162961840Y-150596009D01*
X162951452Y-150615445D01*
X162937476Y-150632476D01*
X162920445Y-150646452D01*
X162901009Y-150656840D01*
X162879928Y-150663236D01*
X162851860Y-150666000D01*
X161238140Y-150666000D01*
X161210072Y-150663236D01*
X161188991Y-150656840D01*
X161169555Y-150646452D01*
X161152524Y-150632476D01*
X161138548Y-150615445D01*
X161128160Y-150596009D01*
X161121764Y-150574928D01*
X161119000Y-150546860D01*
X161119000Y-150083140D01*
X161121764Y-150055072D01*
X161128160Y-150033991D01*
X161138548Y-150014555D01*
X161152524Y-149997524D01*
X161169555Y-149983548D01*
X161188991Y-149973160D01*
X161210072Y-149966764D01*
X161238140Y-149964000D01*
X162851860Y-149964000D01*
X162879928Y-149966764D01*
X162879928Y-149966764D01*
G37*
G36*
X169488604Y-148098347D02*
G01*
X169525144Y-148109432D01*
X169558821Y-148127433D01*
X169588341Y-148151659D01*
X169612567Y-148181179D01*
X169630568Y-148214856D01*
X169641653Y-148251396D01*
X169646000Y-148295538D01*
X169646000Y-149744462D01*
X169641653Y-149788604D01*
X169630568Y-149825144D01*
X169612567Y-149858821D01*
X169588341Y-149888341D01*
X169558821Y-149912567D01*
X169525144Y-149930568D01*
X169488604Y-149941653D01*
X169444462Y-149946000D01*
X168495538Y-149946000D01*
X168451396Y-149941653D01*
X168414856Y-149930568D01*
X168381179Y-149912567D01*
X168351659Y-149888341D01*
X168327433Y-149858821D01*
X168309432Y-149825144D01*
X168298347Y-149788604D01*
X168294000Y-149744462D01*
X168294000Y-148295538D01*
X168298347Y-148251396D01*
X168309432Y-148214856D01*
X168327433Y-148181179D01*
X168351659Y-148151659D01*
X168381179Y-148127433D01*
X168414856Y-148109432D01*
X168451396Y-148098347D01*
X168495538Y-148094000D01*
X169444462Y-148094000D01*
X169488604Y-148098347D01*
X169488604Y-148098347D01*
G37*
G36*
X166688604Y-148098347D02*
G01*
X166725144Y-148109432D01*
X166758821Y-148127433D01*
X166788341Y-148151659D01*
X166812567Y-148181179D01*
X166830568Y-148214856D01*
X166841653Y-148251396D01*
X166846000Y-148295538D01*
X166846000Y-149744462D01*
X166841653Y-149788604D01*
X166830568Y-149825144D01*
X166812567Y-149858821D01*
X166788341Y-149888341D01*
X166758821Y-149912567D01*
X166725144Y-149930568D01*
X166688604Y-149941653D01*
X166644462Y-149946000D01*
X165695538Y-149946000D01*
X165651396Y-149941653D01*
X165614856Y-149930568D01*
X165581179Y-149912567D01*
X165551659Y-149888341D01*
X165527433Y-149858821D01*
X165509432Y-149825144D01*
X165498347Y-149788604D01*
X165494000Y-149744462D01*
X165494000Y-148295538D01*
X165498347Y-148251396D01*
X165509432Y-148214856D01*
X165527433Y-148181179D01*
X165551659Y-148151659D01*
X165581179Y-148127433D01*
X165614856Y-148109432D01*
X165651396Y-148098347D01*
X165695538Y-148094000D01*
X166644462Y-148094000D01*
X166688604Y-148098347D01*
X166688604Y-148098347D01*
G37*
G36*
X162879928Y-148696764D02*
G01*
X162901009Y-148703160D01*
X162920445Y-148713548D01*
X162937476Y-148727524D01*
X162951452Y-148744555D01*
X162961840Y-148763991D01*
X162968236Y-148785072D01*
X162971000Y-148813140D01*
X162971000Y-149276860D01*
X162968236Y-149304928D01*
X162961840Y-149326009D01*
X162951452Y-149345445D01*
X162937476Y-149362476D01*
X162920445Y-149376452D01*
X162901009Y-149386840D01*
X162879928Y-149393236D01*
X162851860Y-149396000D01*
X161238140Y-149396000D01*
X161210072Y-149393236D01*
X161188991Y-149386840D01*
X161169555Y-149376452D01*
X161152524Y-149362476D01*
X161138548Y-149345445D01*
X161128160Y-149326009D01*
X161121764Y-149304928D01*
X161119000Y-149276860D01*
X161119000Y-148813140D01*
X161121764Y-148785072D01*
X161128160Y-148763991D01*
X161138548Y-148744555D01*
X161152524Y-148727524D01*
X161169555Y-148713548D01*
X161188991Y-148703160D01*
X161210072Y-148696764D01*
X161238140Y-148694000D01*
X162851860Y-148694000D01*
X162879928Y-148696764D01*
X162879928Y-148696764D01*
G37*
G36*
X157729928Y-148696764D02*
G01*
X157751009Y-148703160D01*
X157770445Y-148713548D01*
X157787476Y-148727524D01*
X157801452Y-148744555D01*
X157811840Y-148763991D01*
X157818236Y-148785072D01*
X157821000Y-148813140D01*
X157821000Y-149276860D01*
X157818236Y-149304928D01*
X157811840Y-149326009D01*
X157801452Y-149345445D01*
X157787476Y-149362476D01*
X157770445Y-149376452D01*
X157751009Y-149386840D01*
X157729928Y-149393236D01*
X157701860Y-149396000D01*
X156088140Y-149396000D01*
X156060072Y-149393236D01*
X156038991Y-149386840D01*
X156019555Y-149376452D01*
X156002524Y-149362476D01*
X155988548Y-149345445D01*
X155978160Y-149326009D01*
X155971764Y-149304928D01*
X155969000Y-149276860D01*
X155969000Y-148813140D01*
X155971764Y-148785072D01*
X155978160Y-148763991D01*
X155988548Y-148744555D01*
X156002524Y-148727524D01*
X156019555Y-148713548D01*
X156038991Y-148703160D01*
X156060072Y-148696764D01*
X156088140Y-148694000D01*
X157701860Y-148694000D01*
X157729928Y-148696764D01*
X157729928Y-148696764D01*
G37*
G36*
X151884739Y-146728707D02*
G01*
X151980329Y-146738122D01*
X152164306Y-146793931D01*
X152164309Y-146793932D01*
X152225095Y-146826423D01*
X152333860Y-146884559D01*
X152380035Y-146922454D01*
X152482476Y-147006524D01*
X152566546Y-147108965D01*
X152604441Y-147155140D01*
X152647006Y-147234775D01*
X152695068Y-147324691D01*
X152695069Y-147324694D01*
X152750878Y-147508671D01*
X152769722Y-147700000D01*
X152750878Y-147891329D01*
X152703351Y-148048003D01*
X152695068Y-148075309D01*
X152675113Y-148112641D01*
X152604441Y-148244860D01*
X152591259Y-148260922D01*
X152482476Y-148393476D01*
X152380035Y-148477546D01*
X152333860Y-148515441D01*
X152254225Y-148558006D01*
X152164309Y-148606068D01*
X152164306Y-148606069D01*
X151980329Y-148661878D01*
X151884739Y-148671293D01*
X151836945Y-148676000D01*
X150543055Y-148676000D01*
X150495261Y-148671293D01*
X150399671Y-148661878D01*
X150215694Y-148606069D01*
X150215691Y-148606068D01*
X150125775Y-148558006D01*
X150046140Y-148515441D01*
X149999965Y-148477546D01*
X149897524Y-148393476D01*
X149788741Y-148260922D01*
X149775559Y-148244860D01*
X149704887Y-148112641D01*
X149684932Y-148075309D01*
X149676649Y-148048003D01*
X149629122Y-147891329D01*
X149610278Y-147700000D01*
X149629122Y-147508671D01*
X149684931Y-147324694D01*
X149684932Y-147324691D01*
X149732994Y-147234775D01*
X149775559Y-147155140D01*
X149813454Y-147108965D01*
X149897524Y-147006524D01*
X149999965Y-146922454D01*
X150046140Y-146884559D01*
X150154905Y-146826423D01*
X150215691Y-146793932D01*
X150215694Y-146793931D01*
X150399671Y-146738122D01*
X150495261Y-146728707D01*
X150543055Y-146724000D01*
X151836945Y-146724000D01*
X151884739Y-146728707D01*
X151884739Y-146728707D01*
G37*
G36*
X139384739Y-146728707D02*
G01*
X139480329Y-146738122D01*
X139664306Y-146793931D01*
X139664309Y-146793932D01*
X139725095Y-146826423D01*
X139833860Y-146884559D01*
X139880035Y-146922454D01*
X139982476Y-147006524D01*
X140066546Y-147108965D01*
X140104441Y-147155140D01*
X140147006Y-147234775D01*
X140195068Y-147324691D01*
X140195069Y-147324694D01*
X140250878Y-147508671D01*
X140269722Y-147700000D01*
X140250878Y-147891329D01*
X140203351Y-148048003D01*
X140195068Y-148075309D01*
X140175113Y-148112641D01*
X140104441Y-148244860D01*
X140091259Y-148260922D01*
X139982476Y-148393476D01*
X139880035Y-148477546D01*
X139833860Y-148515441D01*
X139754225Y-148558006D01*
X139664309Y-148606068D01*
X139664306Y-148606069D01*
X139480329Y-148661878D01*
X139384739Y-148671293D01*
X139336945Y-148676000D01*
X138043055Y-148676000D01*
X137995261Y-148671293D01*
X137899671Y-148661878D01*
X137715694Y-148606069D01*
X137715691Y-148606068D01*
X137625775Y-148558006D01*
X137546140Y-148515441D01*
X137499965Y-148477546D01*
X137397524Y-148393476D01*
X137288741Y-148260922D01*
X137275559Y-148244860D01*
X137204887Y-148112641D01*
X137184932Y-148075309D01*
X137176649Y-148048003D01*
X137129122Y-147891329D01*
X137110278Y-147700000D01*
X137129122Y-147508671D01*
X137184931Y-147324694D01*
X137184932Y-147324691D01*
X137232994Y-147234775D01*
X137275559Y-147155140D01*
X137313454Y-147108965D01*
X137397524Y-147006524D01*
X137499965Y-146922454D01*
X137546140Y-146884559D01*
X137654905Y-146826423D01*
X137715691Y-146793932D01*
X137715694Y-146793931D01*
X137899671Y-146738122D01*
X137995261Y-146728707D01*
X138043055Y-146724000D01*
X139336945Y-146724000D01*
X139384739Y-146728707D01*
X139384739Y-146728707D01*
G37*
G36*
X157729928Y-147426764D02*
G01*
X157751009Y-147433160D01*
X157770445Y-147443548D01*
X157787476Y-147457524D01*
X157801452Y-147474555D01*
X157811840Y-147493991D01*
X157818236Y-147515072D01*
X157821000Y-147543140D01*
X157821000Y-148006860D01*
X157818236Y-148034928D01*
X157811840Y-148056009D01*
X157801452Y-148075445D01*
X157787476Y-148092476D01*
X157770445Y-148106452D01*
X157751009Y-148116840D01*
X157729928Y-148123236D01*
X157701860Y-148126000D01*
X156088140Y-148126000D01*
X156060072Y-148123236D01*
X156038991Y-148116840D01*
X156019555Y-148106452D01*
X156002524Y-148092476D01*
X155988548Y-148075445D01*
X155978160Y-148056009D01*
X155971764Y-148034928D01*
X155969000Y-148006860D01*
X155969000Y-147543140D01*
X155971764Y-147515072D01*
X155978160Y-147493991D01*
X155988548Y-147474555D01*
X156002524Y-147457524D01*
X156019555Y-147443548D01*
X156038991Y-147433160D01*
X156060072Y-147426764D01*
X156088140Y-147424000D01*
X157701860Y-147424000D01*
X157729928Y-147426764D01*
X157729928Y-147426764D01*
G37*
G36*
X162879928Y-147426764D02*
G01*
X162901009Y-147433160D01*
X162920445Y-147443548D01*
X162937476Y-147457524D01*
X162951452Y-147474555D01*
X162961840Y-147493991D01*
X162968236Y-147515072D01*
X162971000Y-147543140D01*
X162971000Y-148006860D01*
X162968236Y-148034928D01*
X162961840Y-148056009D01*
X162951452Y-148075445D01*
X162937476Y-148092476D01*
X162920445Y-148106452D01*
X162901009Y-148116840D01*
X162879928Y-148123236D01*
X162851860Y-148126000D01*
X161238140Y-148126000D01*
X161210072Y-148123236D01*
X161188991Y-148116840D01*
X161169555Y-148106452D01*
X161152524Y-148092476D01*
X161138548Y-148075445D01*
X161128160Y-148056009D01*
X161121764Y-148034928D01*
X161119000Y-148006860D01*
X161119000Y-147543140D01*
X161121764Y-147515072D01*
X161128160Y-147493991D01*
X161138548Y-147474555D01*
X161152524Y-147457524D01*
X161169555Y-147443548D01*
X161188991Y-147433160D01*
X161210072Y-147426764D01*
X161238140Y-147424000D01*
X162851860Y-147424000D01*
X162879928Y-147426764D01*
X162879928Y-147426764D01*
G37*
G36*
X203626000Y-147746000D02*
G01*
X201774000Y-147746000D01*
X201774000Y-146694000D01*
X203626000Y-146694000D01*
X203626000Y-147746000D01*
X203626000Y-147746000D01*
G37*
G36*
X157729928Y-146156764D02*
G01*
X157751009Y-146163160D01*
X157770445Y-146173548D01*
X157787476Y-146187524D01*
X157801452Y-146204555D01*
X157811840Y-146223991D01*
X157818236Y-146245072D01*
X157821000Y-146273140D01*
X157821000Y-146736860D01*
X157818236Y-146764928D01*
X157811840Y-146786009D01*
X157801452Y-146805445D01*
X157787476Y-146822476D01*
X157770445Y-146836452D01*
X157751009Y-146846840D01*
X157729928Y-146853236D01*
X157701860Y-146856000D01*
X156088140Y-146856000D01*
X156060072Y-146853236D01*
X156038991Y-146846840D01*
X156019555Y-146836452D01*
X156002524Y-146822476D01*
X155988548Y-146805445D01*
X155978160Y-146786009D01*
X155971764Y-146764928D01*
X155969000Y-146736860D01*
X155969000Y-146273140D01*
X155971764Y-146245072D01*
X155978160Y-146223991D01*
X155988548Y-146204555D01*
X156002524Y-146187524D01*
X156019555Y-146173548D01*
X156038991Y-146163160D01*
X156060072Y-146156764D01*
X156088140Y-146154000D01*
X157701860Y-146154000D01*
X157729928Y-146156764D01*
X157729928Y-146156764D01*
G37*
G36*
X162879928Y-146156764D02*
G01*
X162901009Y-146163160D01*
X162920445Y-146173548D01*
X162937476Y-146187524D01*
X162951452Y-146204555D01*
X162961840Y-146223991D01*
X162968236Y-146245072D01*
X162971000Y-146273140D01*
X162971000Y-146736860D01*
X162968236Y-146764928D01*
X162961840Y-146786009D01*
X162951452Y-146805445D01*
X162937476Y-146822476D01*
X162920445Y-146836452D01*
X162901009Y-146846840D01*
X162879928Y-146853236D01*
X162851860Y-146856000D01*
X161238140Y-146856000D01*
X161210072Y-146853236D01*
X161188991Y-146846840D01*
X161169555Y-146836452D01*
X161152524Y-146822476D01*
X161138548Y-146805445D01*
X161128160Y-146786009D01*
X161121764Y-146764928D01*
X161119000Y-146736860D01*
X161119000Y-146273140D01*
X161121764Y-146245072D01*
X161128160Y-146223991D01*
X161138548Y-146204555D01*
X161152524Y-146187524D01*
X161169555Y-146173548D01*
X161188991Y-146163160D01*
X161210072Y-146156764D01*
X161238140Y-146154000D01*
X162851860Y-146154000D01*
X162879928Y-146156764D01*
X162879928Y-146156764D01*
G37*
G36*
X209926000Y-146571000D02*
G01*
X208074000Y-146571000D01*
X208074000Y-143269000D01*
X209926000Y-143269000D01*
X209926000Y-146571000D01*
X209926000Y-146571000D01*
G37*
G36*
X184834739Y-143998707D02*
G01*
X184930329Y-144008122D01*
X185114306Y-144063931D01*
X185114309Y-144063932D01*
X185156998Y-144086750D01*
X185283860Y-144154559D01*
X185326396Y-144189468D01*
X185432476Y-144276524D01*
X185497699Y-144356000D01*
X185554441Y-144425140D01*
X185597006Y-144504775D01*
X185645068Y-144594691D01*
X185645069Y-144594694D01*
X185700878Y-144778671D01*
X185719722Y-144970000D01*
X185700878Y-145161329D01*
X185645069Y-145345306D01*
X185645068Y-145345309D01*
X185597006Y-145435225D01*
X185554441Y-145514860D01*
X185516546Y-145561035D01*
X185432476Y-145663476D01*
X185330035Y-145747546D01*
X185283860Y-145785441D01*
X185204225Y-145828006D01*
X185114309Y-145876068D01*
X185114306Y-145876069D01*
X184930329Y-145931878D01*
X184834739Y-145941293D01*
X184786945Y-145946000D01*
X183493055Y-145946000D01*
X183445261Y-145941293D01*
X183349671Y-145931878D01*
X183165694Y-145876069D01*
X183165691Y-145876068D01*
X183075775Y-145828006D01*
X182996140Y-145785441D01*
X182949965Y-145747546D01*
X182847524Y-145663476D01*
X182763454Y-145561035D01*
X182725559Y-145514860D01*
X182682994Y-145435225D01*
X182634932Y-145345309D01*
X182634931Y-145345306D01*
X182579122Y-145161329D01*
X182560278Y-144970000D01*
X182579122Y-144778671D01*
X182634931Y-144594694D01*
X182634932Y-144594691D01*
X182682994Y-144504775D01*
X182725559Y-144425140D01*
X182782301Y-144356000D01*
X182847524Y-144276524D01*
X182953604Y-144189468D01*
X182996140Y-144154559D01*
X183123002Y-144086750D01*
X183165691Y-144063932D01*
X183165694Y-144063931D01*
X183349671Y-144008122D01*
X183445261Y-143998707D01*
X183493055Y-143994000D01*
X184786945Y-143994000D01*
X184834739Y-143998707D01*
X184834739Y-143998707D01*
G37*
G36*
X172334739Y-143998707D02*
G01*
X172430329Y-144008122D01*
X172614306Y-144063931D01*
X172614309Y-144063932D01*
X172656998Y-144086750D01*
X172783860Y-144154559D01*
X172826396Y-144189468D01*
X172932476Y-144276524D01*
X172997699Y-144356000D01*
X173054441Y-144425140D01*
X173097006Y-144504775D01*
X173145068Y-144594691D01*
X173145069Y-144594694D01*
X173200878Y-144778671D01*
X173219722Y-144970000D01*
X173200878Y-145161329D01*
X173145069Y-145345306D01*
X173145068Y-145345309D01*
X173097006Y-145435225D01*
X173054441Y-145514860D01*
X173016546Y-145561035D01*
X172932476Y-145663476D01*
X172830035Y-145747546D01*
X172783860Y-145785441D01*
X172704225Y-145828006D01*
X172614309Y-145876068D01*
X172614306Y-145876069D01*
X172430329Y-145931878D01*
X172334739Y-145941293D01*
X172286945Y-145946000D01*
X170993055Y-145946000D01*
X170945261Y-145941293D01*
X170849671Y-145931878D01*
X170665694Y-145876069D01*
X170665691Y-145876068D01*
X170575775Y-145828006D01*
X170496140Y-145785441D01*
X170449965Y-145747546D01*
X170347524Y-145663476D01*
X170263454Y-145561035D01*
X170225559Y-145514860D01*
X170182994Y-145435225D01*
X170134932Y-145345309D01*
X170134931Y-145345306D01*
X170079122Y-145161329D01*
X170060278Y-144970000D01*
X170079122Y-144778671D01*
X170134931Y-144594694D01*
X170134932Y-144594691D01*
X170182994Y-144504775D01*
X170225559Y-144425140D01*
X170282301Y-144356000D01*
X170347524Y-144276524D01*
X170453604Y-144189468D01*
X170496140Y-144154559D01*
X170623002Y-144086750D01*
X170665691Y-144063932D01*
X170665694Y-144063931D01*
X170849671Y-144008122D01*
X170945261Y-143998707D01*
X170993055Y-143994000D01*
X172286945Y-143994000D01*
X172334739Y-143998707D01*
X172334739Y-143998707D01*
G37*
G36*
X203626000Y-145446000D02*
G01*
X201774000Y-145446000D01*
X201774000Y-144394000D01*
X203626000Y-144394000D01*
X203626000Y-145446000D01*
X203626000Y-145446000D01*
G37*
G36*
X197244468Y-143283565D02*
G01*
X197283138Y-143295296D01*
X197318777Y-143314346D01*
X197350017Y-143339983D01*
X197375654Y-143371223D01*
X197394704Y-143406862D01*
X197406435Y-143445532D01*
X197411000Y-143491888D01*
X197411000Y-144143112D01*
X197406435Y-144189468D01*
X197394704Y-144228138D01*
X197375654Y-144263777D01*
X197350017Y-144295017D01*
X197318777Y-144320654D01*
X197283138Y-144339704D01*
X197244468Y-144351435D01*
X197198112Y-144356000D01*
X196121888Y-144356000D01*
X196075532Y-144351435D01*
X196036862Y-144339704D01*
X196001223Y-144320654D01*
X195969983Y-144295017D01*
X195944346Y-144263777D01*
X195925296Y-144228138D01*
X195913565Y-144189468D01*
X195909000Y-144143112D01*
X195909000Y-143491888D01*
X195913565Y-143445532D01*
X195925296Y-143406862D01*
X195944346Y-143371223D01*
X195969983Y-143339983D01*
X196001223Y-143314346D01*
X196036862Y-143295296D01*
X196075532Y-143283565D01*
X196121888Y-143279000D01*
X197198112Y-143279000D01*
X197244468Y-143283565D01*
X197244468Y-143283565D01*
G37*
G36*
X203626000Y-143146000D02*
G01*
X201774000Y-143146000D01*
X201774000Y-142094000D01*
X203626000Y-142094000D01*
X203626000Y-143146000D01*
X203626000Y-143146000D01*
G37*
G36*
X197244468Y-141408565D02*
G01*
X197283138Y-141420296D01*
X197318777Y-141439346D01*
X197350017Y-141464983D01*
X197375654Y-141496223D01*
X197394704Y-141531862D01*
X197406435Y-141570532D01*
X197411000Y-141616888D01*
X197411000Y-142268112D01*
X197406435Y-142314468D01*
X197394704Y-142353138D01*
X197375654Y-142388777D01*
X197350017Y-142420017D01*
X197318777Y-142445654D01*
X197283138Y-142464704D01*
X197244468Y-142476435D01*
X197198112Y-142481000D01*
X196121888Y-142481000D01*
X196075532Y-142476435D01*
X196036862Y-142464704D01*
X196001223Y-142445654D01*
X195969983Y-142420017D01*
X195944346Y-142388777D01*
X195925296Y-142353138D01*
X195913565Y-142314468D01*
X195909000Y-142268112D01*
X195909000Y-141616888D01*
X195913565Y-141570532D01*
X195925296Y-141531862D01*
X195944346Y-141496223D01*
X195969983Y-141464983D01*
X196001223Y-141439346D01*
X196036862Y-141420296D01*
X196075532Y-141408565D01*
X196121888Y-141404000D01*
X197198112Y-141404000D01*
X197244468Y-141408565D01*
X197244468Y-141408565D01*
G37*
G36*
X184834739Y-138998707D02*
G01*
X184930329Y-139008122D01*
X185114306Y-139063931D01*
X185114309Y-139063932D01*
X185204225Y-139111994D01*
X185283860Y-139154559D01*
X185330035Y-139192454D01*
X185432476Y-139276524D01*
X185516546Y-139378965D01*
X185554441Y-139425140D01*
X185597006Y-139504775D01*
X185645068Y-139594691D01*
X185645069Y-139594694D01*
X185700878Y-139778671D01*
X185719722Y-139970000D01*
X185700878Y-140161329D01*
X185645069Y-140345306D01*
X185645068Y-140345309D01*
X185597006Y-140435225D01*
X185554441Y-140514860D01*
X185516546Y-140561035D01*
X185432476Y-140663476D01*
X185330035Y-140747546D01*
X185283860Y-140785441D01*
X185204225Y-140828006D01*
X185114309Y-140876068D01*
X185114306Y-140876069D01*
X184930329Y-140931878D01*
X184834739Y-140941293D01*
X184786945Y-140946000D01*
X183493055Y-140946000D01*
X183445261Y-140941293D01*
X183349671Y-140931878D01*
X183165694Y-140876069D01*
X183165691Y-140876068D01*
X183075775Y-140828006D01*
X182996140Y-140785441D01*
X182949965Y-140747546D01*
X182847524Y-140663476D01*
X182763454Y-140561035D01*
X182725559Y-140514860D01*
X182682994Y-140435225D01*
X182634932Y-140345309D01*
X182634931Y-140345306D01*
X182579122Y-140161329D01*
X182560278Y-139970000D01*
X182579122Y-139778671D01*
X182634931Y-139594694D01*
X182634932Y-139594691D01*
X182682994Y-139504775D01*
X182725559Y-139425140D01*
X182763454Y-139378965D01*
X182847524Y-139276524D01*
X182949965Y-139192454D01*
X182996140Y-139154559D01*
X183075775Y-139111994D01*
X183165691Y-139063932D01*
X183165694Y-139063931D01*
X183349671Y-139008122D01*
X183445261Y-138998707D01*
X183493055Y-138994000D01*
X184786945Y-138994000D01*
X184834739Y-138998707D01*
X184834739Y-138998707D01*
G37*
G36*
X172334739Y-138998707D02*
G01*
X172430329Y-139008122D01*
X172614306Y-139063931D01*
X172614309Y-139063932D01*
X172704225Y-139111994D01*
X172783860Y-139154559D01*
X172830035Y-139192454D01*
X172932476Y-139276524D01*
X173016546Y-139378965D01*
X173054441Y-139425140D01*
X173097006Y-139504775D01*
X173145068Y-139594691D01*
X173145069Y-139594694D01*
X173200878Y-139778671D01*
X173219722Y-139970000D01*
X173200878Y-140161329D01*
X173145069Y-140345306D01*
X173145068Y-140345309D01*
X173097006Y-140435225D01*
X173054441Y-140514860D01*
X173016546Y-140561035D01*
X172932476Y-140663476D01*
X172830035Y-140747546D01*
X172783860Y-140785441D01*
X172704225Y-140828006D01*
X172614309Y-140876068D01*
X172614306Y-140876069D01*
X172430329Y-140931878D01*
X172334739Y-140941293D01*
X172286945Y-140946000D01*
X170993055Y-140946000D01*
X170945261Y-140941293D01*
X170849671Y-140931878D01*
X170665694Y-140876069D01*
X170665691Y-140876068D01*
X170575775Y-140828006D01*
X170496140Y-140785441D01*
X170449965Y-140747546D01*
X170347524Y-140663476D01*
X170263454Y-140561035D01*
X170225559Y-140514860D01*
X170182994Y-140435225D01*
X170134932Y-140345309D01*
X170134931Y-140345306D01*
X170079122Y-140161329D01*
X170060278Y-139970000D01*
X170079122Y-139778671D01*
X170134931Y-139594694D01*
X170134932Y-139594691D01*
X170182994Y-139504775D01*
X170225559Y-139425140D01*
X170263454Y-139378965D01*
X170347524Y-139276524D01*
X170449965Y-139192454D01*
X170496140Y-139154559D01*
X170575775Y-139111994D01*
X170665691Y-139063932D01*
X170665694Y-139063931D01*
X170849671Y-139008122D01*
X170945261Y-138998707D01*
X170993055Y-138994000D01*
X172286945Y-138994000D01*
X172334739Y-138998707D01*
X172334739Y-138998707D01*
G37*
G36*
X171425641Y-133672092D02*
G01*
X171553941Y-133725236D01*
X171553943Y-133725237D01*
X171612069Y-133764076D01*
X171669410Y-133802390D01*
X171767610Y-133900590D01*
X171844764Y-134016059D01*
X171897908Y-134144359D01*
X171925000Y-134280562D01*
X171925000Y-134419438D01*
X171897908Y-134555641D01*
X171844764Y-134683941D01*
X171844763Y-134683943D01*
X171767609Y-134799411D01*
X171669411Y-134897609D01*
X171553943Y-134974763D01*
X171553942Y-134974764D01*
X171553941Y-134974764D01*
X171425641Y-135027908D01*
X171289438Y-135055000D01*
X171150562Y-135055000D01*
X171014359Y-135027908D01*
X170886059Y-134974764D01*
X170886058Y-134974764D01*
X170886057Y-134974763D01*
X170770589Y-134897609D01*
X170672391Y-134799411D01*
X170595237Y-134683943D01*
X170595236Y-134683941D01*
X170542092Y-134555641D01*
X170515000Y-134419438D01*
X170515000Y-134280562D01*
X170542092Y-134144359D01*
X170595236Y-134016059D01*
X170672390Y-133900590D01*
X170770590Y-133802390D01*
X170827931Y-133764076D01*
X170886057Y-133725237D01*
X170886059Y-133725236D01*
X171014359Y-133672092D01*
X171150562Y-133645000D01*
X171289438Y-133645000D01*
X171425641Y-133672092D01*
X171425641Y-133672092D01*
G37*
G36*
X191745641Y-133672092D02*
G01*
X191873941Y-133725236D01*
X191873943Y-133725237D01*
X191932069Y-133764076D01*
X191989410Y-133802390D01*
X192087610Y-133900590D01*
X192164764Y-134016059D01*
X192217908Y-134144359D01*
X192245000Y-134280562D01*
X192245000Y-134419438D01*
X192217908Y-134555641D01*
X192164764Y-134683941D01*
X192164763Y-134683943D01*
X192087609Y-134799411D01*
X191989411Y-134897609D01*
X191873943Y-134974763D01*
X191873942Y-134974764D01*
X191873941Y-134974764D01*
X191745641Y-135027908D01*
X191609438Y-135055000D01*
X191470562Y-135055000D01*
X191334359Y-135027908D01*
X191206059Y-134974764D01*
X191206058Y-134974764D01*
X191206057Y-134974763D01*
X191090589Y-134897609D01*
X190992391Y-134799411D01*
X190915237Y-134683943D01*
X190915236Y-134683941D01*
X190862092Y-134555641D01*
X190835000Y-134419438D01*
X190835000Y-134280562D01*
X190862092Y-134144359D01*
X190915236Y-134016059D01*
X190992390Y-133900590D01*
X191090590Y-133802390D01*
X191147931Y-133764076D01*
X191206057Y-133725237D01*
X191206059Y-133725236D01*
X191334359Y-133672092D01*
X191470562Y-133645000D01*
X191609438Y-133645000D01*
X191745641Y-133672092D01*
X191745641Y-133672092D01*
G37*
G36*
X189205641Y-133672092D02*
G01*
X189333941Y-133725236D01*
X189333943Y-133725237D01*
X189392069Y-133764076D01*
X189449410Y-133802390D01*
X189547610Y-133900590D01*
X189624764Y-134016059D01*
X189677908Y-134144359D01*
X189705000Y-134280562D01*
X189705000Y-134419438D01*
X189677908Y-134555641D01*
X189624764Y-134683941D01*
X189624763Y-134683943D01*
X189547609Y-134799411D01*
X189449411Y-134897609D01*
X189333943Y-134974763D01*
X189333942Y-134974764D01*
X189333941Y-134974764D01*
X189205641Y-135027908D01*
X189069438Y-135055000D01*
X188930562Y-135055000D01*
X188794359Y-135027908D01*
X188666059Y-134974764D01*
X188666058Y-134974764D01*
X188666057Y-134974763D01*
X188550589Y-134897609D01*
X188452391Y-134799411D01*
X188375237Y-134683943D01*
X188375236Y-134683941D01*
X188322092Y-134555641D01*
X188295000Y-134419438D01*
X188295000Y-134280562D01*
X188322092Y-134144359D01*
X188375236Y-134016059D01*
X188452390Y-133900590D01*
X188550590Y-133802390D01*
X188607931Y-133764076D01*
X188666057Y-133725237D01*
X188666059Y-133725236D01*
X188794359Y-133672092D01*
X188930562Y-133645000D01*
X189069438Y-133645000D01*
X189205641Y-133672092D01*
X189205641Y-133672092D01*
G37*
G36*
X186665641Y-133672092D02*
G01*
X186793941Y-133725236D01*
X186793943Y-133725237D01*
X186852069Y-133764076D01*
X186909410Y-133802390D01*
X187007610Y-133900590D01*
X187084764Y-134016059D01*
X187137908Y-134144359D01*
X187165000Y-134280562D01*
X187165000Y-134419438D01*
X187137908Y-134555641D01*
X187084764Y-134683941D01*
X187084763Y-134683943D01*
X187007609Y-134799411D01*
X186909411Y-134897609D01*
X186793943Y-134974763D01*
X186793942Y-134974764D01*
X186793941Y-134974764D01*
X186665641Y-135027908D01*
X186529438Y-135055000D01*
X186390562Y-135055000D01*
X186254359Y-135027908D01*
X186126059Y-134974764D01*
X186126058Y-134974764D01*
X186126057Y-134974763D01*
X186010589Y-134897609D01*
X185912391Y-134799411D01*
X185835237Y-134683943D01*
X185835236Y-134683941D01*
X185782092Y-134555641D01*
X185755000Y-134419438D01*
X185755000Y-134280562D01*
X185782092Y-134144359D01*
X185835236Y-134016059D01*
X185912390Y-133900590D01*
X186010590Y-133802390D01*
X186067931Y-133764076D01*
X186126057Y-133725237D01*
X186126059Y-133725236D01*
X186254359Y-133672092D01*
X186390562Y-133645000D01*
X186529438Y-133645000D01*
X186665641Y-133672092D01*
X186665641Y-133672092D01*
G37*
G36*
X184125641Y-133672092D02*
G01*
X184253941Y-133725236D01*
X184253943Y-133725237D01*
X184312069Y-133764076D01*
X184369410Y-133802390D01*
X184467610Y-133900590D01*
X184544764Y-134016059D01*
X184597908Y-134144359D01*
X184625000Y-134280562D01*
X184625000Y-134419438D01*
X184597908Y-134555641D01*
X184544764Y-134683941D01*
X184544763Y-134683943D01*
X184467609Y-134799411D01*
X184369411Y-134897609D01*
X184253943Y-134974763D01*
X184253942Y-134974764D01*
X184253941Y-134974764D01*
X184125641Y-135027908D01*
X183989438Y-135055000D01*
X183850562Y-135055000D01*
X183714359Y-135027908D01*
X183586059Y-134974764D01*
X183586058Y-134974764D01*
X183586057Y-134974763D01*
X183470589Y-134897609D01*
X183372391Y-134799411D01*
X183295237Y-134683943D01*
X183295236Y-134683941D01*
X183242092Y-134555641D01*
X183215000Y-134419438D01*
X183215000Y-134280562D01*
X183242092Y-134144359D01*
X183295236Y-134016059D01*
X183372390Y-133900590D01*
X183470590Y-133802390D01*
X183527931Y-133764076D01*
X183586057Y-133725237D01*
X183586059Y-133725236D01*
X183714359Y-133672092D01*
X183850562Y-133645000D01*
X183989438Y-133645000D01*
X184125641Y-133672092D01*
X184125641Y-133672092D01*
G37*
G36*
X181585641Y-133672092D02*
G01*
X181713941Y-133725236D01*
X181713943Y-133725237D01*
X181772069Y-133764076D01*
X181829410Y-133802390D01*
X181927610Y-133900590D01*
X182004764Y-134016059D01*
X182057908Y-134144359D01*
X182085000Y-134280562D01*
X182085000Y-134419438D01*
X182057908Y-134555641D01*
X182004764Y-134683941D01*
X182004763Y-134683943D01*
X181927609Y-134799411D01*
X181829411Y-134897609D01*
X181713943Y-134974763D01*
X181713942Y-134974764D01*
X181713941Y-134974764D01*
X181585641Y-135027908D01*
X181449438Y-135055000D01*
X181310562Y-135055000D01*
X181174359Y-135027908D01*
X181046059Y-134974764D01*
X181046058Y-134974764D01*
X181046057Y-134974763D01*
X180930589Y-134897609D01*
X180832391Y-134799411D01*
X180755237Y-134683943D01*
X180755236Y-134683941D01*
X180702092Y-134555641D01*
X180675000Y-134419438D01*
X180675000Y-134280562D01*
X180702092Y-134144359D01*
X180755236Y-134016059D01*
X180832390Y-133900590D01*
X180930590Y-133802390D01*
X180987931Y-133764076D01*
X181046057Y-133725237D01*
X181046059Y-133725236D01*
X181174359Y-133672092D01*
X181310562Y-133645000D01*
X181449438Y-133645000D01*
X181585641Y-133672092D01*
X181585641Y-133672092D01*
G37*
G36*
X179045641Y-133672092D02*
G01*
X179173941Y-133725236D01*
X179173943Y-133725237D01*
X179232069Y-133764076D01*
X179289410Y-133802390D01*
X179387610Y-133900590D01*
X179464764Y-134016059D01*
X179517908Y-134144359D01*
X179545000Y-134280562D01*
X179545000Y-134419438D01*
X179517908Y-134555641D01*
X179464764Y-134683941D01*
X179464763Y-134683943D01*
X179387609Y-134799411D01*
X179289411Y-134897609D01*
X179173943Y-134974763D01*
X179173942Y-134974764D01*
X179173941Y-134974764D01*
X179045641Y-135027908D01*
X178909438Y-135055000D01*
X178770562Y-135055000D01*
X178634359Y-135027908D01*
X178506059Y-134974764D01*
X178506058Y-134974764D01*
X178506057Y-134974763D01*
X178390589Y-134897609D01*
X178292391Y-134799411D01*
X178215237Y-134683943D01*
X178215236Y-134683941D01*
X178162092Y-134555641D01*
X178135000Y-134419438D01*
X178135000Y-134280562D01*
X178162092Y-134144359D01*
X178215236Y-134016059D01*
X178292390Y-133900590D01*
X178390590Y-133802390D01*
X178447931Y-133764076D01*
X178506057Y-133725237D01*
X178506059Y-133725236D01*
X178634359Y-133672092D01*
X178770562Y-133645000D01*
X178909438Y-133645000D01*
X179045641Y-133672092D01*
X179045641Y-133672092D01*
G37*
G36*
X176505641Y-133672092D02*
G01*
X176633941Y-133725236D01*
X176633943Y-133725237D01*
X176692069Y-133764076D01*
X176749410Y-133802390D01*
X176847610Y-133900590D01*
X176924764Y-134016059D01*
X176977908Y-134144359D01*
X177005000Y-134280562D01*
X177005000Y-134419438D01*
X176977908Y-134555641D01*
X176924764Y-134683941D01*
X176924763Y-134683943D01*
X176847609Y-134799411D01*
X176749411Y-134897609D01*
X176633943Y-134974763D01*
X176633942Y-134974764D01*
X176633941Y-134974764D01*
X176505641Y-135027908D01*
X176369438Y-135055000D01*
X176230562Y-135055000D01*
X176094359Y-135027908D01*
X175966059Y-134974764D01*
X175966058Y-134974764D01*
X175966057Y-134974763D01*
X175850589Y-134897609D01*
X175752391Y-134799411D01*
X175675237Y-134683943D01*
X175675236Y-134683941D01*
X175622092Y-134555641D01*
X175595000Y-134419438D01*
X175595000Y-134280562D01*
X175622092Y-134144359D01*
X175675236Y-134016059D01*
X175752390Y-133900590D01*
X175850590Y-133802390D01*
X175907931Y-133764076D01*
X175966057Y-133725237D01*
X175966059Y-133725236D01*
X176094359Y-133672092D01*
X176230562Y-133645000D01*
X176369438Y-133645000D01*
X176505641Y-133672092D01*
X176505641Y-133672092D01*
G37*
G36*
X168885641Y-133672092D02*
G01*
X169013941Y-133725236D01*
X169013943Y-133725237D01*
X169072069Y-133764076D01*
X169129410Y-133802390D01*
X169227610Y-133900590D01*
X169304764Y-134016059D01*
X169357908Y-134144359D01*
X169385000Y-134280562D01*
X169385000Y-134419438D01*
X169357908Y-134555641D01*
X169304764Y-134683941D01*
X169304763Y-134683943D01*
X169227609Y-134799411D01*
X169129411Y-134897609D01*
X169013943Y-134974763D01*
X169013942Y-134974764D01*
X169013941Y-134974764D01*
X168885641Y-135027908D01*
X168749438Y-135055000D01*
X168610562Y-135055000D01*
X168474359Y-135027908D01*
X168346059Y-134974764D01*
X168346058Y-134974764D01*
X168346057Y-134974763D01*
X168230589Y-134897609D01*
X168132391Y-134799411D01*
X168055237Y-134683943D01*
X168055236Y-134683941D01*
X168002092Y-134555641D01*
X167975000Y-134419438D01*
X167975000Y-134280562D01*
X168002092Y-134144359D01*
X168055236Y-134016059D01*
X168132390Y-133900590D01*
X168230590Y-133802390D01*
X168287931Y-133764076D01*
X168346057Y-133725237D01*
X168346059Y-133725236D01*
X168474359Y-133672092D01*
X168610562Y-133645000D01*
X168749438Y-133645000D01*
X168885641Y-133672092D01*
X168885641Y-133672092D01*
G37*
G36*
X173965641Y-133672092D02*
G01*
X174093941Y-133725236D01*
X174093943Y-133725237D01*
X174152069Y-133764076D01*
X174209410Y-133802390D01*
X174307610Y-133900590D01*
X174384764Y-134016059D01*
X174437908Y-134144359D01*
X174465000Y-134280562D01*
X174465000Y-134419438D01*
X174437908Y-134555641D01*
X174384764Y-134683941D01*
X174384763Y-134683943D01*
X174307609Y-134799411D01*
X174209411Y-134897609D01*
X174093943Y-134974763D01*
X174093942Y-134974764D01*
X174093941Y-134974764D01*
X173965641Y-135027908D01*
X173829438Y-135055000D01*
X173690562Y-135055000D01*
X173554359Y-135027908D01*
X173426059Y-134974764D01*
X173426058Y-134974764D01*
X173426057Y-134974763D01*
X173310589Y-134897609D01*
X173212391Y-134799411D01*
X173135237Y-134683943D01*
X173135236Y-134683941D01*
X173082092Y-134555641D01*
X173055000Y-134419438D01*
X173055000Y-134280562D01*
X173082092Y-134144359D01*
X173135236Y-134016059D01*
X173212390Y-133900590D01*
X173310590Y-133802390D01*
X173367931Y-133764076D01*
X173426057Y-133725237D01*
X173426059Y-133725236D01*
X173554359Y-133672092D01*
X173690562Y-133645000D01*
X173829438Y-133645000D01*
X173965641Y-133672092D01*
X173965641Y-133672092D01*
G37*
G36*
X168885641Y-131132092D02*
G01*
X169013941Y-131185236D01*
X169013943Y-131185237D01*
X169072069Y-131224076D01*
X169129410Y-131262390D01*
X169227610Y-131360590D01*
X169304764Y-131476059D01*
X169357908Y-131604359D01*
X169385000Y-131740562D01*
X169385000Y-131879438D01*
X169357908Y-132015641D01*
X169304764Y-132143941D01*
X169304763Y-132143943D01*
X169227609Y-132259411D01*
X169129411Y-132357609D01*
X169013943Y-132434763D01*
X169013942Y-132434764D01*
X169013941Y-132434764D01*
X168885641Y-132487908D01*
X168749438Y-132515000D01*
X168610562Y-132515000D01*
X168474359Y-132487908D01*
X168346059Y-132434764D01*
X168346058Y-132434764D01*
X168346057Y-132434763D01*
X168230589Y-132357609D01*
X168132391Y-132259411D01*
X168055237Y-132143943D01*
X168055236Y-132143941D01*
X168002092Y-132015641D01*
X167975000Y-131879438D01*
X167975000Y-131740562D01*
X168002092Y-131604359D01*
X168055236Y-131476059D01*
X168132390Y-131360590D01*
X168230590Y-131262390D01*
X168287931Y-131224076D01*
X168346057Y-131185237D01*
X168346059Y-131185236D01*
X168474359Y-131132092D01*
X168610562Y-131105000D01*
X168749438Y-131105000D01*
X168885641Y-131132092D01*
X168885641Y-131132092D01*
G37*
G36*
X171425641Y-131132092D02*
G01*
X171553941Y-131185236D01*
X171553943Y-131185237D01*
X171612069Y-131224076D01*
X171669410Y-131262390D01*
X171767610Y-131360590D01*
X171844764Y-131476059D01*
X171897908Y-131604359D01*
X171925000Y-131740562D01*
X171925000Y-131879438D01*
X171897908Y-132015641D01*
X171844764Y-132143941D01*
X171844763Y-132143943D01*
X171767609Y-132259411D01*
X171669411Y-132357609D01*
X171553943Y-132434763D01*
X171553942Y-132434764D01*
X171553941Y-132434764D01*
X171425641Y-132487908D01*
X171289438Y-132515000D01*
X171150562Y-132515000D01*
X171014359Y-132487908D01*
X170886059Y-132434764D01*
X170886058Y-132434764D01*
X170886057Y-132434763D01*
X170770589Y-132357609D01*
X170672391Y-132259411D01*
X170595237Y-132143943D01*
X170595236Y-132143941D01*
X170542092Y-132015641D01*
X170515000Y-131879438D01*
X170515000Y-131740562D01*
X170542092Y-131604359D01*
X170595236Y-131476059D01*
X170672390Y-131360590D01*
X170770590Y-131262390D01*
X170827931Y-131224076D01*
X170886057Y-131185237D01*
X170886059Y-131185236D01*
X171014359Y-131132092D01*
X171150562Y-131105000D01*
X171289438Y-131105000D01*
X171425641Y-131132092D01*
X171425641Y-131132092D01*
G37*
G36*
X191745641Y-131132092D02*
G01*
X191873941Y-131185236D01*
X191873943Y-131185237D01*
X191932069Y-131224076D01*
X191989410Y-131262390D01*
X192087610Y-131360590D01*
X192164764Y-131476059D01*
X192217908Y-131604359D01*
X192245000Y-131740562D01*
X192245000Y-131879438D01*
X192217908Y-132015641D01*
X192164764Y-132143941D01*
X192164763Y-132143943D01*
X192087609Y-132259411D01*
X191989411Y-132357609D01*
X191873943Y-132434763D01*
X191873942Y-132434764D01*
X191873941Y-132434764D01*
X191745641Y-132487908D01*
X191609438Y-132515000D01*
X191470562Y-132515000D01*
X191334359Y-132487908D01*
X191206059Y-132434764D01*
X191206058Y-132434764D01*
X191206057Y-132434763D01*
X191090589Y-132357609D01*
X190992391Y-132259411D01*
X190915237Y-132143943D01*
X190915236Y-132143941D01*
X190862092Y-132015641D01*
X190835000Y-131879438D01*
X190835000Y-131740562D01*
X190862092Y-131604359D01*
X190915236Y-131476059D01*
X190992390Y-131360590D01*
X191090590Y-131262390D01*
X191147931Y-131224076D01*
X191206057Y-131185237D01*
X191206059Y-131185236D01*
X191334359Y-131132092D01*
X191470562Y-131105000D01*
X191609438Y-131105000D01*
X191745641Y-131132092D01*
X191745641Y-131132092D01*
G37*
G36*
X186665641Y-131132092D02*
G01*
X186793941Y-131185236D01*
X186793943Y-131185237D01*
X186852069Y-131224076D01*
X186909410Y-131262390D01*
X187007610Y-131360590D01*
X187084764Y-131476059D01*
X187137908Y-131604359D01*
X187165000Y-131740562D01*
X187165000Y-131879438D01*
X187137908Y-132015641D01*
X187084764Y-132143941D01*
X187084763Y-132143943D01*
X187007609Y-132259411D01*
X186909411Y-132357609D01*
X186793943Y-132434763D01*
X186793942Y-132434764D01*
X186793941Y-132434764D01*
X186665641Y-132487908D01*
X186529438Y-132515000D01*
X186390562Y-132515000D01*
X186254359Y-132487908D01*
X186126059Y-132434764D01*
X186126058Y-132434764D01*
X186126057Y-132434763D01*
X186010589Y-132357609D01*
X185912391Y-132259411D01*
X185835237Y-132143943D01*
X185835236Y-132143941D01*
X185782092Y-132015641D01*
X185755000Y-131879438D01*
X185755000Y-131740562D01*
X185782092Y-131604359D01*
X185835236Y-131476059D01*
X185912390Y-131360590D01*
X186010590Y-131262390D01*
X186067931Y-131224076D01*
X186126057Y-131185237D01*
X186126059Y-131185236D01*
X186254359Y-131132092D01*
X186390562Y-131105000D01*
X186529438Y-131105000D01*
X186665641Y-131132092D01*
X186665641Y-131132092D01*
G37*
G36*
X184125641Y-131132092D02*
G01*
X184253941Y-131185236D01*
X184253943Y-131185237D01*
X184312069Y-131224076D01*
X184369410Y-131262390D01*
X184467610Y-131360590D01*
X184544764Y-131476059D01*
X184597908Y-131604359D01*
X184625000Y-131740562D01*
X184625000Y-131879438D01*
X184597908Y-132015641D01*
X184544764Y-132143941D01*
X184544763Y-132143943D01*
X184467609Y-132259411D01*
X184369411Y-132357609D01*
X184253943Y-132434763D01*
X184253942Y-132434764D01*
X184253941Y-132434764D01*
X184125641Y-132487908D01*
X183989438Y-132515000D01*
X183850562Y-132515000D01*
X183714359Y-132487908D01*
X183586059Y-132434764D01*
X183586058Y-132434764D01*
X183586057Y-132434763D01*
X183470589Y-132357609D01*
X183372391Y-132259411D01*
X183295237Y-132143943D01*
X183295236Y-132143941D01*
X183242092Y-132015641D01*
X183215000Y-131879438D01*
X183215000Y-131740562D01*
X183242092Y-131604359D01*
X183295236Y-131476059D01*
X183372390Y-131360590D01*
X183470590Y-131262390D01*
X183527931Y-131224076D01*
X183586057Y-131185237D01*
X183586059Y-131185236D01*
X183714359Y-131132092D01*
X183850562Y-131105000D01*
X183989438Y-131105000D01*
X184125641Y-131132092D01*
X184125641Y-131132092D01*
G37*
G36*
X179045641Y-131132092D02*
G01*
X179173941Y-131185236D01*
X179173943Y-131185237D01*
X179232069Y-131224076D01*
X179289410Y-131262390D01*
X179387610Y-131360590D01*
X179464764Y-131476059D01*
X179517908Y-131604359D01*
X179545000Y-131740562D01*
X179545000Y-131879438D01*
X179517908Y-132015641D01*
X179464764Y-132143941D01*
X179464763Y-132143943D01*
X179387609Y-132259411D01*
X179289411Y-132357609D01*
X179173943Y-132434763D01*
X179173942Y-132434764D01*
X179173941Y-132434764D01*
X179045641Y-132487908D01*
X178909438Y-132515000D01*
X178770562Y-132515000D01*
X178634359Y-132487908D01*
X178506059Y-132434764D01*
X178506058Y-132434764D01*
X178506057Y-132434763D01*
X178390589Y-132357609D01*
X178292391Y-132259411D01*
X178215237Y-132143943D01*
X178215236Y-132143941D01*
X178162092Y-132015641D01*
X178135000Y-131879438D01*
X178135000Y-131740562D01*
X178162092Y-131604359D01*
X178215236Y-131476059D01*
X178292390Y-131360590D01*
X178390590Y-131262390D01*
X178447931Y-131224076D01*
X178506057Y-131185237D01*
X178506059Y-131185236D01*
X178634359Y-131132092D01*
X178770562Y-131105000D01*
X178909438Y-131105000D01*
X179045641Y-131132092D01*
X179045641Y-131132092D01*
G37*
G36*
X176505641Y-131132092D02*
G01*
X176633941Y-131185236D01*
X176633943Y-131185237D01*
X176692069Y-131224076D01*
X176749410Y-131262390D01*
X176847610Y-131360590D01*
X176924764Y-131476059D01*
X176977908Y-131604359D01*
X177005000Y-131740562D01*
X177005000Y-131879438D01*
X176977908Y-132015641D01*
X176924764Y-132143941D01*
X176924763Y-132143943D01*
X176847609Y-132259411D01*
X176749411Y-132357609D01*
X176633943Y-132434763D01*
X176633942Y-132434764D01*
X176633941Y-132434764D01*
X176505641Y-132487908D01*
X176369438Y-132515000D01*
X176230562Y-132515000D01*
X176094359Y-132487908D01*
X175966059Y-132434764D01*
X175966058Y-132434764D01*
X175966057Y-132434763D01*
X175850589Y-132357609D01*
X175752391Y-132259411D01*
X175675237Y-132143943D01*
X175675236Y-132143941D01*
X175622092Y-132015641D01*
X175595000Y-131879438D01*
X175595000Y-131740562D01*
X175622092Y-131604359D01*
X175675236Y-131476059D01*
X175752390Y-131360590D01*
X175850590Y-131262390D01*
X175907931Y-131224076D01*
X175966057Y-131185237D01*
X175966059Y-131185236D01*
X176094359Y-131132092D01*
X176230562Y-131105000D01*
X176369438Y-131105000D01*
X176505641Y-131132092D01*
X176505641Y-131132092D01*
G37*
G36*
X189205641Y-131132092D02*
G01*
X189333941Y-131185236D01*
X189333943Y-131185237D01*
X189392069Y-131224076D01*
X189449410Y-131262390D01*
X189547610Y-131360590D01*
X189624764Y-131476059D01*
X189677908Y-131604359D01*
X189705000Y-131740562D01*
X189705000Y-131879438D01*
X189677908Y-132015641D01*
X189624764Y-132143941D01*
X189624763Y-132143943D01*
X189547609Y-132259411D01*
X189449411Y-132357609D01*
X189333943Y-132434763D01*
X189333942Y-132434764D01*
X189333941Y-132434764D01*
X189205641Y-132487908D01*
X189069438Y-132515000D01*
X188930562Y-132515000D01*
X188794359Y-132487908D01*
X188666059Y-132434764D01*
X188666058Y-132434764D01*
X188666057Y-132434763D01*
X188550589Y-132357609D01*
X188452391Y-132259411D01*
X188375237Y-132143943D01*
X188375236Y-132143941D01*
X188322092Y-132015641D01*
X188295000Y-131879438D01*
X188295000Y-131740562D01*
X188322092Y-131604359D01*
X188375236Y-131476059D01*
X188452390Y-131360590D01*
X188550590Y-131262390D01*
X188607931Y-131224076D01*
X188666057Y-131185237D01*
X188666059Y-131185236D01*
X188794359Y-131132092D01*
X188930562Y-131105000D01*
X189069438Y-131105000D01*
X189205641Y-131132092D01*
X189205641Y-131132092D01*
G37*
G36*
X173965641Y-131132092D02*
G01*
X174093941Y-131185236D01*
X174093943Y-131185237D01*
X174152069Y-131224076D01*
X174209410Y-131262390D01*
X174307610Y-131360590D01*
X174384764Y-131476059D01*
X174437908Y-131604359D01*
X174465000Y-131740562D01*
X174465000Y-131879438D01*
X174437908Y-132015641D01*
X174384764Y-132143941D01*
X174384763Y-132143943D01*
X174307609Y-132259411D01*
X174209411Y-132357609D01*
X174093943Y-132434763D01*
X174093942Y-132434764D01*
X174093941Y-132434764D01*
X173965641Y-132487908D01*
X173829438Y-132515000D01*
X173690562Y-132515000D01*
X173554359Y-132487908D01*
X173426059Y-132434764D01*
X173426058Y-132434764D01*
X173426057Y-132434763D01*
X173310589Y-132357609D01*
X173212391Y-132259411D01*
X173135237Y-132143943D01*
X173135236Y-132143941D01*
X173082092Y-132015641D01*
X173055000Y-131879438D01*
X173055000Y-131740562D01*
X173082092Y-131604359D01*
X173135236Y-131476059D01*
X173212390Y-131360590D01*
X173310590Y-131262390D01*
X173367931Y-131224076D01*
X173426057Y-131185237D01*
X173426059Y-131185236D01*
X173554359Y-131132092D01*
X173690562Y-131105000D01*
X173829438Y-131105000D01*
X173965641Y-131132092D01*
X173965641Y-131132092D01*
G37*
G36*
X181585641Y-131132092D02*
G01*
X181713941Y-131185236D01*
X181713943Y-131185237D01*
X181772069Y-131224076D01*
X181829410Y-131262390D01*
X181927610Y-131360590D01*
X182004764Y-131476059D01*
X182057908Y-131604359D01*
X182085000Y-131740562D01*
X182085000Y-131879438D01*
X182057908Y-132015641D01*
X182004764Y-132143941D01*
X182004763Y-132143943D01*
X181927609Y-132259411D01*
X181829411Y-132357609D01*
X181713943Y-132434763D01*
X181713942Y-132434764D01*
X181713941Y-132434764D01*
X181585641Y-132487908D01*
X181449438Y-132515000D01*
X181310562Y-132515000D01*
X181174359Y-132487908D01*
X181046059Y-132434764D01*
X181046058Y-132434764D01*
X181046057Y-132434763D01*
X180930589Y-132357609D01*
X180832391Y-132259411D01*
X180755237Y-132143943D01*
X180755236Y-132143941D01*
X180702092Y-132015641D01*
X180675000Y-131879438D01*
X180675000Y-131740562D01*
X180702092Y-131604359D01*
X180755236Y-131476059D01*
X180832390Y-131360590D01*
X180930590Y-131262390D01*
X180987931Y-131224076D01*
X181046057Y-131185237D01*
X181046059Y-131185236D01*
X181174359Y-131132092D01*
X181310562Y-131105000D01*
X181449438Y-131105000D01*
X181585641Y-131132092D01*
X181585641Y-131132092D01*
G37*
G36*
X184834739Y-125298707D02*
G01*
X184930329Y-125308122D01*
X185114306Y-125363931D01*
X185114309Y-125363932D01*
X185204225Y-125411994D01*
X185283860Y-125454559D01*
X185330035Y-125492454D01*
X185432476Y-125576524D01*
X185516546Y-125678965D01*
X185554441Y-125725140D01*
X185597006Y-125804775D01*
X185645068Y-125894691D01*
X185645069Y-125894694D01*
X185700878Y-126078671D01*
X185719722Y-126270000D01*
X185700878Y-126461329D01*
X185645069Y-126645306D01*
X185645068Y-126645309D01*
X185597006Y-126735225D01*
X185554441Y-126814860D01*
X185516546Y-126861035D01*
X185432476Y-126963476D01*
X185330035Y-127047546D01*
X185283860Y-127085441D01*
X185204225Y-127128006D01*
X185114309Y-127176068D01*
X185114306Y-127176069D01*
X184930329Y-127231878D01*
X184834739Y-127241293D01*
X184786945Y-127246000D01*
X183493055Y-127246000D01*
X183445261Y-127241293D01*
X183349671Y-127231878D01*
X183165694Y-127176069D01*
X183165691Y-127176068D01*
X183075775Y-127128006D01*
X182996140Y-127085441D01*
X182949965Y-127047546D01*
X182847524Y-126963476D01*
X182763454Y-126861035D01*
X182725559Y-126814860D01*
X182682994Y-126735225D01*
X182634932Y-126645309D01*
X182634931Y-126645306D01*
X182579122Y-126461329D01*
X182560278Y-126270000D01*
X182579122Y-126078671D01*
X182634931Y-125894694D01*
X182634932Y-125894691D01*
X182682994Y-125804775D01*
X182725559Y-125725140D01*
X182763454Y-125678965D01*
X182847524Y-125576524D01*
X182949965Y-125492454D01*
X182996140Y-125454559D01*
X183075775Y-125411994D01*
X183165691Y-125363932D01*
X183165694Y-125363931D01*
X183349671Y-125308122D01*
X183445261Y-125298707D01*
X183493055Y-125294000D01*
X184786945Y-125294000D01*
X184834739Y-125298707D01*
X184834739Y-125298707D01*
G37*
G36*
X206814739Y-125298707D02*
G01*
X206910329Y-125308122D01*
X207094306Y-125363931D01*
X207094309Y-125363932D01*
X207184225Y-125411994D01*
X207263860Y-125454559D01*
X207310035Y-125492454D01*
X207412476Y-125576524D01*
X207496546Y-125678965D01*
X207534441Y-125725140D01*
X207577006Y-125804775D01*
X207625068Y-125894691D01*
X207625069Y-125894694D01*
X207680878Y-126078671D01*
X207699722Y-126270000D01*
X207680878Y-126461329D01*
X207625069Y-126645306D01*
X207625068Y-126645309D01*
X207577006Y-126735225D01*
X207534441Y-126814860D01*
X207496546Y-126861035D01*
X207412476Y-126963476D01*
X207310035Y-127047546D01*
X207263860Y-127085441D01*
X207184225Y-127128006D01*
X207094309Y-127176068D01*
X207094306Y-127176069D01*
X206910329Y-127231878D01*
X206814739Y-127241293D01*
X206766945Y-127246000D01*
X205473055Y-127246000D01*
X205425261Y-127241293D01*
X205329671Y-127231878D01*
X205145694Y-127176069D01*
X205145691Y-127176068D01*
X205055775Y-127128006D01*
X204976140Y-127085441D01*
X204929965Y-127047546D01*
X204827524Y-126963476D01*
X204743454Y-126861035D01*
X204705559Y-126814860D01*
X204662994Y-126735225D01*
X204614932Y-126645309D01*
X204614931Y-126645306D01*
X204559122Y-126461329D01*
X204540278Y-126270000D01*
X204559122Y-126078671D01*
X204614931Y-125894694D01*
X204614932Y-125894691D01*
X204662994Y-125804775D01*
X204705559Y-125725140D01*
X204743454Y-125678965D01*
X204827524Y-125576524D01*
X204929965Y-125492454D01*
X204976140Y-125454559D01*
X205055775Y-125411994D01*
X205145691Y-125363932D01*
X205145694Y-125363931D01*
X205329671Y-125308122D01*
X205425261Y-125298707D01*
X205473055Y-125294000D01*
X206766945Y-125294000D01*
X206814739Y-125298707D01*
X206814739Y-125298707D01*
G37*
G36*
X194314739Y-125298707D02*
G01*
X194410329Y-125308122D01*
X194594306Y-125363931D01*
X194594309Y-125363932D01*
X194684225Y-125411994D01*
X194763860Y-125454559D01*
X194810035Y-125492454D01*
X194912476Y-125576524D01*
X194996546Y-125678965D01*
X195034441Y-125725140D01*
X195077006Y-125804775D01*
X195125068Y-125894691D01*
X195125069Y-125894694D01*
X195180878Y-126078671D01*
X195199722Y-126270000D01*
X195180878Y-126461329D01*
X195125069Y-126645306D01*
X195125068Y-126645309D01*
X195077006Y-126735225D01*
X195034441Y-126814860D01*
X194996546Y-126861035D01*
X194912476Y-126963476D01*
X194810035Y-127047546D01*
X194763860Y-127085441D01*
X194684225Y-127128006D01*
X194594309Y-127176068D01*
X194594306Y-127176069D01*
X194410329Y-127231878D01*
X194314739Y-127241293D01*
X194266945Y-127246000D01*
X192973055Y-127246000D01*
X192925261Y-127241293D01*
X192829671Y-127231878D01*
X192645694Y-127176069D01*
X192645691Y-127176068D01*
X192555775Y-127128006D01*
X192476140Y-127085441D01*
X192429965Y-127047546D01*
X192327524Y-126963476D01*
X192243454Y-126861035D01*
X192205559Y-126814860D01*
X192162994Y-126735225D01*
X192114932Y-126645309D01*
X192114931Y-126645306D01*
X192059122Y-126461329D01*
X192040278Y-126270000D01*
X192059122Y-126078671D01*
X192114931Y-125894694D01*
X192114932Y-125894691D01*
X192162994Y-125804775D01*
X192205559Y-125725140D01*
X192243454Y-125678965D01*
X192327524Y-125576524D01*
X192429965Y-125492454D01*
X192476140Y-125454559D01*
X192555775Y-125411994D01*
X192645691Y-125363932D01*
X192645694Y-125363931D01*
X192829671Y-125308122D01*
X192925261Y-125298707D01*
X192973055Y-125294000D01*
X194266945Y-125294000D01*
X194314739Y-125298707D01*
X194314739Y-125298707D01*
G37*
G36*
X150184739Y-125298707D02*
G01*
X150280329Y-125308122D01*
X150464306Y-125363931D01*
X150464309Y-125363932D01*
X150554225Y-125411994D01*
X150633860Y-125454559D01*
X150680035Y-125492454D01*
X150782476Y-125576524D01*
X150866546Y-125678965D01*
X150904441Y-125725140D01*
X150947006Y-125804775D01*
X150995068Y-125894691D01*
X150995069Y-125894694D01*
X151050878Y-126078671D01*
X151069722Y-126270000D01*
X151050878Y-126461329D01*
X150995069Y-126645306D01*
X150995068Y-126645309D01*
X150947006Y-126735225D01*
X150904441Y-126814860D01*
X150866546Y-126861035D01*
X150782476Y-126963476D01*
X150680035Y-127047546D01*
X150633860Y-127085441D01*
X150554225Y-127128006D01*
X150464309Y-127176068D01*
X150464306Y-127176069D01*
X150280329Y-127231878D01*
X150184739Y-127241293D01*
X150136945Y-127246000D01*
X148843055Y-127246000D01*
X148795261Y-127241293D01*
X148699671Y-127231878D01*
X148515694Y-127176069D01*
X148515691Y-127176068D01*
X148425775Y-127128006D01*
X148346140Y-127085441D01*
X148299965Y-127047546D01*
X148197524Y-126963476D01*
X148113454Y-126861035D01*
X148075559Y-126814860D01*
X148032994Y-126735225D01*
X147984932Y-126645309D01*
X147984931Y-126645306D01*
X147929122Y-126461329D01*
X147910278Y-126270000D01*
X147929122Y-126078671D01*
X147984931Y-125894694D01*
X147984932Y-125894691D01*
X148032994Y-125804775D01*
X148075559Y-125725140D01*
X148113454Y-125678965D01*
X148197524Y-125576524D01*
X148299965Y-125492454D01*
X148346140Y-125454559D01*
X148425775Y-125411994D01*
X148515691Y-125363932D01*
X148515694Y-125363931D01*
X148699671Y-125308122D01*
X148795261Y-125298707D01*
X148843055Y-125294000D01*
X150136945Y-125294000D01*
X150184739Y-125298707D01*
X150184739Y-125298707D01*
G37*
G36*
X162684739Y-125298707D02*
G01*
X162780329Y-125308122D01*
X162964306Y-125363931D01*
X162964309Y-125363932D01*
X163054225Y-125411994D01*
X163133860Y-125454559D01*
X163180035Y-125492454D01*
X163282476Y-125576524D01*
X163366546Y-125678965D01*
X163404441Y-125725140D01*
X163447006Y-125804775D01*
X163495068Y-125894691D01*
X163495069Y-125894694D01*
X163550878Y-126078671D01*
X163569722Y-126270000D01*
X163550878Y-126461329D01*
X163495069Y-126645306D01*
X163495068Y-126645309D01*
X163447006Y-126735225D01*
X163404441Y-126814860D01*
X163366546Y-126861035D01*
X163282476Y-126963476D01*
X163180035Y-127047546D01*
X163133860Y-127085441D01*
X163054225Y-127128006D01*
X162964309Y-127176068D01*
X162964306Y-127176069D01*
X162780329Y-127231878D01*
X162684739Y-127241293D01*
X162636945Y-127246000D01*
X161343055Y-127246000D01*
X161295261Y-127241293D01*
X161199671Y-127231878D01*
X161015694Y-127176069D01*
X161015691Y-127176068D01*
X160925775Y-127128006D01*
X160846140Y-127085441D01*
X160799965Y-127047546D01*
X160697524Y-126963476D01*
X160613454Y-126861035D01*
X160575559Y-126814860D01*
X160532994Y-126735225D01*
X160484932Y-126645309D01*
X160484931Y-126645306D01*
X160429122Y-126461329D01*
X160410278Y-126270000D01*
X160429122Y-126078671D01*
X160484931Y-125894694D01*
X160484932Y-125894691D01*
X160532994Y-125804775D01*
X160575559Y-125725140D01*
X160613454Y-125678965D01*
X160697524Y-125576524D01*
X160799965Y-125492454D01*
X160846140Y-125454559D01*
X160925775Y-125411994D01*
X161015691Y-125363932D01*
X161015694Y-125363931D01*
X161199671Y-125308122D01*
X161295261Y-125298707D01*
X161343055Y-125294000D01*
X162636945Y-125294000D01*
X162684739Y-125298707D01*
X162684739Y-125298707D01*
G37*
G36*
X172334739Y-125298707D02*
G01*
X172430329Y-125308122D01*
X172614306Y-125363931D01*
X172614309Y-125363932D01*
X172704225Y-125411994D01*
X172783860Y-125454559D01*
X172830035Y-125492454D01*
X172932476Y-125576524D01*
X173016546Y-125678965D01*
X173054441Y-125725140D01*
X173097006Y-125804775D01*
X173145068Y-125894691D01*
X173145069Y-125894694D01*
X173200878Y-126078671D01*
X173219722Y-126270000D01*
X173200878Y-126461329D01*
X173145069Y-126645306D01*
X173145068Y-126645309D01*
X173097006Y-126735225D01*
X173054441Y-126814860D01*
X173016546Y-126861035D01*
X172932476Y-126963476D01*
X172830035Y-127047546D01*
X172783860Y-127085441D01*
X172704225Y-127128006D01*
X172614309Y-127176068D01*
X172614306Y-127176069D01*
X172430329Y-127231878D01*
X172334739Y-127241293D01*
X172286945Y-127246000D01*
X170993055Y-127246000D01*
X170945261Y-127241293D01*
X170849671Y-127231878D01*
X170665694Y-127176069D01*
X170665691Y-127176068D01*
X170575775Y-127128006D01*
X170496140Y-127085441D01*
X170449965Y-127047546D01*
X170347524Y-126963476D01*
X170263454Y-126861035D01*
X170225559Y-126814860D01*
X170182994Y-126735225D01*
X170134932Y-126645309D01*
X170134931Y-126645306D01*
X170079122Y-126461329D01*
X170060278Y-126270000D01*
X170079122Y-126078671D01*
X170134931Y-125894694D01*
X170134932Y-125894691D01*
X170182994Y-125804775D01*
X170225559Y-125725140D01*
X170263454Y-125678965D01*
X170347524Y-125576524D01*
X170449965Y-125492454D01*
X170496140Y-125454559D01*
X170575775Y-125411994D01*
X170665691Y-125363932D01*
X170665694Y-125363931D01*
X170849671Y-125308122D01*
X170945261Y-125298707D01*
X170993055Y-125294000D01*
X172286945Y-125294000D01*
X172334739Y-125298707D01*
X172334739Y-125298707D01*
G37*
G36*
X150184739Y-120298707D02*
G01*
X150280329Y-120308122D01*
X150464306Y-120363931D01*
X150464309Y-120363932D01*
X150554225Y-120411994D01*
X150633860Y-120454559D01*
X150680035Y-120492454D01*
X150782476Y-120576524D01*
X150866546Y-120678965D01*
X150904441Y-120725140D01*
X150947006Y-120804775D01*
X150995068Y-120894691D01*
X150995069Y-120894694D01*
X151050878Y-121078671D01*
X151069722Y-121270000D01*
X151050878Y-121461329D01*
X150995069Y-121645306D01*
X150995068Y-121645309D01*
X150947006Y-121735225D01*
X150904441Y-121814860D01*
X150866546Y-121861035D01*
X150782476Y-121963476D01*
X150680035Y-122047546D01*
X150633860Y-122085441D01*
X150554225Y-122128006D01*
X150464309Y-122176068D01*
X150464306Y-122176069D01*
X150280329Y-122231878D01*
X150184739Y-122241293D01*
X150136945Y-122246000D01*
X148843055Y-122246000D01*
X148795261Y-122241293D01*
X148699671Y-122231878D01*
X148515694Y-122176069D01*
X148515691Y-122176068D01*
X148425775Y-122128006D01*
X148346140Y-122085441D01*
X148299965Y-122047546D01*
X148197524Y-121963476D01*
X148113454Y-121861035D01*
X148075559Y-121814860D01*
X148032994Y-121735225D01*
X147984932Y-121645309D01*
X147984931Y-121645306D01*
X147929122Y-121461329D01*
X147910278Y-121270000D01*
X147929122Y-121078671D01*
X147984931Y-120894694D01*
X147984932Y-120894691D01*
X148032994Y-120804775D01*
X148075559Y-120725140D01*
X148113454Y-120678965D01*
X148197524Y-120576524D01*
X148299965Y-120492454D01*
X148346140Y-120454559D01*
X148425775Y-120411994D01*
X148515691Y-120363932D01*
X148515694Y-120363931D01*
X148699671Y-120308122D01*
X148795261Y-120298707D01*
X148843055Y-120294000D01*
X150136945Y-120294000D01*
X150184739Y-120298707D01*
X150184739Y-120298707D01*
G37*
G36*
X206814739Y-120298707D02*
G01*
X206910329Y-120308122D01*
X207094306Y-120363931D01*
X207094309Y-120363932D01*
X207184225Y-120411994D01*
X207263860Y-120454559D01*
X207310035Y-120492454D01*
X207412476Y-120576524D01*
X207496546Y-120678965D01*
X207534441Y-120725140D01*
X207577006Y-120804775D01*
X207625068Y-120894691D01*
X207625069Y-120894694D01*
X207680878Y-121078671D01*
X207699722Y-121270000D01*
X207680878Y-121461329D01*
X207625069Y-121645306D01*
X207625068Y-121645309D01*
X207577006Y-121735225D01*
X207534441Y-121814860D01*
X207496546Y-121861035D01*
X207412476Y-121963476D01*
X207310035Y-122047546D01*
X207263860Y-122085441D01*
X207184225Y-122128006D01*
X207094309Y-122176068D01*
X207094306Y-122176069D01*
X206910329Y-122231878D01*
X206814739Y-122241293D01*
X206766945Y-122246000D01*
X205473055Y-122246000D01*
X205425261Y-122241293D01*
X205329671Y-122231878D01*
X205145694Y-122176069D01*
X205145691Y-122176068D01*
X205055775Y-122128006D01*
X204976140Y-122085441D01*
X204929965Y-122047546D01*
X204827524Y-121963476D01*
X204743454Y-121861035D01*
X204705559Y-121814860D01*
X204662994Y-121735225D01*
X204614932Y-121645309D01*
X204614931Y-121645306D01*
X204559122Y-121461329D01*
X204540278Y-121270000D01*
X204559122Y-121078671D01*
X204614931Y-120894694D01*
X204614932Y-120894691D01*
X204662994Y-120804775D01*
X204705559Y-120725140D01*
X204743454Y-120678965D01*
X204827524Y-120576524D01*
X204929965Y-120492454D01*
X204976140Y-120454559D01*
X205055775Y-120411994D01*
X205145691Y-120363932D01*
X205145694Y-120363931D01*
X205329671Y-120308122D01*
X205425261Y-120298707D01*
X205473055Y-120294000D01*
X206766945Y-120294000D01*
X206814739Y-120298707D01*
X206814739Y-120298707D01*
G37*
G36*
X194314739Y-120298707D02*
G01*
X194410329Y-120308122D01*
X194594306Y-120363931D01*
X194594309Y-120363932D01*
X194684225Y-120411994D01*
X194763860Y-120454559D01*
X194810035Y-120492454D01*
X194912476Y-120576524D01*
X194996546Y-120678965D01*
X195034441Y-120725140D01*
X195077006Y-120804775D01*
X195125068Y-120894691D01*
X195125069Y-120894694D01*
X195180878Y-121078671D01*
X195199722Y-121270000D01*
X195180878Y-121461329D01*
X195125069Y-121645306D01*
X195125068Y-121645309D01*
X195077006Y-121735225D01*
X195034441Y-121814860D01*
X194996546Y-121861035D01*
X194912476Y-121963476D01*
X194810035Y-122047546D01*
X194763860Y-122085441D01*
X194684225Y-122128006D01*
X194594309Y-122176068D01*
X194594306Y-122176069D01*
X194410329Y-122231878D01*
X194314739Y-122241293D01*
X194266945Y-122246000D01*
X192973055Y-122246000D01*
X192925261Y-122241293D01*
X192829671Y-122231878D01*
X192645694Y-122176069D01*
X192645691Y-122176068D01*
X192555775Y-122128006D01*
X192476140Y-122085441D01*
X192429965Y-122047546D01*
X192327524Y-121963476D01*
X192243454Y-121861035D01*
X192205559Y-121814860D01*
X192162994Y-121735225D01*
X192114932Y-121645309D01*
X192114931Y-121645306D01*
X192059122Y-121461329D01*
X192040278Y-121270000D01*
X192059122Y-121078671D01*
X192114931Y-120894694D01*
X192114932Y-120894691D01*
X192162994Y-120804775D01*
X192205559Y-120725140D01*
X192243454Y-120678965D01*
X192327524Y-120576524D01*
X192429965Y-120492454D01*
X192476140Y-120454559D01*
X192555775Y-120411994D01*
X192645691Y-120363932D01*
X192645694Y-120363931D01*
X192829671Y-120308122D01*
X192925261Y-120298707D01*
X192973055Y-120294000D01*
X194266945Y-120294000D01*
X194314739Y-120298707D01*
X194314739Y-120298707D01*
G37*
G36*
X162684739Y-120298707D02*
G01*
X162780329Y-120308122D01*
X162964306Y-120363931D01*
X162964309Y-120363932D01*
X163054225Y-120411994D01*
X163133860Y-120454559D01*
X163180035Y-120492454D01*
X163282476Y-120576524D01*
X163366546Y-120678965D01*
X163404441Y-120725140D01*
X163447006Y-120804775D01*
X163495068Y-120894691D01*
X163495069Y-120894694D01*
X163550878Y-121078671D01*
X163569722Y-121270000D01*
X163550878Y-121461329D01*
X163495069Y-121645306D01*
X163495068Y-121645309D01*
X163447006Y-121735225D01*
X163404441Y-121814860D01*
X163366546Y-121861035D01*
X163282476Y-121963476D01*
X163180035Y-122047546D01*
X163133860Y-122085441D01*
X163054225Y-122128006D01*
X162964309Y-122176068D01*
X162964306Y-122176069D01*
X162780329Y-122231878D01*
X162684739Y-122241293D01*
X162636945Y-122246000D01*
X161343055Y-122246000D01*
X161295261Y-122241293D01*
X161199671Y-122231878D01*
X161015694Y-122176069D01*
X161015691Y-122176068D01*
X160925775Y-122128006D01*
X160846140Y-122085441D01*
X160799965Y-122047546D01*
X160697524Y-121963476D01*
X160613454Y-121861035D01*
X160575559Y-121814860D01*
X160532994Y-121735225D01*
X160484932Y-121645309D01*
X160484931Y-121645306D01*
X160429122Y-121461329D01*
X160410278Y-121270000D01*
X160429122Y-121078671D01*
X160484931Y-120894694D01*
X160484932Y-120894691D01*
X160532994Y-120804775D01*
X160575559Y-120725140D01*
X160613454Y-120678965D01*
X160697524Y-120576524D01*
X160799965Y-120492454D01*
X160846140Y-120454559D01*
X160925775Y-120411994D01*
X161015691Y-120363932D01*
X161015694Y-120363931D01*
X161199671Y-120308122D01*
X161295261Y-120298707D01*
X161343055Y-120294000D01*
X162636945Y-120294000D01*
X162684739Y-120298707D01*
X162684739Y-120298707D01*
G37*
G36*
X172334739Y-120298707D02*
G01*
X172430329Y-120308122D01*
X172614306Y-120363931D01*
X172614309Y-120363932D01*
X172704225Y-120411994D01*
X172783860Y-120454559D01*
X172830035Y-120492454D01*
X172932476Y-120576524D01*
X173016546Y-120678965D01*
X173054441Y-120725140D01*
X173097006Y-120804775D01*
X173145068Y-120894691D01*
X173145069Y-120894694D01*
X173200878Y-121078671D01*
X173219722Y-121270000D01*
X173200878Y-121461329D01*
X173145069Y-121645306D01*
X173145068Y-121645309D01*
X173097006Y-121735225D01*
X173054441Y-121814860D01*
X173016546Y-121861035D01*
X172932476Y-121963476D01*
X172830035Y-122047546D01*
X172783860Y-122085441D01*
X172704225Y-122128006D01*
X172614309Y-122176068D01*
X172614306Y-122176069D01*
X172430329Y-122231878D01*
X172334739Y-122241293D01*
X172286945Y-122246000D01*
X170993055Y-122246000D01*
X170945261Y-122241293D01*
X170849671Y-122231878D01*
X170665694Y-122176069D01*
X170665691Y-122176068D01*
X170575775Y-122128006D01*
X170496140Y-122085441D01*
X170449965Y-122047546D01*
X170347524Y-121963476D01*
X170263454Y-121861035D01*
X170225559Y-121814860D01*
X170182994Y-121735225D01*
X170134932Y-121645309D01*
X170134931Y-121645306D01*
X170079122Y-121461329D01*
X170060278Y-121270000D01*
X170079122Y-121078671D01*
X170134931Y-120894694D01*
X170134932Y-120894691D01*
X170182994Y-120804775D01*
X170225559Y-120725140D01*
X170263454Y-120678965D01*
X170347524Y-120576524D01*
X170449965Y-120492454D01*
X170496140Y-120454559D01*
X170575775Y-120411994D01*
X170665691Y-120363932D01*
X170665694Y-120363931D01*
X170849671Y-120308122D01*
X170945261Y-120298707D01*
X170993055Y-120294000D01*
X172286945Y-120294000D01*
X172334739Y-120298707D01*
X172334739Y-120298707D01*
G37*
G36*
X184834739Y-120298707D02*
G01*
X184930329Y-120308122D01*
X185114306Y-120363931D01*
X185114309Y-120363932D01*
X185204225Y-120411994D01*
X185283860Y-120454559D01*
X185330035Y-120492454D01*
X185432476Y-120576524D01*
X185516546Y-120678965D01*
X185554441Y-120725140D01*
X185597006Y-120804775D01*
X185645068Y-120894691D01*
X185645069Y-120894694D01*
X185700878Y-121078671D01*
X185719722Y-121270000D01*
X185700878Y-121461329D01*
X185645069Y-121645306D01*
X185645068Y-121645309D01*
X185597006Y-121735225D01*
X185554441Y-121814860D01*
X185516546Y-121861035D01*
X185432476Y-121963476D01*
X185330035Y-122047546D01*
X185283860Y-122085441D01*
X185204225Y-122128006D01*
X185114309Y-122176068D01*
X185114306Y-122176069D01*
X184930329Y-122231878D01*
X184834739Y-122241293D01*
X184786945Y-122246000D01*
X183493055Y-122246000D01*
X183445261Y-122241293D01*
X183349671Y-122231878D01*
X183165694Y-122176069D01*
X183165691Y-122176068D01*
X183075775Y-122128006D01*
X182996140Y-122085441D01*
X182949965Y-122047546D01*
X182847524Y-121963476D01*
X182763454Y-121861035D01*
X182725559Y-121814860D01*
X182682994Y-121735225D01*
X182634932Y-121645309D01*
X182634931Y-121645306D01*
X182579122Y-121461329D01*
X182560278Y-121270000D01*
X182579122Y-121078671D01*
X182634931Y-120894694D01*
X182634932Y-120894691D01*
X182682994Y-120804775D01*
X182725559Y-120725140D01*
X182763454Y-120678965D01*
X182847524Y-120576524D01*
X182949965Y-120492454D01*
X182996140Y-120454559D01*
X183075775Y-120411994D01*
X183165691Y-120363932D01*
X183165694Y-120363931D01*
X183349671Y-120308122D01*
X183445261Y-120298707D01*
X183493055Y-120294000D01*
X184786945Y-120294000D01*
X184834739Y-120298707D01*
X184834739Y-120298707D01*
G37*
G36*
X172334739Y-106848707D02*
G01*
X172430329Y-106858122D01*
X172614306Y-106913931D01*
X172614309Y-106913932D01*
X172704225Y-106961994D01*
X172783860Y-107004559D01*
X172830035Y-107042454D01*
X172932476Y-107126524D01*
X173016546Y-107228965D01*
X173054441Y-107275140D01*
X173097006Y-107354775D01*
X173145068Y-107444691D01*
X173145069Y-107444694D01*
X173200878Y-107628671D01*
X173219722Y-107820000D01*
X173200878Y-108011329D01*
X173145069Y-108195306D01*
X173145068Y-108195309D01*
X173097006Y-108285225D01*
X173054441Y-108364860D01*
X173016546Y-108411035D01*
X172932476Y-108513476D01*
X172830035Y-108597546D01*
X172783860Y-108635441D01*
X172704225Y-108678006D01*
X172614309Y-108726068D01*
X172614306Y-108726069D01*
X172430329Y-108781878D01*
X172334739Y-108791293D01*
X172286945Y-108796000D01*
X170993055Y-108796000D01*
X170945261Y-108791293D01*
X170849671Y-108781878D01*
X170665694Y-108726069D01*
X170665691Y-108726068D01*
X170575775Y-108678006D01*
X170496140Y-108635441D01*
X170449965Y-108597546D01*
X170347524Y-108513476D01*
X170263454Y-108411035D01*
X170225559Y-108364860D01*
X170182994Y-108285225D01*
X170134932Y-108195309D01*
X170134931Y-108195306D01*
X170079122Y-108011329D01*
X170060278Y-107820000D01*
X170079122Y-107628671D01*
X170134931Y-107444694D01*
X170134932Y-107444691D01*
X170182994Y-107354775D01*
X170225559Y-107275140D01*
X170263454Y-107228965D01*
X170347524Y-107126524D01*
X170449965Y-107042454D01*
X170496140Y-107004559D01*
X170575775Y-106961994D01*
X170665691Y-106913932D01*
X170665694Y-106913931D01*
X170849671Y-106858122D01*
X170945261Y-106848707D01*
X170993055Y-106844000D01*
X172286945Y-106844000D01*
X172334739Y-106848707D01*
X172334739Y-106848707D01*
G37*
G36*
X184834739Y-106848707D02*
G01*
X184930329Y-106858122D01*
X185114306Y-106913931D01*
X185114309Y-106913932D01*
X185204225Y-106961994D01*
X185283860Y-107004559D01*
X185330035Y-107042454D01*
X185432476Y-107126524D01*
X185516546Y-107228965D01*
X185554441Y-107275140D01*
X185597006Y-107354775D01*
X185645068Y-107444691D01*
X185645069Y-107444694D01*
X185700878Y-107628671D01*
X185719722Y-107820000D01*
X185700878Y-108011329D01*
X185645069Y-108195306D01*
X185645068Y-108195309D01*
X185597006Y-108285225D01*
X185554441Y-108364860D01*
X185516546Y-108411035D01*
X185432476Y-108513476D01*
X185330035Y-108597546D01*
X185283860Y-108635441D01*
X185204225Y-108678006D01*
X185114309Y-108726068D01*
X185114306Y-108726069D01*
X184930329Y-108781878D01*
X184834739Y-108791293D01*
X184786945Y-108796000D01*
X183493055Y-108796000D01*
X183445261Y-108791293D01*
X183349671Y-108781878D01*
X183165694Y-108726069D01*
X183165691Y-108726068D01*
X183075775Y-108678006D01*
X182996140Y-108635441D01*
X182949965Y-108597546D01*
X182847524Y-108513476D01*
X182763454Y-108411035D01*
X182725559Y-108364860D01*
X182682994Y-108285225D01*
X182634932Y-108195309D01*
X182634931Y-108195306D01*
X182579122Y-108011329D01*
X182560278Y-107820000D01*
X182579122Y-107628671D01*
X182634931Y-107444694D01*
X182634932Y-107444691D01*
X182682994Y-107354775D01*
X182725559Y-107275140D01*
X182763454Y-107228965D01*
X182847524Y-107126524D01*
X182949965Y-107042454D01*
X182996140Y-107004559D01*
X183075775Y-106961994D01*
X183165691Y-106913932D01*
X183165694Y-106913931D01*
X183349671Y-106858122D01*
X183445261Y-106848707D01*
X183493055Y-106844000D01*
X184786945Y-106844000D01*
X184834739Y-106848707D01*
X184834739Y-106848707D01*
G37*
G36*
X184834739Y-101848707D02*
G01*
X184930329Y-101858122D01*
X185114306Y-101913931D01*
X185114309Y-101913932D01*
X185204225Y-101961994D01*
X185283860Y-102004559D01*
X185330035Y-102042454D01*
X185432476Y-102126524D01*
X185516546Y-102228965D01*
X185554441Y-102275140D01*
X185597006Y-102354775D01*
X185645068Y-102444691D01*
X185645069Y-102444694D01*
X185700878Y-102628671D01*
X185719722Y-102820000D01*
X185700878Y-103011329D01*
X185645069Y-103195306D01*
X185645068Y-103195309D01*
X185597006Y-103285225D01*
X185554441Y-103364860D01*
X185516546Y-103411035D01*
X185432476Y-103513476D01*
X185330035Y-103597546D01*
X185283860Y-103635441D01*
X185204225Y-103678006D01*
X185114309Y-103726068D01*
X185114306Y-103726069D01*
X184930329Y-103781878D01*
X184834739Y-103791293D01*
X184786945Y-103796000D01*
X183493055Y-103796000D01*
X183445261Y-103791293D01*
X183349671Y-103781878D01*
X183165694Y-103726069D01*
X183165691Y-103726068D01*
X183075775Y-103678006D01*
X182996140Y-103635441D01*
X182949965Y-103597546D01*
X182847524Y-103513476D01*
X182763454Y-103411035D01*
X182725559Y-103364860D01*
X182682994Y-103285225D01*
X182634932Y-103195309D01*
X182634931Y-103195306D01*
X182579122Y-103011329D01*
X182560278Y-102820000D01*
X182579122Y-102628671D01*
X182634931Y-102444694D01*
X182634932Y-102444691D01*
X182682994Y-102354775D01*
X182725559Y-102275140D01*
X182763454Y-102228965D01*
X182847524Y-102126524D01*
X182949965Y-102042454D01*
X182996140Y-102004559D01*
X183075775Y-101961994D01*
X183165691Y-101913932D01*
X183165694Y-101913931D01*
X183349671Y-101858122D01*
X183445261Y-101848707D01*
X183493055Y-101844000D01*
X184786945Y-101844000D01*
X184834739Y-101848707D01*
X184834739Y-101848707D01*
G37*
G36*
X172334739Y-101848707D02*
G01*
X172430329Y-101858122D01*
X172614306Y-101913931D01*
X172614309Y-101913932D01*
X172704225Y-101961994D01*
X172783860Y-102004559D01*
X172830035Y-102042454D01*
X172932476Y-102126524D01*
X173016546Y-102228965D01*
X173054441Y-102275140D01*
X173097006Y-102354775D01*
X173145068Y-102444691D01*
X173145069Y-102444694D01*
X173200878Y-102628671D01*
X173219722Y-102820000D01*
X173200878Y-103011329D01*
X173145069Y-103195306D01*
X173145068Y-103195309D01*
X173097006Y-103285225D01*
X173054441Y-103364860D01*
X173016546Y-103411035D01*
X172932476Y-103513476D01*
X172830035Y-103597546D01*
X172783860Y-103635441D01*
X172704225Y-103678006D01*
X172614309Y-103726068D01*
X172614306Y-103726069D01*
X172430329Y-103781878D01*
X172334739Y-103791293D01*
X172286945Y-103796000D01*
X170993055Y-103796000D01*
X170945261Y-103791293D01*
X170849671Y-103781878D01*
X170665694Y-103726069D01*
X170665691Y-103726068D01*
X170575775Y-103678006D01*
X170496140Y-103635441D01*
X170449965Y-103597546D01*
X170347524Y-103513476D01*
X170263454Y-103411035D01*
X170225559Y-103364860D01*
X170182994Y-103285225D01*
X170134932Y-103195309D01*
X170134931Y-103195306D01*
X170079122Y-103011329D01*
X170060278Y-102820000D01*
X170079122Y-102628671D01*
X170134931Y-102444694D01*
X170134932Y-102444691D01*
X170182994Y-102354775D01*
X170225559Y-102275140D01*
X170263454Y-102228965D01*
X170347524Y-102126524D01*
X170449965Y-102042454D01*
X170496140Y-102004559D01*
X170575775Y-101961994D01*
X170665691Y-101913932D01*
X170665694Y-101913931D01*
X170849671Y-101858122D01*
X170945261Y-101848707D01*
X170993055Y-101844000D01*
X172286945Y-101844000D01*
X172334739Y-101848707D01*
X172334739Y-101848707D01*
G37*
G36*
X179045641Y-90492092D02*
G01*
X179173941Y-90545236D01*
X179173943Y-90545237D01*
X179232069Y-90584076D01*
X179289410Y-90622390D01*
X179387610Y-90720590D01*
X179464764Y-90836059D01*
X179517908Y-90964359D01*
X179545000Y-91100562D01*
X179545000Y-91239438D01*
X179517908Y-91375641D01*
X179464764Y-91503941D01*
X179464763Y-91503943D01*
X179387609Y-91619411D01*
X179289411Y-91717609D01*
X179173943Y-91794763D01*
X179173942Y-91794764D01*
X179173941Y-91794764D01*
X179045641Y-91847908D01*
X178909438Y-91875000D01*
X178770562Y-91875000D01*
X178634359Y-91847908D01*
X178506059Y-91794764D01*
X178506058Y-91794764D01*
X178506057Y-91794763D01*
X178390589Y-91717609D01*
X178292391Y-91619411D01*
X178215237Y-91503943D01*
X178215236Y-91503941D01*
X178162092Y-91375641D01*
X178135000Y-91239438D01*
X178135000Y-91100562D01*
X178162092Y-90964359D01*
X178215236Y-90836059D01*
X178292390Y-90720590D01*
X178390590Y-90622390D01*
X178447931Y-90584076D01*
X178506057Y-90545237D01*
X178506059Y-90545236D01*
X178634359Y-90492092D01*
X178770562Y-90465000D01*
X178909438Y-90465000D01*
X179045641Y-90492092D01*
X179045641Y-90492092D01*
G37*
G36*
X168885641Y-90492092D02*
G01*
X169013941Y-90545236D01*
X169013943Y-90545237D01*
X169072069Y-90584076D01*
X169129410Y-90622390D01*
X169227610Y-90720590D01*
X169304764Y-90836059D01*
X169357908Y-90964359D01*
X169385000Y-91100562D01*
X169385000Y-91239438D01*
X169357908Y-91375641D01*
X169304764Y-91503941D01*
X169304763Y-91503943D01*
X169227609Y-91619411D01*
X169129411Y-91717609D01*
X169013943Y-91794763D01*
X169013942Y-91794764D01*
X169013941Y-91794764D01*
X168885641Y-91847908D01*
X168749438Y-91875000D01*
X168610562Y-91875000D01*
X168474359Y-91847908D01*
X168346059Y-91794764D01*
X168346058Y-91794764D01*
X168346057Y-91794763D01*
X168230589Y-91717609D01*
X168132391Y-91619411D01*
X168055237Y-91503943D01*
X168055236Y-91503941D01*
X168002092Y-91375641D01*
X167975000Y-91239438D01*
X167975000Y-91100562D01*
X168002092Y-90964359D01*
X168055236Y-90836059D01*
X168132390Y-90720590D01*
X168230590Y-90622390D01*
X168287931Y-90584076D01*
X168346057Y-90545237D01*
X168346059Y-90545236D01*
X168474359Y-90492092D01*
X168610562Y-90465000D01*
X168749438Y-90465000D01*
X168885641Y-90492092D01*
X168885641Y-90492092D01*
G37*
G36*
X171425641Y-90492092D02*
G01*
X171553941Y-90545236D01*
X171553943Y-90545237D01*
X171612069Y-90584076D01*
X171669410Y-90622390D01*
X171767610Y-90720590D01*
X171844764Y-90836059D01*
X171897908Y-90964359D01*
X171925000Y-91100562D01*
X171925000Y-91239438D01*
X171897908Y-91375641D01*
X171844764Y-91503941D01*
X171844763Y-91503943D01*
X171767609Y-91619411D01*
X171669411Y-91717609D01*
X171553943Y-91794763D01*
X171553942Y-91794764D01*
X171553941Y-91794764D01*
X171425641Y-91847908D01*
X171289438Y-91875000D01*
X171150562Y-91875000D01*
X171014359Y-91847908D01*
X170886059Y-91794764D01*
X170886058Y-91794764D01*
X170886057Y-91794763D01*
X170770589Y-91717609D01*
X170672391Y-91619411D01*
X170595237Y-91503943D01*
X170595236Y-91503941D01*
X170542092Y-91375641D01*
X170515000Y-91239438D01*
X170515000Y-91100562D01*
X170542092Y-90964359D01*
X170595236Y-90836059D01*
X170672390Y-90720590D01*
X170770590Y-90622390D01*
X170827931Y-90584076D01*
X170886057Y-90545237D01*
X170886059Y-90545236D01*
X171014359Y-90492092D01*
X171150562Y-90465000D01*
X171289438Y-90465000D01*
X171425641Y-90492092D01*
X171425641Y-90492092D01*
G37*
G36*
X176505641Y-90492092D02*
G01*
X176633941Y-90545236D01*
X176633943Y-90545237D01*
X176692069Y-90584076D01*
X176749410Y-90622390D01*
X176847610Y-90720590D01*
X176924764Y-90836059D01*
X176977908Y-90964359D01*
X177005000Y-91100562D01*
X177005000Y-91239438D01*
X176977908Y-91375641D01*
X176924764Y-91503941D01*
X176924763Y-91503943D01*
X176847609Y-91619411D01*
X176749411Y-91717609D01*
X176633943Y-91794763D01*
X176633942Y-91794764D01*
X176633941Y-91794764D01*
X176505641Y-91847908D01*
X176369438Y-91875000D01*
X176230562Y-91875000D01*
X176094359Y-91847908D01*
X175966059Y-91794764D01*
X175966058Y-91794764D01*
X175966057Y-91794763D01*
X175850589Y-91717609D01*
X175752391Y-91619411D01*
X175675237Y-91503943D01*
X175675236Y-91503941D01*
X175622092Y-91375641D01*
X175595000Y-91239438D01*
X175595000Y-91100562D01*
X175622092Y-90964359D01*
X175675236Y-90836059D01*
X175752390Y-90720590D01*
X175850590Y-90622390D01*
X175907931Y-90584076D01*
X175966057Y-90545237D01*
X175966059Y-90545236D01*
X176094359Y-90492092D01*
X176230562Y-90465000D01*
X176369438Y-90465000D01*
X176505641Y-90492092D01*
X176505641Y-90492092D01*
G37*
G36*
X181585641Y-90492092D02*
G01*
X181713941Y-90545236D01*
X181713943Y-90545237D01*
X181772069Y-90584076D01*
X181829410Y-90622390D01*
X181927610Y-90720590D01*
X182004764Y-90836059D01*
X182057908Y-90964359D01*
X182085000Y-91100562D01*
X182085000Y-91239438D01*
X182057908Y-91375641D01*
X182004764Y-91503941D01*
X182004763Y-91503943D01*
X181927609Y-91619411D01*
X181829411Y-91717609D01*
X181713943Y-91794763D01*
X181713942Y-91794764D01*
X181713941Y-91794764D01*
X181585641Y-91847908D01*
X181449438Y-91875000D01*
X181310562Y-91875000D01*
X181174359Y-91847908D01*
X181046059Y-91794764D01*
X181046058Y-91794764D01*
X181046057Y-91794763D01*
X180930589Y-91717609D01*
X180832391Y-91619411D01*
X180755237Y-91503943D01*
X180755236Y-91503941D01*
X180702092Y-91375641D01*
X180675000Y-91239438D01*
X180675000Y-91100562D01*
X180702092Y-90964359D01*
X180755236Y-90836059D01*
X180832390Y-90720590D01*
X180930590Y-90622390D01*
X180987931Y-90584076D01*
X181046057Y-90545237D01*
X181046059Y-90545236D01*
X181174359Y-90492092D01*
X181310562Y-90465000D01*
X181449438Y-90465000D01*
X181585641Y-90492092D01*
X181585641Y-90492092D01*
G37*
G36*
X186665641Y-90492092D02*
G01*
X186793941Y-90545236D01*
X186793943Y-90545237D01*
X186852069Y-90584076D01*
X186909410Y-90622390D01*
X187007610Y-90720590D01*
X187084764Y-90836059D01*
X187137908Y-90964359D01*
X187165000Y-91100562D01*
X187165000Y-91239438D01*
X187137908Y-91375641D01*
X187084764Y-91503941D01*
X187084763Y-91503943D01*
X187007609Y-91619411D01*
X186909411Y-91717609D01*
X186793943Y-91794763D01*
X186793942Y-91794764D01*
X186793941Y-91794764D01*
X186665641Y-91847908D01*
X186529438Y-91875000D01*
X186390562Y-91875000D01*
X186254359Y-91847908D01*
X186126059Y-91794764D01*
X186126058Y-91794764D01*
X186126057Y-91794763D01*
X186010589Y-91717609D01*
X185912391Y-91619411D01*
X185835237Y-91503943D01*
X185835236Y-91503941D01*
X185782092Y-91375641D01*
X185755000Y-91239438D01*
X185755000Y-91100562D01*
X185782092Y-90964359D01*
X185835236Y-90836059D01*
X185912390Y-90720590D01*
X186010590Y-90622390D01*
X186067931Y-90584076D01*
X186126057Y-90545237D01*
X186126059Y-90545236D01*
X186254359Y-90492092D01*
X186390562Y-90465000D01*
X186529438Y-90465000D01*
X186665641Y-90492092D01*
X186665641Y-90492092D01*
G37*
G36*
X189205641Y-90492092D02*
G01*
X189333941Y-90545236D01*
X189333943Y-90545237D01*
X189392069Y-90584076D01*
X189449410Y-90622390D01*
X189547610Y-90720590D01*
X189624764Y-90836059D01*
X189677908Y-90964359D01*
X189705000Y-91100562D01*
X189705000Y-91239438D01*
X189677908Y-91375641D01*
X189624764Y-91503941D01*
X189624763Y-91503943D01*
X189547609Y-91619411D01*
X189449411Y-91717609D01*
X189333943Y-91794763D01*
X189333942Y-91794764D01*
X189333941Y-91794764D01*
X189205641Y-91847908D01*
X189069438Y-91875000D01*
X188930562Y-91875000D01*
X188794359Y-91847908D01*
X188666059Y-91794764D01*
X188666058Y-91794764D01*
X188666057Y-91794763D01*
X188550589Y-91717609D01*
X188452391Y-91619411D01*
X188375237Y-91503943D01*
X188375236Y-91503941D01*
X188322092Y-91375641D01*
X188295000Y-91239438D01*
X188295000Y-91100562D01*
X188322092Y-90964359D01*
X188375236Y-90836059D01*
X188452390Y-90720590D01*
X188550590Y-90622390D01*
X188607931Y-90584076D01*
X188666057Y-90545237D01*
X188666059Y-90545236D01*
X188794359Y-90492092D01*
X188930562Y-90465000D01*
X189069438Y-90465000D01*
X189205641Y-90492092D01*
X189205641Y-90492092D01*
G37*
G36*
X191745641Y-90492092D02*
G01*
X191873941Y-90545236D01*
X191873943Y-90545237D01*
X191932069Y-90584076D01*
X191989410Y-90622390D01*
X192087610Y-90720590D01*
X192164764Y-90836059D01*
X192217908Y-90964359D01*
X192245000Y-91100562D01*
X192245000Y-91239438D01*
X192217908Y-91375641D01*
X192164764Y-91503941D01*
X192164763Y-91503943D01*
X192087609Y-91619411D01*
X191989411Y-91717609D01*
X191873943Y-91794763D01*
X191873942Y-91794764D01*
X191873941Y-91794764D01*
X191745641Y-91847908D01*
X191609438Y-91875000D01*
X191470562Y-91875000D01*
X191334359Y-91847908D01*
X191206059Y-91794764D01*
X191206058Y-91794764D01*
X191206057Y-91794763D01*
X191090589Y-91717609D01*
X190992391Y-91619411D01*
X190915237Y-91503943D01*
X190915236Y-91503941D01*
X190862092Y-91375641D01*
X190835000Y-91239438D01*
X190835000Y-91100562D01*
X190862092Y-90964359D01*
X190915236Y-90836059D01*
X190992390Y-90720590D01*
X191090590Y-90622390D01*
X191147931Y-90584076D01*
X191206057Y-90545237D01*
X191206059Y-90545236D01*
X191334359Y-90492092D01*
X191470562Y-90465000D01*
X191609438Y-90465000D01*
X191745641Y-90492092D01*
X191745641Y-90492092D01*
G37*
G36*
X173965641Y-90492092D02*
G01*
X174093941Y-90545236D01*
X174093943Y-90545237D01*
X174152069Y-90584076D01*
X174209410Y-90622390D01*
X174307610Y-90720590D01*
X174384764Y-90836059D01*
X174437908Y-90964359D01*
X174465000Y-91100562D01*
X174465000Y-91239438D01*
X174437908Y-91375641D01*
X174384764Y-91503941D01*
X174384763Y-91503943D01*
X174307609Y-91619411D01*
X174209411Y-91717609D01*
X174093943Y-91794763D01*
X174093942Y-91794764D01*
X174093941Y-91794764D01*
X173965641Y-91847908D01*
X173829438Y-91875000D01*
X173690562Y-91875000D01*
X173554359Y-91847908D01*
X173426059Y-91794764D01*
X173426058Y-91794764D01*
X173426057Y-91794763D01*
X173310589Y-91717609D01*
X173212391Y-91619411D01*
X173135237Y-91503943D01*
X173135236Y-91503941D01*
X173082092Y-91375641D01*
X173055000Y-91239438D01*
X173055000Y-91100562D01*
X173082092Y-90964359D01*
X173135236Y-90836059D01*
X173212390Y-90720590D01*
X173310590Y-90622390D01*
X173367931Y-90584076D01*
X173426057Y-90545237D01*
X173426059Y-90545236D01*
X173554359Y-90492092D01*
X173690562Y-90465000D01*
X173829438Y-90465000D01*
X173965641Y-90492092D01*
X173965641Y-90492092D01*
G37*
G36*
X184125641Y-90492092D02*
G01*
X184253941Y-90545236D01*
X184253943Y-90545237D01*
X184312069Y-90584076D01*
X184369410Y-90622390D01*
X184467610Y-90720590D01*
X184544764Y-90836059D01*
X184597908Y-90964359D01*
X184625000Y-91100562D01*
X184625000Y-91239438D01*
X184597908Y-91375641D01*
X184544764Y-91503941D01*
X184544763Y-91503943D01*
X184467609Y-91619411D01*
X184369411Y-91717609D01*
X184253943Y-91794763D01*
X184253942Y-91794764D01*
X184253941Y-91794764D01*
X184125641Y-91847908D01*
X183989438Y-91875000D01*
X183850562Y-91875000D01*
X183714359Y-91847908D01*
X183586059Y-91794764D01*
X183586058Y-91794764D01*
X183586057Y-91794763D01*
X183470589Y-91717609D01*
X183372391Y-91619411D01*
X183295237Y-91503943D01*
X183295236Y-91503941D01*
X183242092Y-91375641D01*
X183215000Y-91239438D01*
X183215000Y-91100562D01*
X183242092Y-90964359D01*
X183295236Y-90836059D01*
X183372390Y-90720590D01*
X183470590Y-90622390D01*
X183527931Y-90584076D01*
X183586057Y-90545237D01*
X183586059Y-90545236D01*
X183714359Y-90492092D01*
X183850562Y-90465000D01*
X183989438Y-90465000D01*
X184125641Y-90492092D01*
X184125641Y-90492092D01*
G37*
G36*
X192245000Y-89335000D02*
G01*
X190835000Y-89335000D01*
X190835000Y-87925000D01*
X192245000Y-87925000D01*
X192245000Y-89335000D01*
X192245000Y-89335000D01*
G37*
G36*
X189205641Y-87952092D02*
G01*
X189333941Y-88005236D01*
X189333943Y-88005237D01*
X189392069Y-88044076D01*
X189449410Y-88082390D01*
X189547610Y-88180590D01*
X189624764Y-88296059D01*
X189677908Y-88424359D01*
X189705000Y-88560562D01*
X189705000Y-88699438D01*
X189677908Y-88835641D01*
X189624764Y-88963941D01*
X189624763Y-88963943D01*
X189547609Y-89079411D01*
X189449411Y-89177609D01*
X189333943Y-89254763D01*
X189333942Y-89254764D01*
X189333941Y-89254764D01*
X189205641Y-89307908D01*
X189069438Y-89335000D01*
X188930562Y-89335000D01*
X188794359Y-89307908D01*
X188666059Y-89254764D01*
X188666058Y-89254764D01*
X188666057Y-89254763D01*
X188550589Y-89177609D01*
X188452391Y-89079411D01*
X188375237Y-88963943D01*
X188375236Y-88963941D01*
X188322092Y-88835641D01*
X188295000Y-88699438D01*
X188295000Y-88560562D01*
X188322092Y-88424359D01*
X188375236Y-88296059D01*
X188452390Y-88180590D01*
X188550590Y-88082390D01*
X188607931Y-88044076D01*
X188666057Y-88005237D01*
X188666059Y-88005236D01*
X188794359Y-87952092D01*
X188930562Y-87925000D01*
X189069438Y-87925000D01*
X189205641Y-87952092D01*
X189205641Y-87952092D01*
G37*
G36*
X186665641Y-87952092D02*
G01*
X186793941Y-88005236D01*
X186793943Y-88005237D01*
X186852069Y-88044076D01*
X186909410Y-88082390D01*
X187007610Y-88180590D01*
X187084764Y-88296059D01*
X187137908Y-88424359D01*
X187165000Y-88560562D01*
X187165000Y-88699438D01*
X187137908Y-88835641D01*
X187084764Y-88963941D01*
X187084763Y-88963943D01*
X187007609Y-89079411D01*
X186909411Y-89177609D01*
X186793943Y-89254763D01*
X186793942Y-89254764D01*
X186793941Y-89254764D01*
X186665641Y-89307908D01*
X186529438Y-89335000D01*
X186390562Y-89335000D01*
X186254359Y-89307908D01*
X186126059Y-89254764D01*
X186126058Y-89254764D01*
X186126057Y-89254763D01*
X186010589Y-89177609D01*
X185912391Y-89079411D01*
X185835237Y-88963943D01*
X185835236Y-88963941D01*
X185782092Y-88835641D01*
X185755000Y-88699438D01*
X185755000Y-88560562D01*
X185782092Y-88424359D01*
X185835236Y-88296059D01*
X185912390Y-88180590D01*
X186010590Y-88082390D01*
X186067931Y-88044076D01*
X186126057Y-88005237D01*
X186126059Y-88005236D01*
X186254359Y-87952092D01*
X186390562Y-87925000D01*
X186529438Y-87925000D01*
X186665641Y-87952092D01*
X186665641Y-87952092D01*
G37*
G36*
X184125641Y-87952092D02*
G01*
X184253941Y-88005236D01*
X184253943Y-88005237D01*
X184312069Y-88044076D01*
X184369410Y-88082390D01*
X184467610Y-88180590D01*
X184544764Y-88296059D01*
X184597908Y-88424359D01*
X184625000Y-88560562D01*
X184625000Y-88699438D01*
X184597908Y-88835641D01*
X184544764Y-88963941D01*
X184544763Y-88963943D01*
X184467609Y-89079411D01*
X184369411Y-89177609D01*
X184253943Y-89254763D01*
X184253942Y-89254764D01*
X184253941Y-89254764D01*
X184125641Y-89307908D01*
X183989438Y-89335000D01*
X183850562Y-89335000D01*
X183714359Y-89307908D01*
X183586059Y-89254764D01*
X183586058Y-89254764D01*
X183586057Y-89254763D01*
X183470589Y-89177609D01*
X183372391Y-89079411D01*
X183295237Y-88963943D01*
X183295236Y-88963941D01*
X183242092Y-88835641D01*
X183215000Y-88699438D01*
X183215000Y-88560562D01*
X183242092Y-88424359D01*
X183295236Y-88296059D01*
X183372390Y-88180590D01*
X183470590Y-88082390D01*
X183527931Y-88044076D01*
X183586057Y-88005237D01*
X183586059Y-88005236D01*
X183714359Y-87952092D01*
X183850562Y-87925000D01*
X183989438Y-87925000D01*
X184125641Y-87952092D01*
X184125641Y-87952092D01*
G37*
G36*
X181585641Y-87952092D02*
G01*
X181713941Y-88005236D01*
X181713943Y-88005237D01*
X181772069Y-88044076D01*
X181829410Y-88082390D01*
X181927610Y-88180590D01*
X182004764Y-88296059D01*
X182057908Y-88424359D01*
X182085000Y-88560562D01*
X182085000Y-88699438D01*
X182057908Y-88835641D01*
X182004764Y-88963941D01*
X182004763Y-88963943D01*
X181927609Y-89079411D01*
X181829411Y-89177609D01*
X181713943Y-89254763D01*
X181713942Y-89254764D01*
X181713941Y-89254764D01*
X181585641Y-89307908D01*
X181449438Y-89335000D01*
X181310562Y-89335000D01*
X181174359Y-89307908D01*
X181046059Y-89254764D01*
X181046058Y-89254764D01*
X181046057Y-89254763D01*
X180930589Y-89177609D01*
X180832391Y-89079411D01*
X180755237Y-88963943D01*
X180755236Y-88963941D01*
X180702092Y-88835641D01*
X180675000Y-88699438D01*
X180675000Y-88560562D01*
X180702092Y-88424359D01*
X180755236Y-88296059D01*
X180832390Y-88180590D01*
X180930590Y-88082390D01*
X180987931Y-88044076D01*
X181046057Y-88005237D01*
X181046059Y-88005236D01*
X181174359Y-87952092D01*
X181310562Y-87925000D01*
X181449438Y-87925000D01*
X181585641Y-87952092D01*
X181585641Y-87952092D01*
G37*
G36*
X176505641Y-87952092D02*
G01*
X176633941Y-88005236D01*
X176633943Y-88005237D01*
X176692069Y-88044076D01*
X176749410Y-88082390D01*
X176847610Y-88180590D01*
X176924764Y-88296059D01*
X176977908Y-88424359D01*
X177005000Y-88560562D01*
X177005000Y-88699438D01*
X176977908Y-88835641D01*
X176924764Y-88963941D01*
X176924763Y-88963943D01*
X176847609Y-89079411D01*
X176749411Y-89177609D01*
X176633943Y-89254763D01*
X176633942Y-89254764D01*
X176633941Y-89254764D01*
X176505641Y-89307908D01*
X176369438Y-89335000D01*
X176230562Y-89335000D01*
X176094359Y-89307908D01*
X175966059Y-89254764D01*
X175966058Y-89254764D01*
X175966057Y-89254763D01*
X175850589Y-89177609D01*
X175752391Y-89079411D01*
X175675237Y-88963943D01*
X175675236Y-88963941D01*
X175622092Y-88835641D01*
X175595000Y-88699438D01*
X175595000Y-88560562D01*
X175622092Y-88424359D01*
X175675236Y-88296059D01*
X175752390Y-88180590D01*
X175850590Y-88082390D01*
X175907931Y-88044076D01*
X175966057Y-88005237D01*
X175966059Y-88005236D01*
X176094359Y-87952092D01*
X176230562Y-87925000D01*
X176369438Y-87925000D01*
X176505641Y-87952092D01*
X176505641Y-87952092D01*
G37*
G36*
X173965641Y-87952092D02*
G01*
X174093941Y-88005236D01*
X174093943Y-88005237D01*
X174152069Y-88044076D01*
X174209410Y-88082390D01*
X174307610Y-88180590D01*
X174384764Y-88296059D01*
X174437908Y-88424359D01*
X174465000Y-88560562D01*
X174465000Y-88699438D01*
X174437908Y-88835641D01*
X174384764Y-88963941D01*
X174384763Y-88963943D01*
X174307609Y-89079411D01*
X174209411Y-89177609D01*
X174093943Y-89254763D01*
X174093942Y-89254764D01*
X174093941Y-89254764D01*
X173965641Y-89307908D01*
X173829438Y-89335000D01*
X173690562Y-89335000D01*
X173554359Y-89307908D01*
X173426059Y-89254764D01*
X173426058Y-89254764D01*
X173426057Y-89254763D01*
X173310589Y-89177609D01*
X173212391Y-89079411D01*
X173135237Y-88963943D01*
X173135236Y-88963941D01*
X173082092Y-88835641D01*
X173055000Y-88699438D01*
X173055000Y-88560562D01*
X173082092Y-88424359D01*
X173135236Y-88296059D01*
X173212390Y-88180590D01*
X173310590Y-88082390D01*
X173367931Y-88044076D01*
X173426057Y-88005237D01*
X173426059Y-88005236D01*
X173554359Y-87952092D01*
X173690562Y-87925000D01*
X173829438Y-87925000D01*
X173965641Y-87952092D01*
X173965641Y-87952092D01*
G37*
G36*
X168885641Y-87952092D02*
G01*
X169013941Y-88005236D01*
X169013943Y-88005237D01*
X169072069Y-88044076D01*
X169129410Y-88082390D01*
X169227610Y-88180590D01*
X169304764Y-88296059D01*
X169357908Y-88424359D01*
X169385000Y-88560562D01*
X169385000Y-88699438D01*
X169357908Y-88835641D01*
X169304764Y-88963941D01*
X169304763Y-88963943D01*
X169227609Y-89079411D01*
X169129411Y-89177609D01*
X169013943Y-89254763D01*
X169013942Y-89254764D01*
X169013941Y-89254764D01*
X168885641Y-89307908D01*
X168749438Y-89335000D01*
X168610562Y-89335000D01*
X168474359Y-89307908D01*
X168346059Y-89254764D01*
X168346058Y-89254764D01*
X168346057Y-89254763D01*
X168230589Y-89177609D01*
X168132391Y-89079411D01*
X168055237Y-88963943D01*
X168055236Y-88963941D01*
X168002092Y-88835641D01*
X167975000Y-88699438D01*
X167975000Y-88560562D01*
X168002092Y-88424359D01*
X168055236Y-88296059D01*
X168132390Y-88180590D01*
X168230590Y-88082390D01*
X168287931Y-88044076D01*
X168346057Y-88005237D01*
X168346059Y-88005236D01*
X168474359Y-87952092D01*
X168610562Y-87925000D01*
X168749438Y-87925000D01*
X168885641Y-87952092D01*
X168885641Y-87952092D01*
G37*
G36*
X171425641Y-87952092D02*
G01*
X171553941Y-88005236D01*
X171553943Y-88005237D01*
X171612069Y-88044076D01*
X171669410Y-88082390D01*
X171767610Y-88180590D01*
X171844764Y-88296059D01*
X171897908Y-88424359D01*
X171925000Y-88560562D01*
X171925000Y-88699438D01*
X171897908Y-88835641D01*
X171844764Y-88963941D01*
X171844763Y-88963943D01*
X171767609Y-89079411D01*
X171669411Y-89177609D01*
X171553943Y-89254763D01*
X171553942Y-89254764D01*
X171553941Y-89254764D01*
X171425641Y-89307908D01*
X171289438Y-89335000D01*
X171150562Y-89335000D01*
X171014359Y-89307908D01*
X170886059Y-89254764D01*
X170886058Y-89254764D01*
X170886057Y-89254763D01*
X170770589Y-89177609D01*
X170672391Y-89079411D01*
X170595237Y-88963943D01*
X170595236Y-88963941D01*
X170542092Y-88835641D01*
X170515000Y-88699438D01*
X170515000Y-88560562D01*
X170542092Y-88424359D01*
X170595236Y-88296059D01*
X170672390Y-88180590D01*
X170770590Y-88082390D01*
X170827931Y-88044076D01*
X170886057Y-88005237D01*
X170886059Y-88005236D01*
X171014359Y-87952092D01*
X171150562Y-87925000D01*
X171289438Y-87925000D01*
X171425641Y-87952092D01*
X171425641Y-87952092D01*
G37*
G36*
X179045641Y-87952092D02*
G01*
X179173941Y-88005236D01*
X179173943Y-88005237D01*
X179232069Y-88044076D01*
X179289410Y-88082390D01*
X179387610Y-88180590D01*
X179464764Y-88296059D01*
X179517908Y-88424359D01*
X179545000Y-88560562D01*
X179545000Y-88699438D01*
X179517908Y-88835641D01*
X179464764Y-88963941D01*
X179464763Y-88963943D01*
X179387609Y-89079411D01*
X179289411Y-89177609D01*
X179173943Y-89254763D01*
X179173942Y-89254764D01*
X179173941Y-89254764D01*
X179045641Y-89307908D01*
X178909438Y-89335000D01*
X178770562Y-89335000D01*
X178634359Y-89307908D01*
X178506059Y-89254764D01*
X178506058Y-89254764D01*
X178506057Y-89254763D01*
X178390589Y-89177609D01*
X178292391Y-89079411D01*
X178215237Y-88963943D01*
X178215236Y-88963941D01*
X178162092Y-88835641D01*
X178135000Y-88699438D01*
X178135000Y-88560562D01*
X178162092Y-88424359D01*
X178215236Y-88296059D01*
X178292390Y-88180590D01*
X178390590Y-88082390D01*
X178447931Y-88044076D01*
X178506057Y-88005237D01*
X178506059Y-88005236D01*
X178634359Y-87952092D01*
X178770562Y-87925000D01*
X178909438Y-87925000D01*
X179045641Y-87952092D01*
X179045641Y-87952092D01*
G37*
G36*
X211817142Y-82428242D02*
G01*
X211965101Y-82489529D01*
X212098255Y-82578499D01*
X212211501Y-82691745D01*
X212300471Y-82824899D01*
X212361758Y-82972858D01*
X212393000Y-83129925D01*
X212393000Y-83290075D01*
X212361758Y-83447142D01*
X212300471Y-83595101D01*
X212211501Y-83728255D01*
X212098255Y-83841501D01*
X211965101Y-83930471D01*
X211817142Y-83991758D01*
X211660075Y-84023000D01*
X211499925Y-84023000D01*
X211342858Y-83991758D01*
X211194899Y-83930471D01*
X211061745Y-83841501D01*
X210948499Y-83728255D01*
X210859529Y-83595101D01*
X210798242Y-83447142D01*
X210767000Y-83290075D01*
X210767000Y-83129925D01*
X210798242Y-82972858D01*
X210859529Y-82824899D01*
X210948499Y-82691745D01*
X211061745Y-82578499D01*
X211194899Y-82489529D01*
X211342858Y-82428242D01*
X211499925Y-82397000D01*
X211660075Y-82397000D01*
X211817142Y-82428242D01*
X211817142Y-82428242D01*
G37*
G36*
X214357142Y-82428242D02*
G01*
X214505101Y-82489529D01*
X214638255Y-82578499D01*
X214751501Y-82691745D01*
X214840471Y-82824899D01*
X214901758Y-82972858D01*
X214933000Y-83129925D01*
X214933000Y-83290075D01*
X214901758Y-83447142D01*
X214840471Y-83595101D01*
X214751501Y-83728255D01*
X214638255Y-83841501D01*
X214505101Y-83930471D01*
X214357142Y-83991758D01*
X214200075Y-84023000D01*
X214039925Y-84023000D01*
X213882858Y-83991758D01*
X213734899Y-83930471D01*
X213601745Y-83841501D01*
X213488499Y-83728255D01*
X213399529Y-83595101D01*
X213338242Y-83447142D01*
X213307000Y-83290075D01*
X213307000Y-83129925D01*
X213338242Y-82972858D01*
X213399529Y-82824899D01*
X213488499Y-82691745D01*
X213601745Y-82578499D01*
X213734899Y-82489529D01*
X213882858Y-82428242D01*
X214039925Y-82397000D01*
X214200075Y-82397000D01*
X214357142Y-82428242D01*
X214357142Y-82428242D01*
G37*
G36*
X209277142Y-82428242D02*
G01*
X209425101Y-82489529D01*
X209558255Y-82578499D01*
X209671501Y-82691745D01*
X209760471Y-82824899D01*
X209821758Y-82972858D01*
X209853000Y-83129925D01*
X209853000Y-83290075D01*
X209821758Y-83447142D01*
X209760471Y-83595101D01*
X209671501Y-83728255D01*
X209558255Y-83841501D01*
X209425101Y-83930471D01*
X209277142Y-83991758D01*
X209120075Y-84023000D01*
X208959925Y-84023000D01*
X208802858Y-83991758D01*
X208654899Y-83930471D01*
X208521745Y-83841501D01*
X208408499Y-83728255D01*
X208319529Y-83595101D01*
X208258242Y-83447142D01*
X208227000Y-83290075D01*
X208227000Y-83129925D01*
X208258242Y-82972858D01*
X208319529Y-82824899D01*
X208408499Y-82691745D01*
X208521745Y-82578499D01*
X208654899Y-82489529D01*
X208802858Y-82428242D01*
X208959925Y-82397000D01*
X209120075Y-82397000D01*
X209277142Y-82428242D01*
X209277142Y-82428242D01*
G37*
G36*
X201657142Y-82428242D02*
G01*
X201805101Y-82489529D01*
X201938255Y-82578499D01*
X202051501Y-82691745D01*
X202140471Y-82824899D01*
X202201758Y-82972858D01*
X202233000Y-83129925D01*
X202233000Y-83290075D01*
X202201758Y-83447142D01*
X202140471Y-83595101D01*
X202051501Y-83728255D01*
X201938255Y-83841501D01*
X201805101Y-83930471D01*
X201657142Y-83991758D01*
X201500075Y-84023000D01*
X201339925Y-84023000D01*
X201182858Y-83991758D01*
X201034899Y-83930471D01*
X200901745Y-83841501D01*
X200788499Y-83728255D01*
X200699529Y-83595101D01*
X200638242Y-83447142D01*
X200607000Y-83290075D01*
X200607000Y-83129925D01*
X200638242Y-82972858D01*
X200699529Y-82824899D01*
X200788499Y-82691745D01*
X200901745Y-82578499D01*
X201034899Y-82489529D01*
X201182858Y-82428242D01*
X201339925Y-82397000D01*
X201500075Y-82397000D01*
X201657142Y-82428242D01*
X201657142Y-82428242D01*
G37*
G36*
X206737142Y-82428242D02*
G01*
X206885101Y-82489529D01*
X207018255Y-82578499D01*
X207131501Y-82691745D01*
X207220471Y-82824899D01*
X207281758Y-82972858D01*
X207313000Y-83129925D01*
X207313000Y-83290075D01*
X207281758Y-83447142D01*
X207220471Y-83595101D01*
X207131501Y-83728255D01*
X207018255Y-83841501D01*
X206885101Y-83930471D01*
X206737142Y-83991758D01*
X206580075Y-84023000D01*
X206419925Y-84023000D01*
X206262858Y-83991758D01*
X206114899Y-83930471D01*
X205981745Y-83841501D01*
X205868499Y-83728255D01*
X205779529Y-83595101D01*
X205718242Y-83447142D01*
X205687000Y-83290075D01*
X205687000Y-83129925D01*
X205718242Y-82972858D01*
X205779529Y-82824899D01*
X205868499Y-82691745D01*
X205981745Y-82578499D01*
X206114899Y-82489529D01*
X206262858Y-82428242D01*
X206419925Y-82397000D01*
X206580075Y-82397000D01*
X206737142Y-82428242D01*
X206737142Y-82428242D01*
G37*
G36*
X204197142Y-82428242D02*
G01*
X204345101Y-82489529D01*
X204478255Y-82578499D01*
X204591501Y-82691745D01*
X204680471Y-82824899D01*
X204741758Y-82972858D01*
X204773000Y-83129925D01*
X204773000Y-83290075D01*
X204741758Y-83447142D01*
X204680471Y-83595101D01*
X204591501Y-83728255D01*
X204478255Y-83841501D01*
X204345101Y-83930471D01*
X204197142Y-83991758D01*
X204040075Y-84023000D01*
X203879925Y-84023000D01*
X203722858Y-83991758D01*
X203574899Y-83930471D01*
X203441745Y-83841501D01*
X203328499Y-83728255D01*
X203239529Y-83595101D01*
X203178242Y-83447142D01*
X203147000Y-83290075D01*
X203147000Y-83129925D01*
X203178242Y-82972858D01*
X203239529Y-82824899D01*
X203328499Y-82691745D01*
X203441745Y-82578499D01*
X203574899Y-82489529D01*
X203722858Y-82428242D01*
X203879925Y-82397000D01*
X204040075Y-82397000D01*
X204197142Y-82428242D01*
X204197142Y-82428242D01*
G37*
G36*
X205117142Y-71678242D02*
G01*
X205265101Y-71739529D01*
X205398255Y-71828499D01*
X205511501Y-71941745D01*
X205600471Y-72074899D01*
X205661758Y-72222858D01*
X205693000Y-72379925D01*
X205693000Y-72540075D01*
X205661758Y-72697142D01*
X205600471Y-72845101D01*
X205511501Y-72978255D01*
X205398255Y-73091501D01*
X205265101Y-73180471D01*
X205117142Y-73241758D01*
X204960075Y-73273000D01*
X204799925Y-73273000D01*
X204642858Y-73241758D01*
X204494899Y-73180471D01*
X204361745Y-73091501D01*
X204248499Y-72978255D01*
X204159529Y-72845101D01*
X204098242Y-72697142D01*
X204067000Y-72540075D01*
X204067000Y-72379925D01*
X204098242Y-72222858D01*
X204159529Y-72074899D01*
X204248499Y-71941745D01*
X204361745Y-71828499D01*
X204494899Y-71739529D01*
X204642858Y-71678242D01*
X204799925Y-71647000D01*
X204960075Y-71647000D01*
X205117142Y-71678242D01*
X205117142Y-71678242D01*
G37*
G36*
X205117142Y-69138242D02*
G01*
X205265101Y-69199529D01*
X205398255Y-69288499D01*
X205511501Y-69401745D01*
X205600471Y-69534899D01*
X205661758Y-69682858D01*
X205693000Y-69839925D01*
X205693000Y-70000075D01*
X205661758Y-70157142D01*
X205600471Y-70305101D01*
X205511501Y-70438255D01*
X205398255Y-70551501D01*
X205265101Y-70640471D01*
X205117142Y-70701758D01*
X204960075Y-70733000D01*
X204799925Y-70733000D01*
X204642858Y-70701758D01*
X204494899Y-70640471D01*
X204361745Y-70551501D01*
X204248499Y-70438255D01*
X204159529Y-70305101D01*
X204098242Y-70157142D01*
X204067000Y-70000075D01*
X204067000Y-69839925D01*
X204098242Y-69682858D01*
X204159529Y-69534899D01*
X204248499Y-69401745D01*
X204361745Y-69288499D01*
X204494899Y-69199529D01*
X204642858Y-69138242D01*
X204799925Y-69107000D01*
X204960075Y-69107000D01*
X205117142Y-69138242D01*
X205117142Y-69138242D01*
G37*
G36*
X205117142Y-66598242D02*
G01*
X205265101Y-66659529D01*
X205398255Y-66748499D01*
X205511501Y-66861745D01*
X205600471Y-66994899D01*
X205661758Y-67142858D01*
X205693000Y-67299925D01*
X205693000Y-67460075D01*
X205661758Y-67617142D01*
X205600471Y-67765101D01*
X205511501Y-67898255D01*
X205398255Y-68011501D01*
X205265101Y-68100471D01*
X205117142Y-68161758D01*
X204960075Y-68193000D01*
X204799925Y-68193000D01*
X204642858Y-68161758D01*
X204494899Y-68100471D01*
X204361745Y-68011501D01*
X204248499Y-67898255D01*
X204159529Y-67765101D01*
X204098242Y-67617142D01*
X204067000Y-67460075D01*
X204067000Y-67299925D01*
X204098242Y-67142858D01*
X204159529Y-66994899D01*
X204248499Y-66861745D01*
X204361745Y-66748499D01*
X204494899Y-66659529D01*
X204642858Y-66598242D01*
X204799925Y-66567000D01*
X204960075Y-66567000D01*
X205117142Y-66598242D01*
X205117142Y-66598242D01*
G37*
G36*
X205117142Y-64058242D02*
G01*
X205265101Y-64119529D01*
X205398255Y-64208499D01*
X205511501Y-64321745D01*
X205600471Y-64454899D01*
X205661758Y-64602858D01*
X205693000Y-64759925D01*
X205693000Y-64920075D01*
X205661758Y-65077142D01*
X205600471Y-65225101D01*
X205511501Y-65358255D01*
X205398255Y-65471501D01*
X205265101Y-65560471D01*
X205117142Y-65621758D01*
X204960075Y-65653000D01*
X204799925Y-65653000D01*
X204642858Y-65621758D01*
X204494899Y-65560471D01*
X204361745Y-65471501D01*
X204248499Y-65358255D01*
X204159529Y-65225101D01*
X204098242Y-65077142D01*
X204067000Y-64920075D01*
X204067000Y-64759925D01*
X204098242Y-64602858D01*
X204159529Y-64454899D01*
X204248499Y-64321745D01*
X204361745Y-64208499D01*
X204494899Y-64119529D01*
X204642858Y-64058242D01*
X204799925Y-64027000D01*
X204960075Y-64027000D01*
X205117142Y-64058242D01*
X205117142Y-64058242D01*
G37*
G36*
X205117142Y-61518242D02*
G01*
X205265101Y-61579529D01*
X205398255Y-61668499D01*
X205511501Y-61781745D01*
X205600471Y-61914899D01*
X205661758Y-62062858D01*
X205693000Y-62219925D01*
X205693000Y-62380075D01*
X205661758Y-62537142D01*
X205600471Y-62685101D01*
X205511501Y-62818255D01*
X205398255Y-62931501D01*
X205265101Y-63020471D01*
X205117142Y-63081758D01*
X204960075Y-63113000D01*
X204799925Y-63113000D01*
X204642858Y-63081758D01*
X204494899Y-63020471D01*
X204361745Y-62931501D01*
X204248499Y-62818255D01*
X204159529Y-62685101D01*
X204098242Y-62537142D01*
X204067000Y-62380075D01*
X204067000Y-62219925D01*
X204098242Y-62062858D01*
X204159529Y-61914899D01*
X204248499Y-61781745D01*
X204361745Y-61668499D01*
X204494899Y-61579529D01*
X204642858Y-61518242D01*
X204799925Y-61487000D01*
X204960075Y-61487000D01*
X205117142Y-61518242D01*
X205117142Y-61518242D01*
G37*
G36*
X205117142Y-58978242D02*
G01*
X205265101Y-59039529D01*
X205398255Y-59128499D01*
X205511501Y-59241745D01*
X205600471Y-59374899D01*
X205661758Y-59522858D01*
X205693000Y-59679925D01*
X205693000Y-59840075D01*
X205661758Y-59997142D01*
X205600471Y-60145101D01*
X205511501Y-60278255D01*
X205398255Y-60391501D01*
X205265101Y-60480471D01*
X205117142Y-60541758D01*
X204960075Y-60573000D01*
X204799925Y-60573000D01*
X204642858Y-60541758D01*
X204494899Y-60480471D01*
X204361745Y-60391501D01*
X204248499Y-60278255D01*
X204159529Y-60145101D01*
X204098242Y-59997142D01*
X204067000Y-59840075D01*
X204067000Y-59679925D01*
X204098242Y-59522858D01*
X204159529Y-59374899D01*
X204248499Y-59241745D01*
X204361745Y-59128499D01*
X204494899Y-59039529D01*
X204642858Y-58978242D01*
X204799925Y-58947000D01*
X204960075Y-58947000D01*
X205117142Y-58978242D01*
X205117142Y-58978242D01*
G37*
G36*
X205117142Y-56438242D02*
G01*
X205265101Y-56499529D01*
X205398255Y-56588499D01*
X205511501Y-56701745D01*
X205600471Y-56834899D01*
X205661758Y-56982858D01*
X205693000Y-57139925D01*
X205693000Y-57300075D01*
X205661758Y-57457142D01*
X205600471Y-57605101D01*
X205511501Y-57738255D01*
X205398255Y-57851501D01*
X205265101Y-57940471D01*
X205117142Y-58001758D01*
X204960075Y-58033000D01*
X204799925Y-58033000D01*
X204642858Y-58001758D01*
X204494899Y-57940471D01*
X204361745Y-57851501D01*
X204248499Y-57738255D01*
X204159529Y-57605101D01*
X204098242Y-57457142D01*
X204067000Y-57300075D01*
X204067000Y-57139925D01*
X204098242Y-56982858D01*
X204159529Y-56834899D01*
X204248499Y-56701745D01*
X204361745Y-56588499D01*
X204494899Y-56499529D01*
X204642858Y-56438242D01*
X204799925Y-56407000D01*
X204960075Y-56407000D01*
X205117142Y-56438242D01*
X205117142Y-56438242D01*
G37*
G36*
X205117142Y-53898242D02*
G01*
X205265101Y-53959529D01*
X205398255Y-54048499D01*
X205511501Y-54161745D01*
X205600471Y-54294899D01*
X205661758Y-54442858D01*
X205693000Y-54599925D01*
X205693000Y-54760075D01*
X205661758Y-54917142D01*
X205600471Y-55065101D01*
X205511501Y-55198255D01*
X205398255Y-55311501D01*
X205265101Y-55400471D01*
X205117142Y-55461758D01*
X204960075Y-55493000D01*
X204799925Y-55493000D01*
X204642858Y-55461758D01*
X204494899Y-55400471D01*
X204361745Y-55311501D01*
X204248499Y-55198255D01*
X204159529Y-55065101D01*
X204098242Y-54917142D01*
X204067000Y-54760075D01*
X204067000Y-54599925D01*
X204098242Y-54442858D01*
X204159529Y-54294899D01*
X204248499Y-54161745D01*
X204361745Y-54048499D01*
X204494899Y-53959529D01*
X204642858Y-53898242D01*
X204799925Y-53867000D01*
X204960075Y-53867000D01*
X205117142Y-53898242D01*
X205117142Y-53898242D01*
G37*
M02*
