G04 #@! TF.GenerationSoftware,KiCad,Pcbnew,(5.1.4)-1*
G04 #@! TF.CreationDate,2021-03-22T19:47:50+01:00*
G04 #@! TF.ProjectId,TFG_CANDevice,5446475f-4341-44e4-9465-766963652e6b,rev?*
G04 #@! TF.SameCoordinates,Original*
G04 #@! TF.FileFunction,Copper,L2,Bot*
G04 #@! TF.FilePolarity,Positive*
%FSLAX46Y46*%
G04 Gerber Fmt 4.6, Leading zero omitted, Abs format (unit mm)*
G04 Created by KiCad (PCBNEW (5.1.4)-1) date 2021-03-22 19:47:50*
%MOMM*%
%LPD*%
G04 APERTURE LIST*
%ADD10C,0.050000*%
%ADD11C,1.524000*%
%ADD12O,3.048000X1.850000*%
%ADD13R,1.600000X1.600000*%
%ADD14C,1.600000*%
%ADD15C,4.000000*%
%ADD16R,1.308000X1.308000*%
%ADD17C,1.308000*%
%ADD18C,2.600000*%
%ADD19C,0.800000*%
%ADD20C,0.250000*%
%ADD21C,0.200000*%
%ADD22C,0.254000*%
G04 APERTURE END LIST*
D10*
X222680000Y-42020000D02*
X222680000Y-162000000D01*
X132690000Y-42020000D02*
X222680000Y-42020000D01*
X132690000Y-162000000D02*
X132690000Y-42020000D01*
X222680000Y-162000000D02*
X132690000Y-162000000D01*
D11*
X204880000Y-54680000D03*
X204880000Y-72460000D03*
X204880000Y-57220000D03*
X204880000Y-59760000D03*
X204880000Y-62300000D03*
X204880000Y-64840000D03*
X204880000Y-67380000D03*
X204880000Y-69920000D03*
X214120000Y-83210000D03*
X211580000Y-83210000D03*
X209040000Y-83210000D03*
X206500000Y-83210000D03*
X203960000Y-83210000D03*
X201420000Y-83210000D03*
D12*
X149490000Y-121270000D03*
X149490000Y-126270000D03*
X161990000Y-121270000D03*
X161990000Y-126270000D03*
X171640000Y-139970000D03*
X171640000Y-144970000D03*
X184140000Y-139970000D03*
X184140000Y-144970000D03*
X171640000Y-121270000D03*
X171640000Y-126270000D03*
X184140000Y-121270000D03*
X184140000Y-126270000D03*
X171640000Y-102820000D03*
X171640000Y-107820000D03*
X184140000Y-102820000D03*
X184140000Y-107820000D03*
X193620000Y-121270000D03*
X193620000Y-126270000D03*
X206120000Y-121270000D03*
X206120000Y-126270000D03*
X138690000Y-147700000D03*
X138690000Y-152700000D03*
X151190000Y-147700000D03*
X151190000Y-152700000D03*
D13*
X183990000Y-154790000D03*
D14*
X181220000Y-154790000D03*
X178450000Y-154790000D03*
X175680000Y-154790000D03*
X172910000Y-154790000D03*
X182605000Y-157630000D03*
X179835000Y-157630000D03*
X177065000Y-157630000D03*
X174295000Y-157630000D03*
D15*
X190950000Y-156210000D03*
X165950000Y-156210000D03*
D16*
X191540000Y-88630000D03*
D17*
X189000000Y-88630000D03*
X186460000Y-88630000D03*
X183920000Y-88630000D03*
X181380000Y-88630000D03*
X178840000Y-88630000D03*
X176300000Y-88630000D03*
X173760000Y-88630000D03*
X171220000Y-88630000D03*
X168680000Y-88630000D03*
X168680000Y-134350000D03*
X171220000Y-134350000D03*
X173760000Y-134350000D03*
X176300000Y-134350000D03*
X178840000Y-134350000D03*
X181380000Y-134350000D03*
X183920000Y-134350000D03*
X186460000Y-134350000D03*
X189000000Y-134350000D03*
X191540000Y-134350000D03*
X191540000Y-91170000D03*
X189000000Y-91170000D03*
X186460000Y-91170000D03*
X183920000Y-91170000D03*
X181380000Y-91170000D03*
X178840000Y-91170000D03*
X176300000Y-91170000D03*
X173760000Y-91170000D03*
X171220000Y-91170000D03*
X168680000Y-91170000D03*
X168680000Y-131810000D03*
X171220000Y-131810000D03*
X173760000Y-131810000D03*
X176300000Y-131810000D03*
X178840000Y-131810000D03*
X181380000Y-131810000D03*
X183920000Y-131810000D03*
X186460000Y-131810000D03*
X189000000Y-131810000D03*
X191540000Y-131810000D03*
D18*
X134970000Y-43940000D03*
X220400000Y-44060000D03*
X134660000Y-159990000D03*
X220640000Y-159900000D03*
D19*
X180870000Y-67250000D03*
X176700000Y-57200000D03*
X171500000Y-97600000D03*
D20*
X202870000Y-69920000D02*
X204880000Y-69920000D01*
X201680000Y-68730000D02*
X202870000Y-69920000D01*
X201680000Y-56802370D02*
X201680000Y-68730000D01*
X204880000Y-54680000D02*
X203802370Y-54680000D01*
X203802370Y-54680000D02*
X201680000Y-56802370D01*
D21*
X184140000Y-120145000D02*
X190285000Y-114000000D01*
X184140000Y-121270000D02*
X184140000Y-120145000D01*
X190285000Y-114000000D02*
X192210000Y-114000000D01*
X192210000Y-114000000D02*
X195350000Y-110860000D01*
X195350000Y-110860000D02*
X195350000Y-86940000D01*
X195350000Y-86940000D02*
X194330000Y-85920000D01*
X184090000Y-85920000D02*
X181380000Y-88630000D01*
X194330000Y-85920000D02*
X184090000Y-85920000D01*
D20*
X173414000Y-121270000D02*
X184140000Y-121270000D01*
X171640000Y-121270000D02*
X173414000Y-121270000D01*
X195394000Y-121270000D02*
X206120000Y-121270000D01*
X193620000Y-121270000D02*
X195394000Y-121270000D01*
D21*
X196560000Y-84290000D02*
X196480000Y-84290000D01*
X196890000Y-84290000D02*
X196480000Y-84290000D01*
X193620000Y-121270000D02*
X193620000Y-120145000D01*
X193620000Y-120145000D02*
X197780000Y-115985000D01*
X197780000Y-115985000D02*
X197780000Y-85180000D01*
X197780000Y-85180000D02*
X196890000Y-84290000D01*
X180520000Y-84290000D02*
X181910000Y-84290000D01*
X178840000Y-85970000D02*
X180520000Y-84290000D01*
X178840000Y-88630000D02*
X178840000Y-85970000D01*
X196480000Y-84290000D02*
X181910000Y-84290000D01*
X181910000Y-84290000D02*
X181450000Y-84290000D01*
X180870000Y-67250000D02*
X147790000Y-67250000D01*
X147790000Y-67250000D02*
X144110000Y-70930000D01*
X144110000Y-70930000D02*
X144110000Y-131230000D01*
X147230000Y-134350000D02*
X168680000Y-134350000D01*
X144110000Y-131230000D02*
X147230000Y-134350000D01*
X171220000Y-136080000D02*
X171220000Y-134350000D01*
X143940000Y-57200000D02*
X140730000Y-60410000D01*
X176700000Y-57200000D02*
X143940000Y-57200000D01*
X140730000Y-60410000D02*
X140730000Y-133410000D01*
X140730000Y-133410000D02*
X144530000Y-137210000D01*
X144530000Y-137210000D02*
X170090000Y-137210000D01*
X170090000Y-137210000D02*
X171220000Y-136080000D01*
X161990000Y-121270000D02*
X161990000Y-101820000D01*
X161990000Y-101820000D02*
X167880000Y-95930000D01*
X167880000Y-95930000D02*
X174490000Y-95930000D01*
X176300000Y-94120000D02*
X176300000Y-91170000D01*
X174490000Y-95930000D02*
X176300000Y-94120000D01*
D20*
X151264000Y-121270000D02*
X161990000Y-121270000D01*
X149490000Y-121270000D02*
X151264000Y-121270000D01*
D21*
X174413999Y-90516001D02*
X173760000Y-91170000D01*
X189770000Y-133110000D02*
X189954001Y-132925999D01*
X173588078Y-133110000D02*
X189770000Y-133110000D01*
X171640000Y-135341922D02*
X172805999Y-134175923D01*
X174714001Y-90215999D02*
X174413999Y-90516001D01*
X196430000Y-86260000D02*
X195240000Y-85070000D01*
X172805999Y-133892079D02*
X173588078Y-133110000D01*
X171640000Y-139970000D02*
X171640000Y-135341922D01*
X189954001Y-132925999D02*
X189954001Y-119525999D01*
X196460000Y-113020000D02*
X196460000Y-86260000D01*
X196460000Y-86260000D02*
X196430000Y-86260000D01*
X179452003Y-90215999D02*
X174714001Y-90215999D01*
X172805999Y-134175923D02*
X172805999Y-133892079D01*
X189954001Y-119525999D02*
X196460000Y-113020000D01*
X195240000Y-85070000D02*
X182370000Y-85070000D01*
X179794001Y-89874001D02*
X179452003Y-90215999D01*
X182370000Y-85070000D02*
X179794001Y-87645999D01*
X179794001Y-87645999D02*
X179794001Y-89874001D01*
D20*
X173414000Y-139970000D02*
X184140000Y-139970000D01*
X171640000Y-139970000D02*
X173414000Y-139970000D01*
X171640000Y-102820000D02*
X171640000Y-97740000D01*
X171640000Y-97740000D02*
X171500000Y-97600000D01*
X171640000Y-102820000D02*
X184140000Y-102820000D01*
D21*
X167755105Y-91170000D02*
X168680000Y-91170000D01*
X166320000Y-91170000D02*
X167755105Y-91170000D01*
X209060000Y-79402370D02*
X207340000Y-77682370D01*
X207340000Y-77682370D02*
X167747630Y-77682370D01*
X164940000Y-80490000D02*
X164940000Y-89790000D01*
X167747630Y-77682370D02*
X164940000Y-80490000D01*
X164940000Y-89790000D02*
X166320000Y-91170000D01*
D20*
X209040000Y-80380000D02*
X209060000Y-80360000D01*
X209040000Y-83210000D02*
X209040000Y-80380000D01*
D21*
X209060000Y-80480000D02*
X209060000Y-80360000D01*
X209060000Y-80360000D02*
X209060000Y-79402370D01*
X208220000Y-131810000D02*
X191540000Y-131810000D01*
X211600000Y-128430000D02*
X208220000Y-131810000D01*
X211580000Y-128410000D02*
X211580000Y-83210000D01*
X211600000Y-128430000D02*
X211580000Y-128410000D01*
D22*
G36*
X222020001Y-161340000D02*
G01*
X133350000Y-161340000D01*
X133350000Y-155950475D01*
X163315000Y-155950475D01*
X163315000Y-156469525D01*
X163416261Y-156978601D01*
X163614893Y-157458141D01*
X163903262Y-157889715D01*
X164270285Y-158256738D01*
X164701859Y-158545107D01*
X165181399Y-158743739D01*
X165690475Y-158845000D01*
X166209525Y-158845000D01*
X166718601Y-158743739D01*
X167198141Y-158545107D01*
X167629715Y-158256738D01*
X167996738Y-157889715D01*
X168264711Y-157488665D01*
X172860000Y-157488665D01*
X172860000Y-157771335D01*
X172915147Y-158048574D01*
X173023320Y-158309727D01*
X173180363Y-158544759D01*
X173380241Y-158744637D01*
X173615273Y-158901680D01*
X173876426Y-159009853D01*
X174153665Y-159065000D01*
X174436335Y-159065000D01*
X174713574Y-159009853D01*
X174974727Y-158901680D01*
X175209759Y-158744637D01*
X175409637Y-158544759D01*
X175566680Y-158309727D01*
X175674853Y-158048574D01*
X175680000Y-158022699D01*
X175685147Y-158048574D01*
X175793320Y-158309727D01*
X175950363Y-158544759D01*
X176150241Y-158744637D01*
X176385273Y-158901680D01*
X176646426Y-159009853D01*
X176923665Y-159065000D01*
X177206335Y-159065000D01*
X177483574Y-159009853D01*
X177744727Y-158901680D01*
X177979759Y-158744637D01*
X178179637Y-158544759D01*
X178336680Y-158309727D01*
X178444853Y-158048574D01*
X178450000Y-158022699D01*
X178455147Y-158048574D01*
X178563320Y-158309727D01*
X178720363Y-158544759D01*
X178920241Y-158744637D01*
X179155273Y-158901680D01*
X179416426Y-159009853D01*
X179693665Y-159065000D01*
X179976335Y-159065000D01*
X180253574Y-159009853D01*
X180514727Y-158901680D01*
X180749759Y-158744637D01*
X180949637Y-158544759D01*
X181106680Y-158309727D01*
X181214853Y-158048574D01*
X181220000Y-158022699D01*
X181225147Y-158048574D01*
X181333320Y-158309727D01*
X181490363Y-158544759D01*
X181690241Y-158744637D01*
X181925273Y-158901680D01*
X182186426Y-159009853D01*
X182463665Y-159065000D01*
X182746335Y-159065000D01*
X183023574Y-159009853D01*
X183284727Y-158901680D01*
X183519759Y-158744637D01*
X183719637Y-158544759D01*
X183876680Y-158309727D01*
X183984853Y-158048574D01*
X184040000Y-157771335D01*
X184040000Y-157488665D01*
X183984853Y-157211426D01*
X183876680Y-156950273D01*
X183719637Y-156715241D01*
X183519759Y-156515363D01*
X183284727Y-156358320D01*
X183023574Y-156250147D01*
X182746335Y-156195000D01*
X182463665Y-156195000D01*
X182186426Y-156250147D01*
X181925273Y-156358320D01*
X181690241Y-156515363D01*
X181490363Y-156715241D01*
X181333320Y-156950273D01*
X181225147Y-157211426D01*
X181220000Y-157237301D01*
X181214853Y-157211426D01*
X181106680Y-156950273D01*
X180949637Y-156715241D01*
X180749759Y-156515363D01*
X180514727Y-156358320D01*
X180253574Y-156250147D01*
X179976335Y-156195000D01*
X179693665Y-156195000D01*
X179416426Y-156250147D01*
X179155273Y-156358320D01*
X178920241Y-156515363D01*
X178720363Y-156715241D01*
X178563320Y-156950273D01*
X178455147Y-157211426D01*
X178450000Y-157237301D01*
X178444853Y-157211426D01*
X178336680Y-156950273D01*
X178179637Y-156715241D01*
X177979759Y-156515363D01*
X177744727Y-156358320D01*
X177483574Y-156250147D01*
X177206335Y-156195000D01*
X176923665Y-156195000D01*
X176646426Y-156250147D01*
X176385273Y-156358320D01*
X176150241Y-156515363D01*
X175950363Y-156715241D01*
X175793320Y-156950273D01*
X175685147Y-157211426D01*
X175680000Y-157237301D01*
X175674853Y-157211426D01*
X175566680Y-156950273D01*
X175409637Y-156715241D01*
X175209759Y-156515363D01*
X174974727Y-156358320D01*
X174713574Y-156250147D01*
X174436335Y-156195000D01*
X174153665Y-156195000D01*
X173876426Y-156250147D01*
X173615273Y-156358320D01*
X173380241Y-156515363D01*
X173180363Y-156715241D01*
X173023320Y-156950273D01*
X172915147Y-157211426D01*
X172860000Y-157488665D01*
X168264711Y-157488665D01*
X168285107Y-157458141D01*
X168483739Y-156978601D01*
X168585000Y-156469525D01*
X168585000Y-155950475D01*
X168483739Y-155441399D01*
X168285107Y-154961859D01*
X168075838Y-154648665D01*
X171475000Y-154648665D01*
X171475000Y-154931335D01*
X171530147Y-155208574D01*
X171638320Y-155469727D01*
X171795363Y-155704759D01*
X171995241Y-155904637D01*
X172230273Y-156061680D01*
X172491426Y-156169853D01*
X172768665Y-156225000D01*
X173051335Y-156225000D01*
X173328574Y-156169853D01*
X173589727Y-156061680D01*
X173824759Y-155904637D01*
X174024637Y-155704759D01*
X174181680Y-155469727D01*
X174289853Y-155208574D01*
X174295000Y-155182699D01*
X174300147Y-155208574D01*
X174408320Y-155469727D01*
X174565363Y-155704759D01*
X174765241Y-155904637D01*
X175000273Y-156061680D01*
X175261426Y-156169853D01*
X175538665Y-156225000D01*
X175821335Y-156225000D01*
X176098574Y-156169853D01*
X176359727Y-156061680D01*
X176594759Y-155904637D01*
X176794637Y-155704759D01*
X176951680Y-155469727D01*
X177059853Y-155208574D01*
X177065000Y-155182699D01*
X177070147Y-155208574D01*
X177178320Y-155469727D01*
X177335363Y-155704759D01*
X177535241Y-155904637D01*
X177770273Y-156061680D01*
X178031426Y-156169853D01*
X178308665Y-156225000D01*
X178591335Y-156225000D01*
X178868574Y-156169853D01*
X179129727Y-156061680D01*
X179364759Y-155904637D01*
X179564637Y-155704759D01*
X179721680Y-155469727D01*
X179829853Y-155208574D01*
X179835000Y-155182699D01*
X179840147Y-155208574D01*
X179948320Y-155469727D01*
X180105363Y-155704759D01*
X180305241Y-155904637D01*
X180540273Y-156061680D01*
X180801426Y-156169853D01*
X181078665Y-156225000D01*
X181361335Y-156225000D01*
X181638574Y-156169853D01*
X181899727Y-156061680D01*
X182134759Y-155904637D01*
X182334637Y-155704759D01*
X182491680Y-155469727D01*
X182553539Y-155320387D01*
X182551928Y-155590000D01*
X182564188Y-155714482D01*
X182600498Y-155834180D01*
X182659463Y-155944494D01*
X182738815Y-156041185D01*
X182835506Y-156120537D01*
X182945820Y-156179502D01*
X183065518Y-156215812D01*
X183190000Y-156228072D01*
X183704250Y-156225000D01*
X183863000Y-156066250D01*
X183863000Y-154917000D01*
X184117000Y-154917000D01*
X184117000Y-156066250D01*
X184275750Y-156225000D01*
X184790000Y-156228072D01*
X184914482Y-156215812D01*
X185034180Y-156179502D01*
X185144494Y-156120537D01*
X185241185Y-156041185D01*
X185315628Y-155950475D01*
X188315000Y-155950475D01*
X188315000Y-156469525D01*
X188416261Y-156978601D01*
X188614893Y-157458141D01*
X188903262Y-157889715D01*
X189270285Y-158256738D01*
X189701859Y-158545107D01*
X190181399Y-158743739D01*
X190690475Y-158845000D01*
X191209525Y-158845000D01*
X191718601Y-158743739D01*
X192198141Y-158545107D01*
X192629715Y-158256738D01*
X192996738Y-157889715D01*
X193285107Y-157458141D01*
X193483739Y-156978601D01*
X193585000Y-156469525D01*
X193585000Y-155950475D01*
X193483739Y-155441399D01*
X193285107Y-154961859D01*
X192996738Y-154530285D01*
X192629715Y-154163262D01*
X192198141Y-153874893D01*
X191718601Y-153676261D01*
X191209525Y-153575000D01*
X190690475Y-153575000D01*
X190181399Y-153676261D01*
X189701859Y-153874893D01*
X189270285Y-154163262D01*
X188903262Y-154530285D01*
X188614893Y-154961859D01*
X188416261Y-155441399D01*
X188315000Y-155950475D01*
X185315628Y-155950475D01*
X185320537Y-155944494D01*
X185379502Y-155834180D01*
X185415812Y-155714482D01*
X185428072Y-155590000D01*
X185425000Y-155075750D01*
X185266250Y-154917000D01*
X184117000Y-154917000D01*
X183863000Y-154917000D01*
X183843000Y-154917000D01*
X183843000Y-154663000D01*
X183863000Y-154663000D01*
X183863000Y-153513750D01*
X184117000Y-153513750D01*
X184117000Y-154663000D01*
X185266250Y-154663000D01*
X185425000Y-154504250D01*
X185428072Y-153990000D01*
X185415812Y-153865518D01*
X185379502Y-153745820D01*
X185320537Y-153635506D01*
X185241185Y-153538815D01*
X185144494Y-153459463D01*
X185034180Y-153400498D01*
X184914482Y-153364188D01*
X184790000Y-153351928D01*
X184275750Y-153355000D01*
X184117000Y-153513750D01*
X183863000Y-153513750D01*
X183704250Y-153355000D01*
X183190000Y-153351928D01*
X183065518Y-153364188D01*
X182945820Y-153400498D01*
X182835506Y-153459463D01*
X182738815Y-153538815D01*
X182659463Y-153635506D01*
X182600498Y-153745820D01*
X182564188Y-153865518D01*
X182551928Y-153990000D01*
X182553539Y-154259613D01*
X182491680Y-154110273D01*
X182334637Y-153875241D01*
X182134759Y-153675363D01*
X181899727Y-153518320D01*
X181638574Y-153410147D01*
X181361335Y-153355000D01*
X181078665Y-153355000D01*
X180801426Y-153410147D01*
X180540273Y-153518320D01*
X180305241Y-153675363D01*
X180105363Y-153875241D01*
X179948320Y-154110273D01*
X179840147Y-154371426D01*
X179835000Y-154397301D01*
X179829853Y-154371426D01*
X179721680Y-154110273D01*
X179564637Y-153875241D01*
X179364759Y-153675363D01*
X179129727Y-153518320D01*
X178868574Y-153410147D01*
X178591335Y-153355000D01*
X178308665Y-153355000D01*
X178031426Y-153410147D01*
X177770273Y-153518320D01*
X177535241Y-153675363D01*
X177335363Y-153875241D01*
X177178320Y-154110273D01*
X177070147Y-154371426D01*
X177065000Y-154397301D01*
X177059853Y-154371426D01*
X176951680Y-154110273D01*
X176794637Y-153875241D01*
X176594759Y-153675363D01*
X176359727Y-153518320D01*
X176098574Y-153410147D01*
X175821335Y-153355000D01*
X175538665Y-153355000D01*
X175261426Y-153410147D01*
X175000273Y-153518320D01*
X174765241Y-153675363D01*
X174565363Y-153875241D01*
X174408320Y-154110273D01*
X174300147Y-154371426D01*
X174295000Y-154397301D01*
X174289853Y-154371426D01*
X174181680Y-154110273D01*
X174024637Y-153875241D01*
X173824759Y-153675363D01*
X173589727Y-153518320D01*
X173328574Y-153410147D01*
X173051335Y-153355000D01*
X172768665Y-153355000D01*
X172491426Y-153410147D01*
X172230273Y-153518320D01*
X171995241Y-153675363D01*
X171795363Y-153875241D01*
X171638320Y-154110273D01*
X171530147Y-154371426D01*
X171475000Y-154648665D01*
X168075838Y-154648665D01*
X167996738Y-154530285D01*
X167629715Y-154163262D01*
X167198141Y-153874893D01*
X166718601Y-153676261D01*
X166209525Y-153575000D01*
X165690475Y-153575000D01*
X165181399Y-153676261D01*
X164701859Y-153874893D01*
X164270285Y-154163262D01*
X163903262Y-154530285D01*
X163614893Y-154961859D01*
X163416261Y-155441399D01*
X163315000Y-155950475D01*
X133350000Y-155950475D01*
X133350000Y-153068664D01*
X136575188Y-153068664D01*
X136601147Y-153179655D01*
X136723350Y-153461094D01*
X136898111Y-153713285D01*
X137118714Y-153926536D01*
X137376681Y-154092652D01*
X137662099Y-154205249D01*
X137964000Y-154260000D01*
X138563000Y-154260000D01*
X138563000Y-152827000D01*
X138817000Y-152827000D01*
X138817000Y-154260000D01*
X139416000Y-154260000D01*
X139717901Y-154205249D01*
X140003319Y-154092652D01*
X140261286Y-153926536D01*
X140481889Y-153713285D01*
X140656650Y-153461094D01*
X140778853Y-153179655D01*
X140804812Y-153068664D01*
X149075188Y-153068664D01*
X149101147Y-153179655D01*
X149223350Y-153461094D01*
X149398111Y-153713285D01*
X149618714Y-153926536D01*
X149876681Y-154092652D01*
X150162099Y-154205249D01*
X150464000Y-154260000D01*
X151063000Y-154260000D01*
X151063000Y-152827000D01*
X151317000Y-152827000D01*
X151317000Y-154260000D01*
X151916000Y-154260000D01*
X152217901Y-154205249D01*
X152503319Y-154092652D01*
X152761286Y-153926536D01*
X152981889Y-153713285D01*
X153156650Y-153461094D01*
X153278853Y-153179655D01*
X153304812Y-153068664D01*
X153184483Y-152827000D01*
X151317000Y-152827000D01*
X151063000Y-152827000D01*
X149195517Y-152827000D01*
X149075188Y-153068664D01*
X140804812Y-153068664D01*
X140684483Y-152827000D01*
X138817000Y-152827000D01*
X138563000Y-152827000D01*
X136695517Y-152827000D01*
X136575188Y-153068664D01*
X133350000Y-153068664D01*
X133350000Y-152331336D01*
X136575188Y-152331336D01*
X136695517Y-152573000D01*
X138563000Y-152573000D01*
X138563000Y-151140000D01*
X138817000Y-151140000D01*
X138817000Y-152573000D01*
X140684483Y-152573000D01*
X140804812Y-152331336D01*
X149075188Y-152331336D01*
X149195517Y-152573000D01*
X151063000Y-152573000D01*
X151063000Y-151140000D01*
X151317000Y-151140000D01*
X151317000Y-152573000D01*
X153184483Y-152573000D01*
X153304812Y-152331336D01*
X153278853Y-152220345D01*
X153156650Y-151938906D01*
X152981889Y-151686715D01*
X152761286Y-151473464D01*
X152503319Y-151307348D01*
X152217901Y-151194751D01*
X151916000Y-151140000D01*
X151317000Y-151140000D01*
X151063000Y-151140000D01*
X150464000Y-151140000D01*
X150162099Y-151194751D01*
X149876681Y-151307348D01*
X149618714Y-151473464D01*
X149398111Y-151686715D01*
X149223350Y-151938906D01*
X149101147Y-152220345D01*
X149075188Y-152331336D01*
X140804812Y-152331336D01*
X140778853Y-152220345D01*
X140656650Y-151938906D01*
X140481889Y-151686715D01*
X140261286Y-151473464D01*
X140003319Y-151307348D01*
X139717901Y-151194751D01*
X139416000Y-151140000D01*
X138817000Y-151140000D01*
X138563000Y-151140000D01*
X137964000Y-151140000D01*
X137662099Y-151194751D01*
X137376681Y-151307348D01*
X137118714Y-151473464D01*
X136898111Y-151686715D01*
X136723350Y-151938906D01*
X136601147Y-152220345D01*
X136575188Y-152331336D01*
X133350000Y-152331336D01*
X133350000Y-147700000D01*
X136523452Y-147700000D01*
X136553572Y-148005813D01*
X136642774Y-148299875D01*
X136787631Y-148570883D01*
X136982576Y-148808424D01*
X137220117Y-149003369D01*
X137491125Y-149148226D01*
X137785187Y-149237428D01*
X138014364Y-149260000D01*
X139365636Y-149260000D01*
X139594813Y-149237428D01*
X139888875Y-149148226D01*
X140159883Y-149003369D01*
X140397424Y-148808424D01*
X140592369Y-148570883D01*
X140737226Y-148299875D01*
X140826428Y-148005813D01*
X140856548Y-147700000D01*
X149023452Y-147700000D01*
X149053572Y-148005813D01*
X149142774Y-148299875D01*
X149287631Y-148570883D01*
X149482576Y-148808424D01*
X149720117Y-149003369D01*
X149991125Y-149148226D01*
X150285187Y-149237428D01*
X150514364Y-149260000D01*
X151865636Y-149260000D01*
X152094813Y-149237428D01*
X152388875Y-149148226D01*
X152659883Y-149003369D01*
X152897424Y-148808424D01*
X153092369Y-148570883D01*
X153237226Y-148299875D01*
X153326428Y-148005813D01*
X153356548Y-147700000D01*
X153326428Y-147394187D01*
X153237226Y-147100125D01*
X153092369Y-146829117D01*
X152897424Y-146591576D01*
X152659883Y-146396631D01*
X152388875Y-146251774D01*
X152094813Y-146162572D01*
X151865636Y-146140000D01*
X150514364Y-146140000D01*
X150285187Y-146162572D01*
X149991125Y-146251774D01*
X149720117Y-146396631D01*
X149482576Y-146591576D01*
X149287631Y-146829117D01*
X149142774Y-147100125D01*
X149053572Y-147394187D01*
X149023452Y-147700000D01*
X140856548Y-147700000D01*
X140826428Y-147394187D01*
X140737226Y-147100125D01*
X140592369Y-146829117D01*
X140397424Y-146591576D01*
X140159883Y-146396631D01*
X139888875Y-146251774D01*
X139594813Y-146162572D01*
X139365636Y-146140000D01*
X138014364Y-146140000D01*
X137785187Y-146162572D01*
X137491125Y-146251774D01*
X137220117Y-146396631D01*
X136982576Y-146591576D01*
X136787631Y-146829117D01*
X136642774Y-147100125D01*
X136553572Y-147394187D01*
X136523452Y-147700000D01*
X133350000Y-147700000D01*
X133350000Y-145338664D01*
X169525188Y-145338664D01*
X169551147Y-145449655D01*
X169673350Y-145731094D01*
X169848111Y-145983285D01*
X170068714Y-146196536D01*
X170326681Y-146362652D01*
X170612099Y-146475249D01*
X170914000Y-146530000D01*
X171513000Y-146530000D01*
X171513000Y-145097000D01*
X171767000Y-145097000D01*
X171767000Y-146530000D01*
X172366000Y-146530000D01*
X172667901Y-146475249D01*
X172953319Y-146362652D01*
X173211286Y-146196536D01*
X173431889Y-145983285D01*
X173606650Y-145731094D01*
X173728853Y-145449655D01*
X173754812Y-145338664D01*
X182025188Y-145338664D01*
X182051147Y-145449655D01*
X182173350Y-145731094D01*
X182348111Y-145983285D01*
X182568714Y-146196536D01*
X182826681Y-146362652D01*
X183112099Y-146475249D01*
X183414000Y-146530000D01*
X184013000Y-146530000D01*
X184013000Y-145097000D01*
X184267000Y-145097000D01*
X184267000Y-146530000D01*
X184866000Y-146530000D01*
X185167901Y-146475249D01*
X185453319Y-146362652D01*
X185711286Y-146196536D01*
X185931889Y-145983285D01*
X186106650Y-145731094D01*
X186228853Y-145449655D01*
X186254812Y-145338664D01*
X186134483Y-145097000D01*
X184267000Y-145097000D01*
X184013000Y-145097000D01*
X182145517Y-145097000D01*
X182025188Y-145338664D01*
X173754812Y-145338664D01*
X173634483Y-145097000D01*
X171767000Y-145097000D01*
X171513000Y-145097000D01*
X169645517Y-145097000D01*
X169525188Y-145338664D01*
X133350000Y-145338664D01*
X133350000Y-144601336D01*
X169525188Y-144601336D01*
X169645517Y-144843000D01*
X171513000Y-144843000D01*
X171513000Y-143410000D01*
X171767000Y-143410000D01*
X171767000Y-144843000D01*
X173634483Y-144843000D01*
X173754812Y-144601336D01*
X182025188Y-144601336D01*
X182145517Y-144843000D01*
X184013000Y-144843000D01*
X184013000Y-143410000D01*
X184267000Y-143410000D01*
X184267000Y-144843000D01*
X186134483Y-144843000D01*
X186254812Y-144601336D01*
X186228853Y-144490345D01*
X186106650Y-144208906D01*
X185931889Y-143956715D01*
X185711286Y-143743464D01*
X185453319Y-143577348D01*
X185167901Y-143464751D01*
X184866000Y-143410000D01*
X184267000Y-143410000D01*
X184013000Y-143410000D01*
X183414000Y-143410000D01*
X183112099Y-143464751D01*
X182826681Y-143577348D01*
X182568714Y-143743464D01*
X182348111Y-143956715D01*
X182173350Y-144208906D01*
X182051147Y-144490345D01*
X182025188Y-144601336D01*
X173754812Y-144601336D01*
X173728853Y-144490345D01*
X173606650Y-144208906D01*
X173431889Y-143956715D01*
X173211286Y-143743464D01*
X172953319Y-143577348D01*
X172667901Y-143464751D01*
X172366000Y-143410000D01*
X171767000Y-143410000D01*
X171513000Y-143410000D01*
X170914000Y-143410000D01*
X170612099Y-143464751D01*
X170326681Y-143577348D01*
X170068714Y-143743464D01*
X169848111Y-143956715D01*
X169673350Y-144208906D01*
X169551147Y-144490345D01*
X169525188Y-144601336D01*
X133350000Y-144601336D01*
X133350000Y-60410000D01*
X139991444Y-60410000D01*
X139995000Y-60446105D01*
X139995001Y-133373885D01*
X139991444Y-133410000D01*
X140005635Y-133554085D01*
X140040089Y-133667663D01*
X140047664Y-133692633D01*
X140115914Y-133820320D01*
X140207763Y-133932238D01*
X140235808Y-133955254D01*
X143984746Y-137704193D01*
X144007762Y-137732238D01*
X144035806Y-137755253D01*
X144119680Y-137824087D01*
X144247366Y-137892337D01*
X144385915Y-137934365D01*
X144530000Y-137948556D01*
X144566105Y-137945000D01*
X170053895Y-137945000D01*
X170090000Y-137948556D01*
X170126105Y-137945000D01*
X170234085Y-137934365D01*
X170372633Y-137892337D01*
X170500320Y-137824087D01*
X170612238Y-137732238D01*
X170635258Y-137704188D01*
X170905001Y-137434446D01*
X170905000Y-138415847D01*
X170735187Y-138432572D01*
X170441125Y-138521774D01*
X170170117Y-138666631D01*
X169932576Y-138861576D01*
X169737631Y-139099117D01*
X169592774Y-139370125D01*
X169503572Y-139664187D01*
X169473452Y-139970000D01*
X169503572Y-140275813D01*
X169592774Y-140569875D01*
X169737631Y-140840883D01*
X169932576Y-141078424D01*
X170170117Y-141273369D01*
X170441125Y-141418226D01*
X170735187Y-141507428D01*
X170964364Y-141530000D01*
X172315636Y-141530000D01*
X172544813Y-141507428D01*
X172838875Y-141418226D01*
X173109883Y-141273369D01*
X173347424Y-141078424D01*
X173542369Y-140840883D01*
X173601637Y-140730000D01*
X182178363Y-140730000D01*
X182237631Y-140840883D01*
X182432576Y-141078424D01*
X182670117Y-141273369D01*
X182941125Y-141418226D01*
X183235187Y-141507428D01*
X183464364Y-141530000D01*
X184815636Y-141530000D01*
X185044813Y-141507428D01*
X185338875Y-141418226D01*
X185609883Y-141273369D01*
X185847424Y-141078424D01*
X186042369Y-140840883D01*
X186187226Y-140569875D01*
X186276428Y-140275813D01*
X186306548Y-139970000D01*
X186276428Y-139664187D01*
X186187226Y-139370125D01*
X186042369Y-139099117D01*
X185847424Y-138861576D01*
X185609883Y-138666631D01*
X185338875Y-138521774D01*
X185044813Y-138432572D01*
X184815636Y-138410000D01*
X183464364Y-138410000D01*
X183235187Y-138432572D01*
X182941125Y-138521774D01*
X182670117Y-138666631D01*
X182432576Y-138861576D01*
X182237631Y-139099117D01*
X182178363Y-139210000D01*
X173601637Y-139210000D01*
X173542369Y-139099117D01*
X173347424Y-138861576D01*
X173109883Y-138666631D01*
X172838875Y-138521774D01*
X172544813Y-138432572D01*
X172375000Y-138415847D01*
X172375000Y-135646368D01*
X172804223Y-135217145D01*
X172938310Y-135351232D01*
X173149430Y-135492297D01*
X173384013Y-135589465D01*
X173633045Y-135639000D01*
X173886955Y-135639000D01*
X174135987Y-135589465D01*
X174370570Y-135492297D01*
X174581690Y-135351232D01*
X174761232Y-135171690D01*
X174902297Y-134960570D01*
X174999465Y-134725987D01*
X175030000Y-134572476D01*
X175060535Y-134725987D01*
X175157703Y-134960570D01*
X175298768Y-135171690D01*
X175478310Y-135351232D01*
X175689430Y-135492297D01*
X175924013Y-135589465D01*
X176173045Y-135639000D01*
X176426955Y-135639000D01*
X176675987Y-135589465D01*
X176910570Y-135492297D01*
X177121690Y-135351232D01*
X177301232Y-135171690D01*
X177442297Y-134960570D01*
X177539465Y-134725987D01*
X177570000Y-134572476D01*
X177600535Y-134725987D01*
X177697703Y-134960570D01*
X177838768Y-135171690D01*
X178018310Y-135351232D01*
X178229430Y-135492297D01*
X178464013Y-135589465D01*
X178713045Y-135639000D01*
X178966955Y-135639000D01*
X179215987Y-135589465D01*
X179450570Y-135492297D01*
X179661690Y-135351232D01*
X179841232Y-135171690D01*
X179982297Y-134960570D01*
X180079465Y-134725987D01*
X180110000Y-134572476D01*
X180140535Y-134725987D01*
X180237703Y-134960570D01*
X180378768Y-135171690D01*
X180558310Y-135351232D01*
X180769430Y-135492297D01*
X181004013Y-135589465D01*
X181253045Y-135639000D01*
X181506955Y-135639000D01*
X181755987Y-135589465D01*
X181990570Y-135492297D01*
X182201690Y-135351232D01*
X182381232Y-135171690D01*
X182522297Y-134960570D01*
X182619465Y-134725987D01*
X182650000Y-134572476D01*
X182680535Y-134725987D01*
X182777703Y-134960570D01*
X182918768Y-135171690D01*
X183098310Y-135351232D01*
X183309430Y-135492297D01*
X183544013Y-135589465D01*
X183793045Y-135639000D01*
X184046955Y-135639000D01*
X184295987Y-135589465D01*
X184530570Y-135492297D01*
X184741690Y-135351232D01*
X184921232Y-135171690D01*
X185062297Y-134960570D01*
X185159465Y-134725987D01*
X185190000Y-134572476D01*
X185220535Y-134725987D01*
X185317703Y-134960570D01*
X185458768Y-135171690D01*
X185638310Y-135351232D01*
X185849430Y-135492297D01*
X186084013Y-135589465D01*
X186333045Y-135639000D01*
X186586955Y-135639000D01*
X186835987Y-135589465D01*
X187070570Y-135492297D01*
X187281690Y-135351232D01*
X187461232Y-135171690D01*
X187602297Y-134960570D01*
X187699465Y-134725987D01*
X187730000Y-134572476D01*
X187760535Y-134725987D01*
X187857703Y-134960570D01*
X187998768Y-135171690D01*
X188178310Y-135351232D01*
X188389430Y-135492297D01*
X188624013Y-135589465D01*
X188873045Y-135639000D01*
X189126955Y-135639000D01*
X189375987Y-135589465D01*
X189610570Y-135492297D01*
X189821690Y-135351232D01*
X189934535Y-135238387D01*
X190831218Y-135238387D01*
X190885093Y-135467468D01*
X191115684Y-135573763D01*
X191362581Y-135633028D01*
X191616296Y-135642988D01*
X191867079Y-135603259D01*
X192105293Y-135515368D01*
X192194907Y-135467468D01*
X192248782Y-135238387D01*
X191540000Y-134529605D01*
X190831218Y-135238387D01*
X189934535Y-135238387D01*
X190001232Y-135171690D01*
X190142297Y-134960570D01*
X190239465Y-134725987D01*
X190270094Y-134572001D01*
X190286741Y-134677079D01*
X190374632Y-134915293D01*
X190422532Y-135004907D01*
X190651613Y-135058782D01*
X191360395Y-134350000D01*
X191719605Y-134350000D01*
X192428387Y-135058782D01*
X192657468Y-135004907D01*
X192763763Y-134774316D01*
X192823028Y-134527419D01*
X192832988Y-134273704D01*
X192793259Y-134022921D01*
X192705368Y-133784707D01*
X192657468Y-133695093D01*
X192428387Y-133641218D01*
X191719605Y-134350000D01*
X191360395Y-134350000D01*
X190651613Y-133641218D01*
X190422532Y-133695093D01*
X190316237Y-133925684D01*
X190268997Y-134122484D01*
X190239465Y-133974013D01*
X190143986Y-133743508D01*
X190180320Y-133724087D01*
X190292238Y-133632238D01*
X190315259Y-133604187D01*
X190448193Y-133471253D01*
X190476238Y-133448237D01*
X190568088Y-133336319D01*
X190636338Y-133208632D01*
X190678366Y-133070084D01*
X190689001Y-132962104D01*
X190689001Y-132962103D01*
X190692557Y-132925999D01*
X190689001Y-132889894D01*
X190689001Y-132781923D01*
X190718310Y-132811232D01*
X190929430Y-132952297D01*
X191164013Y-133049465D01*
X191317999Y-133080094D01*
X191212921Y-133096741D01*
X190974707Y-133184632D01*
X190885093Y-133232532D01*
X190831218Y-133461613D01*
X191540000Y-134170395D01*
X192248782Y-133461613D01*
X192194907Y-133232532D01*
X191964316Y-133126237D01*
X191767516Y-133078997D01*
X191915987Y-133049465D01*
X192150570Y-132952297D01*
X192361690Y-132811232D01*
X192541232Y-132631690D01*
X192599156Y-132545000D01*
X208183895Y-132545000D01*
X208220000Y-132548556D01*
X208256105Y-132545000D01*
X208364085Y-132534365D01*
X208502633Y-132492337D01*
X208630320Y-132424087D01*
X208742238Y-132332238D01*
X208765259Y-132304187D01*
X212094203Y-128975244D01*
X212122237Y-128952237D01*
X212145244Y-128924203D01*
X212145253Y-128924194D01*
X212214086Y-128840320D01*
X212282336Y-128712634D01*
X212324365Y-128574085D01*
X212338556Y-128430000D01*
X212324365Y-128285915D01*
X212315000Y-128255043D01*
X212315000Y-84399045D01*
X212470535Y-84295120D01*
X212665120Y-84100535D01*
X212818005Y-83871727D01*
X212850000Y-83794485D01*
X212881995Y-83871727D01*
X213034880Y-84100535D01*
X213229465Y-84295120D01*
X213458273Y-84448005D01*
X213712510Y-84553314D01*
X213982408Y-84607000D01*
X214257592Y-84607000D01*
X214527490Y-84553314D01*
X214781727Y-84448005D01*
X215010535Y-84295120D01*
X215205120Y-84100535D01*
X215358005Y-83871727D01*
X215463314Y-83617490D01*
X215517000Y-83347592D01*
X215517000Y-83072408D01*
X215463314Y-82802510D01*
X215358005Y-82548273D01*
X215205120Y-82319465D01*
X215010535Y-82124880D01*
X214781727Y-81971995D01*
X214527490Y-81866686D01*
X214257592Y-81813000D01*
X213982408Y-81813000D01*
X213712510Y-81866686D01*
X213458273Y-81971995D01*
X213229465Y-82124880D01*
X213034880Y-82319465D01*
X212881995Y-82548273D01*
X212850000Y-82625515D01*
X212818005Y-82548273D01*
X212665120Y-82319465D01*
X212470535Y-82124880D01*
X212241727Y-81971995D01*
X211987490Y-81866686D01*
X211717592Y-81813000D01*
X211442408Y-81813000D01*
X211172510Y-81866686D01*
X210918273Y-81971995D01*
X210689465Y-82124880D01*
X210494880Y-82319465D01*
X210341995Y-82548273D01*
X210310000Y-82625515D01*
X210278005Y-82548273D01*
X210125120Y-82319465D01*
X209930535Y-82124880D01*
X209800000Y-82037659D01*
X209800000Y-80538663D01*
X209809002Y-80508986D01*
X209823676Y-80360001D01*
X209809002Y-80211015D01*
X209795000Y-80164855D01*
X209795000Y-79438464D01*
X209798555Y-79402369D01*
X209795000Y-79366274D01*
X209795000Y-79366265D01*
X209784365Y-79258285D01*
X209742337Y-79119737D01*
X209674087Y-78992050D01*
X209582238Y-78880132D01*
X209554193Y-78857116D01*
X207885258Y-77188182D01*
X207862238Y-77160132D01*
X207750320Y-77068283D01*
X207622633Y-77000033D01*
X207484085Y-76958005D01*
X207376105Y-76947370D01*
X207340000Y-76943814D01*
X207303895Y-76947370D01*
X167783724Y-76947370D01*
X167747629Y-76943815D01*
X167711534Y-76947370D01*
X167711525Y-76947370D01*
X167603545Y-76958005D01*
X167464997Y-77000033D01*
X167337310Y-77068283D01*
X167225392Y-77160132D01*
X167202376Y-77188177D01*
X164445808Y-79944746D01*
X164417762Y-79967763D01*
X164325913Y-80079681D01*
X164257663Y-80207368D01*
X164250490Y-80231015D01*
X164215635Y-80345915D01*
X164201444Y-80490000D01*
X164205000Y-80526105D01*
X164205001Y-89753885D01*
X164201444Y-89790000D01*
X164215635Y-89934085D01*
X164251566Y-90052532D01*
X164257664Y-90072633D01*
X164325914Y-90200320D01*
X164417763Y-90312238D01*
X164445808Y-90335254D01*
X165774746Y-91664193D01*
X165797762Y-91692238D01*
X165825806Y-91715253D01*
X165909680Y-91784087D01*
X166037366Y-91852337D01*
X166175915Y-91894365D01*
X166320000Y-91908556D01*
X166356105Y-91905000D01*
X167620844Y-91905000D01*
X167678768Y-91991690D01*
X167858310Y-92171232D01*
X168069430Y-92312297D01*
X168304013Y-92409465D01*
X168553045Y-92459000D01*
X168806955Y-92459000D01*
X169055987Y-92409465D01*
X169290570Y-92312297D01*
X169501690Y-92171232D01*
X169681232Y-91991690D01*
X169822297Y-91780570D01*
X169919465Y-91545987D01*
X169950000Y-91392476D01*
X169980535Y-91545987D01*
X170077703Y-91780570D01*
X170218768Y-91991690D01*
X170398310Y-92171232D01*
X170609430Y-92312297D01*
X170844013Y-92409465D01*
X171093045Y-92459000D01*
X171346955Y-92459000D01*
X171595987Y-92409465D01*
X171830570Y-92312297D01*
X172041690Y-92171232D01*
X172221232Y-91991690D01*
X172362297Y-91780570D01*
X172459465Y-91545987D01*
X172490000Y-91392476D01*
X172520535Y-91545987D01*
X172617703Y-91780570D01*
X172758768Y-91991690D01*
X172938310Y-92171232D01*
X173149430Y-92312297D01*
X173384013Y-92409465D01*
X173633045Y-92459000D01*
X173886955Y-92459000D01*
X174135987Y-92409465D01*
X174370570Y-92312297D01*
X174581690Y-92171232D01*
X174761232Y-91991690D01*
X174902297Y-91780570D01*
X174999465Y-91545987D01*
X175030000Y-91392476D01*
X175060535Y-91545987D01*
X175157703Y-91780570D01*
X175298768Y-91991690D01*
X175478310Y-92171232D01*
X175565001Y-92229156D01*
X175565000Y-93815553D01*
X174185554Y-95195000D01*
X167916105Y-95195000D01*
X167880000Y-95191444D01*
X167843895Y-95195000D01*
X167735915Y-95205635D01*
X167597367Y-95247663D01*
X167469680Y-95315913D01*
X167357762Y-95407762D01*
X167334746Y-95435807D01*
X161495808Y-101274746D01*
X161467763Y-101297762D01*
X161375914Y-101409680D01*
X161318748Y-101516631D01*
X161307664Y-101537367D01*
X161265635Y-101675915D01*
X161251444Y-101820000D01*
X161255001Y-101856115D01*
X161255000Y-119715847D01*
X161085187Y-119732572D01*
X160791125Y-119821774D01*
X160520117Y-119966631D01*
X160282576Y-120161576D01*
X160087631Y-120399117D01*
X160028363Y-120510000D01*
X151451637Y-120510000D01*
X151392369Y-120399117D01*
X151197424Y-120161576D01*
X150959883Y-119966631D01*
X150688875Y-119821774D01*
X150394813Y-119732572D01*
X150165636Y-119710000D01*
X148814364Y-119710000D01*
X148585187Y-119732572D01*
X148291125Y-119821774D01*
X148020117Y-119966631D01*
X147782576Y-120161576D01*
X147587631Y-120399117D01*
X147442774Y-120670125D01*
X147353572Y-120964187D01*
X147323452Y-121270000D01*
X147353572Y-121575813D01*
X147442774Y-121869875D01*
X147587631Y-122140883D01*
X147782576Y-122378424D01*
X148020117Y-122573369D01*
X148291125Y-122718226D01*
X148585187Y-122807428D01*
X148814364Y-122830000D01*
X150165636Y-122830000D01*
X150394813Y-122807428D01*
X150688875Y-122718226D01*
X150959883Y-122573369D01*
X151197424Y-122378424D01*
X151392369Y-122140883D01*
X151451637Y-122030000D01*
X160028363Y-122030000D01*
X160087631Y-122140883D01*
X160282576Y-122378424D01*
X160520117Y-122573369D01*
X160791125Y-122718226D01*
X161085187Y-122807428D01*
X161314364Y-122830000D01*
X162665636Y-122830000D01*
X162894813Y-122807428D01*
X163188875Y-122718226D01*
X163459883Y-122573369D01*
X163697424Y-122378424D01*
X163892369Y-122140883D01*
X164037226Y-121869875D01*
X164126428Y-121575813D01*
X164156548Y-121270000D01*
X164126428Y-120964187D01*
X164037226Y-120670125D01*
X163892369Y-120399117D01*
X163697424Y-120161576D01*
X163459883Y-119966631D01*
X163188875Y-119821774D01*
X162894813Y-119732572D01*
X162725000Y-119715847D01*
X162725000Y-108188664D01*
X169525188Y-108188664D01*
X169551147Y-108299655D01*
X169673350Y-108581094D01*
X169848111Y-108833285D01*
X170068714Y-109046536D01*
X170326681Y-109212652D01*
X170612099Y-109325249D01*
X170914000Y-109380000D01*
X171513000Y-109380000D01*
X171513000Y-107947000D01*
X171767000Y-107947000D01*
X171767000Y-109380000D01*
X172366000Y-109380000D01*
X172667901Y-109325249D01*
X172953319Y-109212652D01*
X173211286Y-109046536D01*
X173431889Y-108833285D01*
X173606650Y-108581094D01*
X173728853Y-108299655D01*
X173754812Y-108188664D01*
X182025188Y-108188664D01*
X182051147Y-108299655D01*
X182173350Y-108581094D01*
X182348111Y-108833285D01*
X182568714Y-109046536D01*
X182826681Y-109212652D01*
X183112099Y-109325249D01*
X183414000Y-109380000D01*
X184013000Y-109380000D01*
X184013000Y-107947000D01*
X184267000Y-107947000D01*
X184267000Y-109380000D01*
X184866000Y-109380000D01*
X185167901Y-109325249D01*
X185453319Y-109212652D01*
X185711286Y-109046536D01*
X185931889Y-108833285D01*
X186106650Y-108581094D01*
X186228853Y-108299655D01*
X186254812Y-108188664D01*
X186134483Y-107947000D01*
X184267000Y-107947000D01*
X184013000Y-107947000D01*
X182145517Y-107947000D01*
X182025188Y-108188664D01*
X173754812Y-108188664D01*
X173634483Y-107947000D01*
X171767000Y-107947000D01*
X171513000Y-107947000D01*
X169645517Y-107947000D01*
X169525188Y-108188664D01*
X162725000Y-108188664D01*
X162725000Y-107451336D01*
X169525188Y-107451336D01*
X169645517Y-107693000D01*
X171513000Y-107693000D01*
X171513000Y-106260000D01*
X171767000Y-106260000D01*
X171767000Y-107693000D01*
X173634483Y-107693000D01*
X173754812Y-107451336D01*
X182025188Y-107451336D01*
X182145517Y-107693000D01*
X184013000Y-107693000D01*
X184013000Y-106260000D01*
X184267000Y-106260000D01*
X184267000Y-107693000D01*
X186134483Y-107693000D01*
X186254812Y-107451336D01*
X186228853Y-107340345D01*
X186106650Y-107058906D01*
X185931889Y-106806715D01*
X185711286Y-106593464D01*
X185453319Y-106427348D01*
X185167901Y-106314751D01*
X184866000Y-106260000D01*
X184267000Y-106260000D01*
X184013000Y-106260000D01*
X183414000Y-106260000D01*
X183112099Y-106314751D01*
X182826681Y-106427348D01*
X182568714Y-106593464D01*
X182348111Y-106806715D01*
X182173350Y-107058906D01*
X182051147Y-107340345D01*
X182025188Y-107451336D01*
X173754812Y-107451336D01*
X173728853Y-107340345D01*
X173606650Y-107058906D01*
X173431889Y-106806715D01*
X173211286Y-106593464D01*
X172953319Y-106427348D01*
X172667901Y-106314751D01*
X172366000Y-106260000D01*
X171767000Y-106260000D01*
X171513000Y-106260000D01*
X170914000Y-106260000D01*
X170612099Y-106314751D01*
X170326681Y-106427348D01*
X170068714Y-106593464D01*
X169848111Y-106806715D01*
X169673350Y-107058906D01*
X169551147Y-107340345D01*
X169525188Y-107451336D01*
X162725000Y-107451336D01*
X162725000Y-102124446D01*
X168184447Y-96665000D01*
X171052705Y-96665000D01*
X171009744Y-96682795D01*
X170840226Y-96796063D01*
X170696063Y-96940226D01*
X170582795Y-97109744D01*
X170504774Y-97298102D01*
X170465000Y-97498061D01*
X170465000Y-97701939D01*
X170504774Y-97901898D01*
X170582795Y-98090256D01*
X170696063Y-98259774D01*
X170840226Y-98403937D01*
X170880001Y-98430514D01*
X170880000Y-101268309D01*
X170735187Y-101282572D01*
X170441125Y-101371774D01*
X170170117Y-101516631D01*
X169932576Y-101711576D01*
X169737631Y-101949117D01*
X169592774Y-102220125D01*
X169503572Y-102514187D01*
X169473452Y-102820000D01*
X169503572Y-103125813D01*
X169592774Y-103419875D01*
X169737631Y-103690883D01*
X169932576Y-103928424D01*
X170170117Y-104123369D01*
X170441125Y-104268226D01*
X170735187Y-104357428D01*
X170964364Y-104380000D01*
X172315636Y-104380000D01*
X172544813Y-104357428D01*
X172838875Y-104268226D01*
X173109883Y-104123369D01*
X173347424Y-103928424D01*
X173542369Y-103690883D01*
X173601637Y-103580000D01*
X182178363Y-103580000D01*
X182237631Y-103690883D01*
X182432576Y-103928424D01*
X182670117Y-104123369D01*
X182941125Y-104268226D01*
X183235187Y-104357428D01*
X183464364Y-104380000D01*
X184815636Y-104380000D01*
X185044813Y-104357428D01*
X185338875Y-104268226D01*
X185609883Y-104123369D01*
X185847424Y-103928424D01*
X186042369Y-103690883D01*
X186187226Y-103419875D01*
X186276428Y-103125813D01*
X186306548Y-102820000D01*
X186276428Y-102514187D01*
X186187226Y-102220125D01*
X186042369Y-101949117D01*
X185847424Y-101711576D01*
X185609883Y-101516631D01*
X185338875Y-101371774D01*
X185044813Y-101282572D01*
X184815636Y-101260000D01*
X183464364Y-101260000D01*
X183235187Y-101282572D01*
X182941125Y-101371774D01*
X182670117Y-101516631D01*
X182432576Y-101711576D01*
X182237631Y-101949117D01*
X182178363Y-102060000D01*
X173601637Y-102060000D01*
X173542369Y-101949117D01*
X173347424Y-101711576D01*
X173109883Y-101516631D01*
X172838875Y-101371774D01*
X172544813Y-101282572D01*
X172400000Y-101268309D01*
X172400000Y-98116005D01*
X172417205Y-98090256D01*
X172495226Y-97901898D01*
X172535000Y-97701939D01*
X172535000Y-97498061D01*
X172495226Y-97298102D01*
X172417205Y-97109744D01*
X172303937Y-96940226D01*
X172159774Y-96796063D01*
X171990256Y-96682795D01*
X171947295Y-96665000D01*
X174453895Y-96665000D01*
X174490000Y-96668556D01*
X174526105Y-96665000D01*
X174634085Y-96654365D01*
X174772633Y-96612337D01*
X174900320Y-96544087D01*
X175012238Y-96452238D01*
X175035258Y-96424188D01*
X176794197Y-94665250D01*
X176822237Y-94642238D01*
X176845250Y-94614197D01*
X176845253Y-94614194D01*
X176914087Y-94530320D01*
X176982337Y-94402634D01*
X177024365Y-94264085D01*
X177038556Y-94120000D01*
X177035000Y-94083895D01*
X177035000Y-92229156D01*
X177121690Y-92171232D01*
X177301232Y-91991690D01*
X177442297Y-91780570D01*
X177539465Y-91545987D01*
X177570000Y-91392476D01*
X177600535Y-91545987D01*
X177697703Y-91780570D01*
X177838768Y-91991690D01*
X178018310Y-92171232D01*
X178229430Y-92312297D01*
X178464013Y-92409465D01*
X178713045Y-92459000D01*
X178966955Y-92459000D01*
X179215987Y-92409465D01*
X179450570Y-92312297D01*
X179661690Y-92171232D01*
X179841232Y-91991690D01*
X179982297Y-91780570D01*
X180079465Y-91545987D01*
X180110000Y-91392476D01*
X180140535Y-91545987D01*
X180237703Y-91780570D01*
X180378768Y-91991690D01*
X180558310Y-92171232D01*
X180769430Y-92312297D01*
X181004013Y-92409465D01*
X181253045Y-92459000D01*
X181506955Y-92459000D01*
X181755987Y-92409465D01*
X181990570Y-92312297D01*
X182201690Y-92171232D01*
X182381232Y-91991690D01*
X182522297Y-91780570D01*
X182619465Y-91545987D01*
X182650000Y-91392476D01*
X182680535Y-91545987D01*
X182777703Y-91780570D01*
X182918768Y-91991690D01*
X183098310Y-92171232D01*
X183309430Y-92312297D01*
X183544013Y-92409465D01*
X183793045Y-92459000D01*
X184046955Y-92459000D01*
X184295987Y-92409465D01*
X184530570Y-92312297D01*
X184741690Y-92171232D01*
X184921232Y-91991690D01*
X185062297Y-91780570D01*
X185159465Y-91545987D01*
X185190000Y-91392476D01*
X185220535Y-91545987D01*
X185317703Y-91780570D01*
X185458768Y-91991690D01*
X185638310Y-92171232D01*
X185849430Y-92312297D01*
X186084013Y-92409465D01*
X186333045Y-92459000D01*
X186586955Y-92459000D01*
X186835987Y-92409465D01*
X187070570Y-92312297D01*
X187281690Y-92171232D01*
X187394535Y-92058387D01*
X188291218Y-92058387D01*
X188345093Y-92287468D01*
X188575684Y-92393763D01*
X188822581Y-92453028D01*
X189076296Y-92462988D01*
X189327079Y-92423259D01*
X189565293Y-92335368D01*
X189654907Y-92287468D01*
X189708782Y-92058387D01*
X189000000Y-91349605D01*
X188291218Y-92058387D01*
X187394535Y-92058387D01*
X187461232Y-91991690D01*
X187602297Y-91780570D01*
X187699465Y-91545987D01*
X187730094Y-91392001D01*
X187746741Y-91497079D01*
X187834632Y-91735293D01*
X187882532Y-91824907D01*
X188111613Y-91878782D01*
X188820395Y-91170000D01*
X188111613Y-90461218D01*
X187882532Y-90515093D01*
X187776237Y-90745684D01*
X187728997Y-90942484D01*
X187699465Y-90794013D01*
X187602297Y-90559430D01*
X187461232Y-90348310D01*
X187281690Y-90168768D01*
X187070570Y-90027703D01*
X186835987Y-89930535D01*
X186682476Y-89900000D01*
X186835987Y-89869465D01*
X187070570Y-89772297D01*
X187281690Y-89631232D01*
X187461232Y-89451690D01*
X187602297Y-89240570D01*
X187699465Y-89005987D01*
X187730000Y-88852476D01*
X187760535Y-89005987D01*
X187857703Y-89240570D01*
X187998768Y-89451690D01*
X188178310Y-89631232D01*
X188389430Y-89772297D01*
X188624013Y-89869465D01*
X188777999Y-89900094D01*
X188672921Y-89916741D01*
X188434707Y-90004632D01*
X188345093Y-90052532D01*
X188291218Y-90281613D01*
X189000000Y-90990395D01*
X189708782Y-90281613D01*
X189654907Y-90052532D01*
X189424316Y-89946237D01*
X189227516Y-89898997D01*
X189375987Y-89869465D01*
X189610570Y-89772297D01*
X189821690Y-89631232D01*
X190001232Y-89451690D01*
X190142297Y-89240570D01*
X190239465Y-89005987D01*
X190247928Y-88963440D01*
X190247928Y-89284000D01*
X190260188Y-89408482D01*
X190296498Y-89528180D01*
X190355463Y-89638494D01*
X190434815Y-89735185D01*
X190531506Y-89814537D01*
X190641820Y-89873502D01*
X190761518Y-89909812D01*
X190886000Y-89922072D01*
X191206560Y-89922072D01*
X191164013Y-89930535D01*
X190929430Y-90027703D01*
X190718310Y-90168768D01*
X190538768Y-90348310D01*
X190397703Y-90559430D01*
X190300535Y-90794013D01*
X190269906Y-90947999D01*
X190253259Y-90842921D01*
X190165368Y-90604707D01*
X190117468Y-90515093D01*
X189888387Y-90461218D01*
X189179605Y-91170000D01*
X189888387Y-91878782D01*
X190117468Y-91824907D01*
X190223763Y-91594316D01*
X190271003Y-91397516D01*
X190300535Y-91545987D01*
X190397703Y-91780570D01*
X190538768Y-91991690D01*
X190718310Y-92171232D01*
X190929430Y-92312297D01*
X191164013Y-92409465D01*
X191413045Y-92459000D01*
X191666955Y-92459000D01*
X191915987Y-92409465D01*
X192150570Y-92312297D01*
X192361690Y-92171232D01*
X192541232Y-91991690D01*
X192682297Y-91780570D01*
X192779465Y-91545987D01*
X192829000Y-91296955D01*
X192829000Y-91043045D01*
X192779465Y-90794013D01*
X192682297Y-90559430D01*
X192541232Y-90348310D01*
X192361690Y-90168768D01*
X192150570Y-90027703D01*
X191915987Y-89930535D01*
X191873440Y-89922072D01*
X192194000Y-89922072D01*
X192318482Y-89909812D01*
X192438180Y-89873502D01*
X192548494Y-89814537D01*
X192645185Y-89735185D01*
X192724537Y-89638494D01*
X192783502Y-89528180D01*
X192819812Y-89408482D01*
X192832072Y-89284000D01*
X192832072Y-87976000D01*
X192819812Y-87851518D01*
X192783502Y-87731820D01*
X192724537Y-87621506D01*
X192645185Y-87524815D01*
X192548494Y-87445463D01*
X192438180Y-87386498D01*
X192318482Y-87350188D01*
X192194000Y-87337928D01*
X190886000Y-87337928D01*
X190761518Y-87350188D01*
X190641820Y-87386498D01*
X190531506Y-87445463D01*
X190434815Y-87524815D01*
X190355463Y-87621506D01*
X190296498Y-87731820D01*
X190260188Y-87851518D01*
X190247928Y-87976000D01*
X190247928Y-88296560D01*
X190239465Y-88254013D01*
X190142297Y-88019430D01*
X190001232Y-87808310D01*
X189821690Y-87628768D01*
X189610570Y-87487703D01*
X189375987Y-87390535D01*
X189126955Y-87341000D01*
X188873045Y-87341000D01*
X188624013Y-87390535D01*
X188389430Y-87487703D01*
X188178310Y-87628768D01*
X187998768Y-87808310D01*
X187857703Y-88019430D01*
X187760535Y-88254013D01*
X187730000Y-88407524D01*
X187699465Y-88254013D01*
X187602297Y-88019430D01*
X187461232Y-87808310D01*
X187281690Y-87628768D01*
X187070570Y-87487703D01*
X186835987Y-87390535D01*
X186586955Y-87341000D01*
X186333045Y-87341000D01*
X186084013Y-87390535D01*
X185849430Y-87487703D01*
X185638310Y-87628768D01*
X185458768Y-87808310D01*
X185317703Y-88019430D01*
X185220535Y-88254013D01*
X185190000Y-88407524D01*
X185159465Y-88254013D01*
X185062297Y-88019430D01*
X184921232Y-87808310D01*
X184741690Y-87628768D01*
X184530570Y-87487703D01*
X184295987Y-87390535D01*
X184046955Y-87341000D01*
X183793045Y-87341000D01*
X183687441Y-87362006D01*
X184394447Y-86655000D01*
X194025554Y-86655000D01*
X194615001Y-87244448D01*
X194615000Y-110555553D01*
X191905554Y-113265000D01*
X190321094Y-113265000D01*
X190284999Y-113261445D01*
X190248904Y-113265000D01*
X190248895Y-113265000D01*
X190140915Y-113275635D01*
X190002367Y-113317663D01*
X189874680Y-113385913D01*
X189762762Y-113477762D01*
X189739746Y-113505807D01*
X183645808Y-119599746D01*
X183617763Y-119622762D01*
X183546168Y-119710000D01*
X183464364Y-119710000D01*
X183235187Y-119732572D01*
X182941125Y-119821774D01*
X182670117Y-119966631D01*
X182432576Y-120161576D01*
X182237631Y-120399117D01*
X182178363Y-120510000D01*
X173601637Y-120510000D01*
X173542369Y-120399117D01*
X173347424Y-120161576D01*
X173109883Y-119966631D01*
X172838875Y-119821774D01*
X172544813Y-119732572D01*
X172315636Y-119710000D01*
X170964364Y-119710000D01*
X170735187Y-119732572D01*
X170441125Y-119821774D01*
X170170117Y-119966631D01*
X169932576Y-120161576D01*
X169737631Y-120399117D01*
X169592774Y-120670125D01*
X169503572Y-120964187D01*
X169473452Y-121270000D01*
X169503572Y-121575813D01*
X169592774Y-121869875D01*
X169737631Y-122140883D01*
X169932576Y-122378424D01*
X170170117Y-122573369D01*
X170441125Y-122718226D01*
X170735187Y-122807428D01*
X170964364Y-122830000D01*
X172315636Y-122830000D01*
X172544813Y-122807428D01*
X172838875Y-122718226D01*
X173109883Y-122573369D01*
X173347424Y-122378424D01*
X173542369Y-122140883D01*
X173601637Y-122030000D01*
X182178363Y-122030000D01*
X182237631Y-122140883D01*
X182432576Y-122378424D01*
X182670117Y-122573369D01*
X182941125Y-122718226D01*
X183235187Y-122807428D01*
X183464364Y-122830000D01*
X184815636Y-122830000D01*
X185044813Y-122807428D01*
X185338875Y-122718226D01*
X185609883Y-122573369D01*
X185847424Y-122378424D01*
X186042369Y-122140883D01*
X186187226Y-121869875D01*
X186276428Y-121575813D01*
X186306548Y-121270000D01*
X186276428Y-120964187D01*
X186187226Y-120670125D01*
X186042369Y-120399117D01*
X185847424Y-120161576D01*
X185609883Y-119966631D01*
X185445617Y-119878829D01*
X190589447Y-114735000D01*
X192173895Y-114735000D01*
X192210000Y-114738556D01*
X192246105Y-114735000D01*
X192354085Y-114724365D01*
X192492633Y-114682337D01*
X192620320Y-114614087D01*
X192732238Y-114522238D01*
X192755259Y-114494187D01*
X195725000Y-111524447D01*
X195725000Y-112715553D01*
X189459809Y-118980745D01*
X189431764Y-119003761D01*
X189339915Y-119115679D01*
X189271665Y-119243366D01*
X189229636Y-119381914D01*
X189215445Y-119525999D01*
X189219002Y-119562114D01*
X189219001Y-130539309D01*
X189126955Y-130521000D01*
X188873045Y-130521000D01*
X188624013Y-130570535D01*
X188389430Y-130667703D01*
X188178310Y-130808768D01*
X187998768Y-130988310D01*
X187857703Y-131199430D01*
X187760535Y-131434013D01*
X187730000Y-131587524D01*
X187699465Y-131434013D01*
X187602297Y-131199430D01*
X187461232Y-130988310D01*
X187281690Y-130808768D01*
X187070570Y-130667703D01*
X186835987Y-130570535D01*
X186586955Y-130521000D01*
X186333045Y-130521000D01*
X186084013Y-130570535D01*
X185849430Y-130667703D01*
X185638310Y-130808768D01*
X185458768Y-130988310D01*
X185317703Y-131199430D01*
X185220535Y-131434013D01*
X185190000Y-131587524D01*
X185159465Y-131434013D01*
X185062297Y-131199430D01*
X184921232Y-130988310D01*
X184741690Y-130808768D01*
X184530570Y-130667703D01*
X184295987Y-130570535D01*
X184046955Y-130521000D01*
X183793045Y-130521000D01*
X183544013Y-130570535D01*
X183309430Y-130667703D01*
X183098310Y-130808768D01*
X182918768Y-130988310D01*
X182777703Y-131199430D01*
X182680535Y-131434013D01*
X182650000Y-131587524D01*
X182619465Y-131434013D01*
X182522297Y-131199430D01*
X182381232Y-130988310D01*
X182201690Y-130808768D01*
X181990570Y-130667703D01*
X181755987Y-130570535D01*
X181506955Y-130521000D01*
X181253045Y-130521000D01*
X181004013Y-130570535D01*
X180769430Y-130667703D01*
X180558310Y-130808768D01*
X180378768Y-130988310D01*
X180237703Y-131199430D01*
X180140535Y-131434013D01*
X180110000Y-131587524D01*
X180079465Y-131434013D01*
X179982297Y-131199430D01*
X179841232Y-130988310D01*
X179661690Y-130808768D01*
X179450570Y-130667703D01*
X179215987Y-130570535D01*
X178966955Y-130521000D01*
X178713045Y-130521000D01*
X178464013Y-130570535D01*
X178229430Y-130667703D01*
X178018310Y-130808768D01*
X177838768Y-130988310D01*
X177697703Y-131199430D01*
X177600535Y-131434013D01*
X177570000Y-131587524D01*
X177539465Y-131434013D01*
X177442297Y-131199430D01*
X177301232Y-130988310D01*
X177121690Y-130808768D01*
X176910570Y-130667703D01*
X176675987Y-130570535D01*
X176426955Y-130521000D01*
X176173045Y-130521000D01*
X175924013Y-130570535D01*
X175689430Y-130667703D01*
X175478310Y-130808768D01*
X175298768Y-130988310D01*
X175157703Y-131199430D01*
X175060535Y-131434013D01*
X175030000Y-131587524D01*
X174999465Y-131434013D01*
X174902297Y-131199430D01*
X174761232Y-130988310D01*
X174581690Y-130808768D01*
X174370570Y-130667703D01*
X174135987Y-130570535D01*
X173886955Y-130521000D01*
X173633045Y-130521000D01*
X173384013Y-130570535D01*
X173149430Y-130667703D01*
X172938310Y-130808768D01*
X172758768Y-130988310D01*
X172617703Y-131199430D01*
X172520535Y-131434013D01*
X172490000Y-131587524D01*
X172459465Y-131434013D01*
X172362297Y-131199430D01*
X172221232Y-130988310D01*
X172041690Y-130808768D01*
X171830570Y-130667703D01*
X171595987Y-130570535D01*
X171346955Y-130521000D01*
X171093045Y-130521000D01*
X170844013Y-130570535D01*
X170609430Y-130667703D01*
X170398310Y-130808768D01*
X170218768Y-130988310D01*
X170077703Y-131199430D01*
X169980535Y-131434013D01*
X169950000Y-131587524D01*
X169919465Y-131434013D01*
X169822297Y-131199430D01*
X169681232Y-130988310D01*
X169501690Y-130808768D01*
X169290570Y-130667703D01*
X169055987Y-130570535D01*
X168806955Y-130521000D01*
X168553045Y-130521000D01*
X168304013Y-130570535D01*
X168069430Y-130667703D01*
X167858310Y-130808768D01*
X167678768Y-130988310D01*
X167537703Y-131199430D01*
X167440535Y-131434013D01*
X167391000Y-131683045D01*
X167391000Y-131936955D01*
X167440535Y-132185987D01*
X167537703Y-132420570D01*
X167678768Y-132631690D01*
X167858310Y-132811232D01*
X168069430Y-132952297D01*
X168304013Y-133049465D01*
X168457524Y-133080000D01*
X168304013Y-133110535D01*
X168069430Y-133207703D01*
X167858310Y-133348768D01*
X167678768Y-133528310D01*
X167620844Y-133615000D01*
X147534447Y-133615000D01*
X144845000Y-130925554D01*
X144845000Y-126638664D01*
X147375188Y-126638664D01*
X147401147Y-126749655D01*
X147523350Y-127031094D01*
X147698111Y-127283285D01*
X147918714Y-127496536D01*
X148176681Y-127662652D01*
X148462099Y-127775249D01*
X148764000Y-127830000D01*
X149363000Y-127830000D01*
X149363000Y-126397000D01*
X149617000Y-126397000D01*
X149617000Y-127830000D01*
X150216000Y-127830000D01*
X150517901Y-127775249D01*
X150803319Y-127662652D01*
X151061286Y-127496536D01*
X151281889Y-127283285D01*
X151456650Y-127031094D01*
X151578853Y-126749655D01*
X151604812Y-126638664D01*
X159875188Y-126638664D01*
X159901147Y-126749655D01*
X160023350Y-127031094D01*
X160198111Y-127283285D01*
X160418714Y-127496536D01*
X160676681Y-127662652D01*
X160962099Y-127775249D01*
X161264000Y-127830000D01*
X161863000Y-127830000D01*
X161863000Y-126397000D01*
X162117000Y-126397000D01*
X162117000Y-127830000D01*
X162716000Y-127830000D01*
X163017901Y-127775249D01*
X163303319Y-127662652D01*
X163561286Y-127496536D01*
X163781889Y-127283285D01*
X163956650Y-127031094D01*
X164078853Y-126749655D01*
X164104812Y-126638664D01*
X169525188Y-126638664D01*
X169551147Y-126749655D01*
X169673350Y-127031094D01*
X169848111Y-127283285D01*
X170068714Y-127496536D01*
X170326681Y-127662652D01*
X170612099Y-127775249D01*
X170914000Y-127830000D01*
X171513000Y-127830000D01*
X171513000Y-126397000D01*
X171767000Y-126397000D01*
X171767000Y-127830000D01*
X172366000Y-127830000D01*
X172667901Y-127775249D01*
X172953319Y-127662652D01*
X173211286Y-127496536D01*
X173431889Y-127283285D01*
X173606650Y-127031094D01*
X173728853Y-126749655D01*
X173754812Y-126638664D01*
X182025188Y-126638664D01*
X182051147Y-126749655D01*
X182173350Y-127031094D01*
X182348111Y-127283285D01*
X182568714Y-127496536D01*
X182826681Y-127662652D01*
X183112099Y-127775249D01*
X183414000Y-127830000D01*
X184013000Y-127830000D01*
X184013000Y-126397000D01*
X184267000Y-126397000D01*
X184267000Y-127830000D01*
X184866000Y-127830000D01*
X185167901Y-127775249D01*
X185453319Y-127662652D01*
X185711286Y-127496536D01*
X185931889Y-127283285D01*
X186106650Y-127031094D01*
X186228853Y-126749655D01*
X186254812Y-126638664D01*
X186134483Y-126397000D01*
X184267000Y-126397000D01*
X184013000Y-126397000D01*
X182145517Y-126397000D01*
X182025188Y-126638664D01*
X173754812Y-126638664D01*
X173634483Y-126397000D01*
X171767000Y-126397000D01*
X171513000Y-126397000D01*
X169645517Y-126397000D01*
X169525188Y-126638664D01*
X164104812Y-126638664D01*
X163984483Y-126397000D01*
X162117000Y-126397000D01*
X161863000Y-126397000D01*
X159995517Y-126397000D01*
X159875188Y-126638664D01*
X151604812Y-126638664D01*
X151484483Y-126397000D01*
X149617000Y-126397000D01*
X149363000Y-126397000D01*
X147495517Y-126397000D01*
X147375188Y-126638664D01*
X144845000Y-126638664D01*
X144845000Y-125901336D01*
X147375188Y-125901336D01*
X147495517Y-126143000D01*
X149363000Y-126143000D01*
X149363000Y-124710000D01*
X149617000Y-124710000D01*
X149617000Y-126143000D01*
X151484483Y-126143000D01*
X151604812Y-125901336D01*
X159875188Y-125901336D01*
X159995517Y-126143000D01*
X161863000Y-126143000D01*
X161863000Y-124710000D01*
X162117000Y-124710000D01*
X162117000Y-126143000D01*
X163984483Y-126143000D01*
X164104812Y-125901336D01*
X169525188Y-125901336D01*
X169645517Y-126143000D01*
X171513000Y-126143000D01*
X171513000Y-124710000D01*
X171767000Y-124710000D01*
X171767000Y-126143000D01*
X173634483Y-126143000D01*
X173754812Y-125901336D01*
X182025188Y-125901336D01*
X182145517Y-126143000D01*
X184013000Y-126143000D01*
X184013000Y-124710000D01*
X184267000Y-124710000D01*
X184267000Y-126143000D01*
X186134483Y-126143000D01*
X186254812Y-125901336D01*
X186228853Y-125790345D01*
X186106650Y-125508906D01*
X185931889Y-125256715D01*
X185711286Y-125043464D01*
X185453319Y-124877348D01*
X185167901Y-124764751D01*
X184866000Y-124710000D01*
X184267000Y-124710000D01*
X184013000Y-124710000D01*
X183414000Y-124710000D01*
X183112099Y-124764751D01*
X182826681Y-124877348D01*
X182568714Y-125043464D01*
X182348111Y-125256715D01*
X182173350Y-125508906D01*
X182051147Y-125790345D01*
X182025188Y-125901336D01*
X173754812Y-125901336D01*
X173728853Y-125790345D01*
X173606650Y-125508906D01*
X173431889Y-125256715D01*
X173211286Y-125043464D01*
X172953319Y-124877348D01*
X172667901Y-124764751D01*
X172366000Y-124710000D01*
X171767000Y-124710000D01*
X171513000Y-124710000D01*
X170914000Y-124710000D01*
X170612099Y-124764751D01*
X170326681Y-124877348D01*
X170068714Y-125043464D01*
X169848111Y-125256715D01*
X169673350Y-125508906D01*
X169551147Y-125790345D01*
X169525188Y-125901336D01*
X164104812Y-125901336D01*
X164078853Y-125790345D01*
X163956650Y-125508906D01*
X163781889Y-125256715D01*
X163561286Y-125043464D01*
X163303319Y-124877348D01*
X163017901Y-124764751D01*
X162716000Y-124710000D01*
X162117000Y-124710000D01*
X161863000Y-124710000D01*
X161264000Y-124710000D01*
X160962099Y-124764751D01*
X160676681Y-124877348D01*
X160418714Y-125043464D01*
X160198111Y-125256715D01*
X160023350Y-125508906D01*
X159901147Y-125790345D01*
X159875188Y-125901336D01*
X151604812Y-125901336D01*
X151578853Y-125790345D01*
X151456650Y-125508906D01*
X151281889Y-125256715D01*
X151061286Y-125043464D01*
X150803319Y-124877348D01*
X150517901Y-124764751D01*
X150216000Y-124710000D01*
X149617000Y-124710000D01*
X149363000Y-124710000D01*
X148764000Y-124710000D01*
X148462099Y-124764751D01*
X148176681Y-124877348D01*
X147918714Y-125043464D01*
X147698111Y-125256715D01*
X147523350Y-125508906D01*
X147401147Y-125790345D01*
X147375188Y-125901336D01*
X144845000Y-125901336D01*
X144845000Y-73425565D01*
X204094040Y-73425565D01*
X204161020Y-73665656D01*
X204410048Y-73782756D01*
X204677135Y-73849023D01*
X204952017Y-73861910D01*
X205224133Y-73820922D01*
X205483023Y-73727636D01*
X205598980Y-73665656D01*
X205665960Y-73425565D01*
X204880000Y-72639605D01*
X204094040Y-73425565D01*
X144845000Y-73425565D01*
X144845000Y-72532017D01*
X203478090Y-72532017D01*
X203519078Y-72804133D01*
X203612364Y-73063023D01*
X203674344Y-73178980D01*
X203914435Y-73245960D01*
X204700395Y-72460000D01*
X205059605Y-72460000D01*
X205845565Y-73245960D01*
X206085656Y-73178980D01*
X206202756Y-72929952D01*
X206269023Y-72662865D01*
X206281910Y-72387983D01*
X206240922Y-72115867D01*
X206147636Y-71856977D01*
X206085656Y-71741020D01*
X205845565Y-71674040D01*
X205059605Y-72460000D01*
X204700395Y-72460000D01*
X203914435Y-71674040D01*
X203674344Y-71741020D01*
X203557244Y-71990048D01*
X203490977Y-72257135D01*
X203478090Y-72532017D01*
X144845000Y-72532017D01*
X144845000Y-71234446D01*
X148094447Y-67985000D01*
X180141289Y-67985000D01*
X180210226Y-68053937D01*
X180379744Y-68167205D01*
X180568102Y-68245226D01*
X180768061Y-68285000D01*
X180971939Y-68285000D01*
X181171898Y-68245226D01*
X181360256Y-68167205D01*
X181529774Y-68053937D01*
X181673937Y-67909774D01*
X181787205Y-67740256D01*
X181865226Y-67551898D01*
X181905000Y-67351939D01*
X181905000Y-67148061D01*
X181865226Y-66948102D01*
X181787205Y-66759744D01*
X181673937Y-66590226D01*
X181529774Y-66446063D01*
X181360256Y-66332795D01*
X181171898Y-66254774D01*
X180971939Y-66215000D01*
X180768061Y-66215000D01*
X180568102Y-66254774D01*
X180379744Y-66332795D01*
X180210226Y-66446063D01*
X180141289Y-66515000D01*
X147826105Y-66515000D01*
X147790000Y-66511444D01*
X147753895Y-66515000D01*
X147645915Y-66525635D01*
X147507367Y-66567663D01*
X147379680Y-66635913D01*
X147267762Y-66727762D01*
X147244746Y-66755807D01*
X143615808Y-70384746D01*
X143587762Y-70407763D01*
X143495913Y-70519681D01*
X143427663Y-70647368D01*
X143398384Y-70743887D01*
X143385635Y-70785915D01*
X143371444Y-70930000D01*
X143375000Y-70966105D01*
X143375001Y-131193885D01*
X143371444Y-131230000D01*
X143385635Y-131374085D01*
X143427664Y-131512633D01*
X143495914Y-131640320D01*
X143587763Y-131752238D01*
X143615808Y-131775254D01*
X146684746Y-134844193D01*
X146707762Y-134872238D01*
X146819680Y-134964087D01*
X146947367Y-135032337D01*
X147085915Y-135074365D01*
X147193895Y-135085000D01*
X147193904Y-135085000D01*
X147229999Y-135088555D01*
X147266094Y-135085000D01*
X167620844Y-135085000D01*
X167678768Y-135171690D01*
X167858310Y-135351232D01*
X168069430Y-135492297D01*
X168304013Y-135589465D01*
X168553045Y-135639000D01*
X168806955Y-135639000D01*
X169055987Y-135589465D01*
X169290570Y-135492297D01*
X169501690Y-135351232D01*
X169681232Y-135171690D01*
X169822297Y-134960570D01*
X169919465Y-134725987D01*
X169950000Y-134572476D01*
X169980535Y-134725987D01*
X170077703Y-134960570D01*
X170218768Y-135171690D01*
X170398310Y-135351232D01*
X170485000Y-135409156D01*
X170485000Y-135775553D01*
X169785554Y-136475000D01*
X144834447Y-136475000D01*
X141465000Y-133105554D01*
X141465000Y-60714446D01*
X144244447Y-57935000D01*
X175971289Y-57935000D01*
X176040226Y-58003937D01*
X176209744Y-58117205D01*
X176398102Y-58195226D01*
X176598061Y-58235000D01*
X176801939Y-58235000D01*
X177001898Y-58195226D01*
X177190256Y-58117205D01*
X177359774Y-58003937D01*
X177503937Y-57859774D01*
X177617205Y-57690256D01*
X177695226Y-57501898D01*
X177735000Y-57301939D01*
X177735000Y-57098061D01*
X177695226Y-56898102D01*
X177655573Y-56802370D01*
X200916324Y-56802370D01*
X200920000Y-56839692D01*
X200920001Y-68692668D01*
X200916324Y-68730000D01*
X200930998Y-68878985D01*
X200974454Y-69022246D01*
X201045026Y-69154276D01*
X201116201Y-69241002D01*
X201140000Y-69270001D01*
X201168998Y-69293799D01*
X202306201Y-70431003D01*
X202329999Y-70460001D01*
X202358997Y-70483799D01*
X202445723Y-70554974D01*
X202577753Y-70625546D01*
X202721014Y-70669003D01*
X202832667Y-70680000D01*
X202832676Y-70680000D01*
X202869999Y-70683676D01*
X202907322Y-70680000D01*
X203707659Y-70680000D01*
X203794880Y-70810535D01*
X203989465Y-71005120D01*
X204218273Y-71158005D01*
X204289943Y-71187692D01*
X204276977Y-71192364D01*
X204161020Y-71254344D01*
X204094040Y-71494435D01*
X204880000Y-72280395D01*
X205665960Y-71494435D01*
X205598980Y-71254344D01*
X205463240Y-71190515D01*
X205541727Y-71158005D01*
X205770535Y-71005120D01*
X205965120Y-70810535D01*
X206118005Y-70581727D01*
X206223314Y-70327490D01*
X206277000Y-70057592D01*
X206277000Y-69782408D01*
X206223314Y-69512510D01*
X206118005Y-69258273D01*
X205965120Y-69029465D01*
X205770535Y-68834880D01*
X205541727Y-68681995D01*
X205464485Y-68650000D01*
X205541727Y-68618005D01*
X205770535Y-68465120D01*
X205965120Y-68270535D01*
X206118005Y-68041727D01*
X206223314Y-67787490D01*
X206277000Y-67517592D01*
X206277000Y-67242408D01*
X206223314Y-66972510D01*
X206118005Y-66718273D01*
X205965120Y-66489465D01*
X205770535Y-66294880D01*
X205541727Y-66141995D01*
X205464485Y-66110000D01*
X205541727Y-66078005D01*
X205770535Y-65925120D01*
X205965120Y-65730535D01*
X206118005Y-65501727D01*
X206223314Y-65247490D01*
X206277000Y-64977592D01*
X206277000Y-64702408D01*
X206223314Y-64432510D01*
X206118005Y-64178273D01*
X205965120Y-63949465D01*
X205770535Y-63754880D01*
X205541727Y-63601995D01*
X205464485Y-63570000D01*
X205541727Y-63538005D01*
X205770535Y-63385120D01*
X205965120Y-63190535D01*
X206118005Y-62961727D01*
X206223314Y-62707490D01*
X206277000Y-62437592D01*
X206277000Y-62162408D01*
X206223314Y-61892510D01*
X206118005Y-61638273D01*
X205965120Y-61409465D01*
X205770535Y-61214880D01*
X205541727Y-61061995D01*
X205464485Y-61030000D01*
X205541727Y-60998005D01*
X205770535Y-60845120D01*
X205965120Y-60650535D01*
X206118005Y-60421727D01*
X206223314Y-60167490D01*
X206277000Y-59897592D01*
X206277000Y-59622408D01*
X206223314Y-59352510D01*
X206118005Y-59098273D01*
X205965120Y-58869465D01*
X205770535Y-58674880D01*
X205541727Y-58521995D01*
X205464485Y-58490000D01*
X205541727Y-58458005D01*
X205770535Y-58305120D01*
X205965120Y-58110535D01*
X206118005Y-57881727D01*
X206223314Y-57627490D01*
X206277000Y-57357592D01*
X206277000Y-57082408D01*
X206223314Y-56812510D01*
X206118005Y-56558273D01*
X205965120Y-56329465D01*
X205770535Y-56134880D01*
X205541727Y-55981995D01*
X205464485Y-55950000D01*
X205541727Y-55918005D01*
X205770535Y-55765120D01*
X205965120Y-55570535D01*
X206118005Y-55341727D01*
X206223314Y-55087490D01*
X206277000Y-54817592D01*
X206277000Y-54542408D01*
X206223314Y-54272510D01*
X206118005Y-54018273D01*
X205965120Y-53789465D01*
X205770535Y-53594880D01*
X205541727Y-53441995D01*
X205287490Y-53336686D01*
X205017592Y-53283000D01*
X204742408Y-53283000D01*
X204472510Y-53336686D01*
X204218273Y-53441995D01*
X203989465Y-53594880D01*
X203794880Y-53789465D01*
X203703617Y-53926049D01*
X203653384Y-53930997D01*
X203510123Y-53974454D01*
X203378094Y-54045026D01*
X203378092Y-54045027D01*
X203378093Y-54045027D01*
X203291366Y-54116201D01*
X203291362Y-54116205D01*
X203262369Y-54139999D01*
X203238575Y-54168992D01*
X201169002Y-56238566D01*
X201139999Y-56262369D01*
X201084935Y-56329465D01*
X201045026Y-56378094D01*
X200992889Y-56475635D01*
X200974454Y-56510124D01*
X200930997Y-56653385D01*
X200920000Y-56765038D01*
X200920000Y-56765048D01*
X200916324Y-56802370D01*
X177655573Y-56802370D01*
X177617205Y-56709744D01*
X177503937Y-56540226D01*
X177359774Y-56396063D01*
X177190256Y-56282795D01*
X177001898Y-56204774D01*
X176801939Y-56165000D01*
X176598061Y-56165000D01*
X176398102Y-56204774D01*
X176209744Y-56282795D01*
X176040226Y-56396063D01*
X175971289Y-56465000D01*
X143976105Y-56465000D01*
X143940000Y-56461444D01*
X143795915Y-56475635D01*
X143657366Y-56517663D01*
X143529680Y-56585913D01*
X143417762Y-56677762D01*
X143394746Y-56705807D01*
X140235808Y-59864746D01*
X140207762Y-59887763D01*
X140115913Y-59999681D01*
X140047663Y-60127368D01*
X140018384Y-60223887D01*
X140005635Y-60265915D01*
X139991444Y-60410000D01*
X133350000Y-60410000D01*
X133350000Y-42680000D01*
X222020000Y-42680000D01*
X222020001Y-161340000D01*
X222020001Y-161340000D01*
G37*
X222020001Y-161340000D02*
X133350000Y-161340000D01*
X133350000Y-155950475D01*
X163315000Y-155950475D01*
X163315000Y-156469525D01*
X163416261Y-156978601D01*
X163614893Y-157458141D01*
X163903262Y-157889715D01*
X164270285Y-158256738D01*
X164701859Y-158545107D01*
X165181399Y-158743739D01*
X165690475Y-158845000D01*
X166209525Y-158845000D01*
X166718601Y-158743739D01*
X167198141Y-158545107D01*
X167629715Y-158256738D01*
X167996738Y-157889715D01*
X168264711Y-157488665D01*
X172860000Y-157488665D01*
X172860000Y-157771335D01*
X172915147Y-158048574D01*
X173023320Y-158309727D01*
X173180363Y-158544759D01*
X173380241Y-158744637D01*
X173615273Y-158901680D01*
X173876426Y-159009853D01*
X174153665Y-159065000D01*
X174436335Y-159065000D01*
X174713574Y-159009853D01*
X174974727Y-158901680D01*
X175209759Y-158744637D01*
X175409637Y-158544759D01*
X175566680Y-158309727D01*
X175674853Y-158048574D01*
X175680000Y-158022699D01*
X175685147Y-158048574D01*
X175793320Y-158309727D01*
X175950363Y-158544759D01*
X176150241Y-158744637D01*
X176385273Y-158901680D01*
X176646426Y-159009853D01*
X176923665Y-159065000D01*
X177206335Y-159065000D01*
X177483574Y-159009853D01*
X177744727Y-158901680D01*
X177979759Y-158744637D01*
X178179637Y-158544759D01*
X178336680Y-158309727D01*
X178444853Y-158048574D01*
X178450000Y-158022699D01*
X178455147Y-158048574D01*
X178563320Y-158309727D01*
X178720363Y-158544759D01*
X178920241Y-158744637D01*
X179155273Y-158901680D01*
X179416426Y-159009853D01*
X179693665Y-159065000D01*
X179976335Y-159065000D01*
X180253574Y-159009853D01*
X180514727Y-158901680D01*
X180749759Y-158744637D01*
X180949637Y-158544759D01*
X181106680Y-158309727D01*
X181214853Y-158048574D01*
X181220000Y-158022699D01*
X181225147Y-158048574D01*
X181333320Y-158309727D01*
X181490363Y-158544759D01*
X181690241Y-158744637D01*
X181925273Y-158901680D01*
X182186426Y-159009853D01*
X182463665Y-159065000D01*
X182746335Y-159065000D01*
X183023574Y-159009853D01*
X183284727Y-158901680D01*
X183519759Y-158744637D01*
X183719637Y-158544759D01*
X183876680Y-158309727D01*
X183984853Y-158048574D01*
X184040000Y-157771335D01*
X184040000Y-157488665D01*
X183984853Y-157211426D01*
X183876680Y-156950273D01*
X183719637Y-156715241D01*
X183519759Y-156515363D01*
X183284727Y-156358320D01*
X183023574Y-156250147D01*
X182746335Y-156195000D01*
X182463665Y-156195000D01*
X182186426Y-156250147D01*
X181925273Y-156358320D01*
X181690241Y-156515363D01*
X181490363Y-156715241D01*
X181333320Y-156950273D01*
X181225147Y-157211426D01*
X181220000Y-157237301D01*
X181214853Y-157211426D01*
X181106680Y-156950273D01*
X180949637Y-156715241D01*
X180749759Y-156515363D01*
X180514727Y-156358320D01*
X180253574Y-156250147D01*
X179976335Y-156195000D01*
X179693665Y-156195000D01*
X179416426Y-156250147D01*
X179155273Y-156358320D01*
X178920241Y-156515363D01*
X178720363Y-156715241D01*
X178563320Y-156950273D01*
X178455147Y-157211426D01*
X178450000Y-157237301D01*
X178444853Y-157211426D01*
X178336680Y-156950273D01*
X178179637Y-156715241D01*
X177979759Y-156515363D01*
X177744727Y-156358320D01*
X177483574Y-156250147D01*
X177206335Y-156195000D01*
X176923665Y-156195000D01*
X176646426Y-156250147D01*
X176385273Y-156358320D01*
X176150241Y-156515363D01*
X175950363Y-156715241D01*
X175793320Y-156950273D01*
X175685147Y-157211426D01*
X175680000Y-157237301D01*
X175674853Y-157211426D01*
X175566680Y-156950273D01*
X175409637Y-156715241D01*
X175209759Y-156515363D01*
X174974727Y-156358320D01*
X174713574Y-156250147D01*
X174436335Y-156195000D01*
X174153665Y-156195000D01*
X173876426Y-156250147D01*
X173615273Y-156358320D01*
X173380241Y-156515363D01*
X173180363Y-156715241D01*
X173023320Y-156950273D01*
X172915147Y-157211426D01*
X172860000Y-157488665D01*
X168264711Y-157488665D01*
X168285107Y-157458141D01*
X168483739Y-156978601D01*
X168585000Y-156469525D01*
X168585000Y-155950475D01*
X168483739Y-155441399D01*
X168285107Y-154961859D01*
X168075838Y-154648665D01*
X171475000Y-154648665D01*
X171475000Y-154931335D01*
X171530147Y-155208574D01*
X171638320Y-155469727D01*
X171795363Y-155704759D01*
X171995241Y-155904637D01*
X172230273Y-156061680D01*
X172491426Y-156169853D01*
X172768665Y-156225000D01*
X173051335Y-156225000D01*
X173328574Y-156169853D01*
X173589727Y-156061680D01*
X173824759Y-155904637D01*
X174024637Y-155704759D01*
X174181680Y-155469727D01*
X174289853Y-155208574D01*
X174295000Y-155182699D01*
X174300147Y-155208574D01*
X174408320Y-155469727D01*
X174565363Y-155704759D01*
X174765241Y-155904637D01*
X175000273Y-156061680D01*
X175261426Y-156169853D01*
X175538665Y-156225000D01*
X175821335Y-156225000D01*
X176098574Y-156169853D01*
X176359727Y-156061680D01*
X176594759Y-155904637D01*
X176794637Y-155704759D01*
X176951680Y-155469727D01*
X177059853Y-155208574D01*
X177065000Y-155182699D01*
X177070147Y-155208574D01*
X177178320Y-155469727D01*
X177335363Y-155704759D01*
X177535241Y-155904637D01*
X177770273Y-156061680D01*
X178031426Y-156169853D01*
X178308665Y-156225000D01*
X178591335Y-156225000D01*
X178868574Y-156169853D01*
X179129727Y-156061680D01*
X179364759Y-155904637D01*
X179564637Y-155704759D01*
X179721680Y-155469727D01*
X179829853Y-155208574D01*
X179835000Y-155182699D01*
X179840147Y-155208574D01*
X179948320Y-155469727D01*
X180105363Y-155704759D01*
X180305241Y-155904637D01*
X180540273Y-156061680D01*
X180801426Y-156169853D01*
X181078665Y-156225000D01*
X181361335Y-156225000D01*
X181638574Y-156169853D01*
X181899727Y-156061680D01*
X182134759Y-155904637D01*
X182334637Y-155704759D01*
X182491680Y-155469727D01*
X182553539Y-155320387D01*
X182551928Y-155590000D01*
X182564188Y-155714482D01*
X182600498Y-155834180D01*
X182659463Y-155944494D01*
X182738815Y-156041185D01*
X182835506Y-156120537D01*
X182945820Y-156179502D01*
X183065518Y-156215812D01*
X183190000Y-156228072D01*
X183704250Y-156225000D01*
X183863000Y-156066250D01*
X183863000Y-154917000D01*
X184117000Y-154917000D01*
X184117000Y-156066250D01*
X184275750Y-156225000D01*
X184790000Y-156228072D01*
X184914482Y-156215812D01*
X185034180Y-156179502D01*
X185144494Y-156120537D01*
X185241185Y-156041185D01*
X185315628Y-155950475D01*
X188315000Y-155950475D01*
X188315000Y-156469525D01*
X188416261Y-156978601D01*
X188614893Y-157458141D01*
X188903262Y-157889715D01*
X189270285Y-158256738D01*
X189701859Y-158545107D01*
X190181399Y-158743739D01*
X190690475Y-158845000D01*
X191209525Y-158845000D01*
X191718601Y-158743739D01*
X192198141Y-158545107D01*
X192629715Y-158256738D01*
X192996738Y-157889715D01*
X193285107Y-157458141D01*
X193483739Y-156978601D01*
X193585000Y-156469525D01*
X193585000Y-155950475D01*
X193483739Y-155441399D01*
X193285107Y-154961859D01*
X192996738Y-154530285D01*
X192629715Y-154163262D01*
X192198141Y-153874893D01*
X191718601Y-153676261D01*
X191209525Y-153575000D01*
X190690475Y-153575000D01*
X190181399Y-153676261D01*
X189701859Y-153874893D01*
X189270285Y-154163262D01*
X188903262Y-154530285D01*
X188614893Y-154961859D01*
X188416261Y-155441399D01*
X188315000Y-155950475D01*
X185315628Y-155950475D01*
X185320537Y-155944494D01*
X185379502Y-155834180D01*
X185415812Y-155714482D01*
X185428072Y-155590000D01*
X185425000Y-155075750D01*
X185266250Y-154917000D01*
X184117000Y-154917000D01*
X183863000Y-154917000D01*
X183843000Y-154917000D01*
X183843000Y-154663000D01*
X183863000Y-154663000D01*
X183863000Y-153513750D01*
X184117000Y-153513750D01*
X184117000Y-154663000D01*
X185266250Y-154663000D01*
X185425000Y-154504250D01*
X185428072Y-153990000D01*
X185415812Y-153865518D01*
X185379502Y-153745820D01*
X185320537Y-153635506D01*
X185241185Y-153538815D01*
X185144494Y-153459463D01*
X185034180Y-153400498D01*
X184914482Y-153364188D01*
X184790000Y-153351928D01*
X184275750Y-153355000D01*
X184117000Y-153513750D01*
X183863000Y-153513750D01*
X183704250Y-153355000D01*
X183190000Y-153351928D01*
X183065518Y-153364188D01*
X182945820Y-153400498D01*
X182835506Y-153459463D01*
X182738815Y-153538815D01*
X182659463Y-153635506D01*
X182600498Y-153745820D01*
X182564188Y-153865518D01*
X182551928Y-153990000D01*
X182553539Y-154259613D01*
X182491680Y-154110273D01*
X182334637Y-153875241D01*
X182134759Y-153675363D01*
X181899727Y-153518320D01*
X181638574Y-153410147D01*
X181361335Y-153355000D01*
X181078665Y-153355000D01*
X180801426Y-153410147D01*
X180540273Y-153518320D01*
X180305241Y-153675363D01*
X180105363Y-153875241D01*
X179948320Y-154110273D01*
X179840147Y-154371426D01*
X179835000Y-154397301D01*
X179829853Y-154371426D01*
X179721680Y-154110273D01*
X179564637Y-153875241D01*
X179364759Y-153675363D01*
X179129727Y-153518320D01*
X178868574Y-153410147D01*
X178591335Y-153355000D01*
X178308665Y-153355000D01*
X178031426Y-153410147D01*
X177770273Y-153518320D01*
X177535241Y-153675363D01*
X177335363Y-153875241D01*
X177178320Y-154110273D01*
X177070147Y-154371426D01*
X177065000Y-154397301D01*
X177059853Y-154371426D01*
X176951680Y-154110273D01*
X176794637Y-153875241D01*
X176594759Y-153675363D01*
X176359727Y-153518320D01*
X176098574Y-153410147D01*
X175821335Y-153355000D01*
X175538665Y-153355000D01*
X175261426Y-153410147D01*
X175000273Y-153518320D01*
X174765241Y-153675363D01*
X174565363Y-153875241D01*
X174408320Y-154110273D01*
X174300147Y-154371426D01*
X174295000Y-154397301D01*
X174289853Y-154371426D01*
X174181680Y-154110273D01*
X174024637Y-153875241D01*
X173824759Y-153675363D01*
X173589727Y-153518320D01*
X173328574Y-153410147D01*
X173051335Y-153355000D01*
X172768665Y-153355000D01*
X172491426Y-153410147D01*
X172230273Y-153518320D01*
X171995241Y-153675363D01*
X171795363Y-153875241D01*
X171638320Y-154110273D01*
X171530147Y-154371426D01*
X171475000Y-154648665D01*
X168075838Y-154648665D01*
X167996738Y-154530285D01*
X167629715Y-154163262D01*
X167198141Y-153874893D01*
X166718601Y-153676261D01*
X166209525Y-153575000D01*
X165690475Y-153575000D01*
X165181399Y-153676261D01*
X164701859Y-153874893D01*
X164270285Y-154163262D01*
X163903262Y-154530285D01*
X163614893Y-154961859D01*
X163416261Y-155441399D01*
X163315000Y-155950475D01*
X133350000Y-155950475D01*
X133350000Y-153068664D01*
X136575188Y-153068664D01*
X136601147Y-153179655D01*
X136723350Y-153461094D01*
X136898111Y-153713285D01*
X137118714Y-153926536D01*
X137376681Y-154092652D01*
X137662099Y-154205249D01*
X137964000Y-154260000D01*
X138563000Y-154260000D01*
X138563000Y-152827000D01*
X138817000Y-152827000D01*
X138817000Y-154260000D01*
X139416000Y-154260000D01*
X139717901Y-154205249D01*
X140003319Y-154092652D01*
X140261286Y-153926536D01*
X140481889Y-153713285D01*
X140656650Y-153461094D01*
X140778853Y-153179655D01*
X140804812Y-153068664D01*
X149075188Y-153068664D01*
X149101147Y-153179655D01*
X149223350Y-153461094D01*
X149398111Y-153713285D01*
X149618714Y-153926536D01*
X149876681Y-154092652D01*
X150162099Y-154205249D01*
X150464000Y-154260000D01*
X151063000Y-154260000D01*
X151063000Y-152827000D01*
X151317000Y-152827000D01*
X151317000Y-154260000D01*
X151916000Y-154260000D01*
X152217901Y-154205249D01*
X152503319Y-154092652D01*
X152761286Y-153926536D01*
X152981889Y-153713285D01*
X153156650Y-153461094D01*
X153278853Y-153179655D01*
X153304812Y-153068664D01*
X153184483Y-152827000D01*
X151317000Y-152827000D01*
X151063000Y-152827000D01*
X149195517Y-152827000D01*
X149075188Y-153068664D01*
X140804812Y-153068664D01*
X140684483Y-152827000D01*
X138817000Y-152827000D01*
X138563000Y-152827000D01*
X136695517Y-152827000D01*
X136575188Y-153068664D01*
X133350000Y-153068664D01*
X133350000Y-152331336D01*
X136575188Y-152331336D01*
X136695517Y-152573000D01*
X138563000Y-152573000D01*
X138563000Y-151140000D01*
X138817000Y-151140000D01*
X138817000Y-152573000D01*
X140684483Y-152573000D01*
X140804812Y-152331336D01*
X149075188Y-152331336D01*
X149195517Y-152573000D01*
X151063000Y-152573000D01*
X151063000Y-151140000D01*
X151317000Y-151140000D01*
X151317000Y-152573000D01*
X153184483Y-152573000D01*
X153304812Y-152331336D01*
X153278853Y-152220345D01*
X153156650Y-151938906D01*
X152981889Y-151686715D01*
X152761286Y-151473464D01*
X152503319Y-151307348D01*
X152217901Y-151194751D01*
X151916000Y-151140000D01*
X151317000Y-151140000D01*
X151063000Y-151140000D01*
X150464000Y-151140000D01*
X150162099Y-151194751D01*
X149876681Y-151307348D01*
X149618714Y-151473464D01*
X149398111Y-151686715D01*
X149223350Y-151938906D01*
X149101147Y-152220345D01*
X149075188Y-152331336D01*
X140804812Y-152331336D01*
X140778853Y-152220345D01*
X140656650Y-151938906D01*
X140481889Y-151686715D01*
X140261286Y-151473464D01*
X140003319Y-151307348D01*
X139717901Y-151194751D01*
X139416000Y-151140000D01*
X138817000Y-151140000D01*
X138563000Y-151140000D01*
X137964000Y-151140000D01*
X137662099Y-151194751D01*
X137376681Y-151307348D01*
X137118714Y-151473464D01*
X136898111Y-151686715D01*
X136723350Y-151938906D01*
X136601147Y-152220345D01*
X136575188Y-152331336D01*
X133350000Y-152331336D01*
X133350000Y-147700000D01*
X136523452Y-147700000D01*
X136553572Y-148005813D01*
X136642774Y-148299875D01*
X136787631Y-148570883D01*
X136982576Y-148808424D01*
X137220117Y-149003369D01*
X137491125Y-149148226D01*
X137785187Y-149237428D01*
X138014364Y-149260000D01*
X139365636Y-149260000D01*
X139594813Y-149237428D01*
X139888875Y-149148226D01*
X140159883Y-149003369D01*
X140397424Y-148808424D01*
X140592369Y-148570883D01*
X140737226Y-148299875D01*
X140826428Y-148005813D01*
X140856548Y-147700000D01*
X149023452Y-147700000D01*
X149053572Y-148005813D01*
X149142774Y-148299875D01*
X149287631Y-148570883D01*
X149482576Y-148808424D01*
X149720117Y-149003369D01*
X149991125Y-149148226D01*
X150285187Y-149237428D01*
X150514364Y-149260000D01*
X151865636Y-149260000D01*
X152094813Y-149237428D01*
X152388875Y-149148226D01*
X152659883Y-149003369D01*
X152897424Y-148808424D01*
X153092369Y-148570883D01*
X153237226Y-148299875D01*
X153326428Y-148005813D01*
X153356548Y-147700000D01*
X153326428Y-147394187D01*
X153237226Y-147100125D01*
X153092369Y-146829117D01*
X152897424Y-146591576D01*
X152659883Y-146396631D01*
X152388875Y-146251774D01*
X152094813Y-146162572D01*
X151865636Y-146140000D01*
X150514364Y-146140000D01*
X150285187Y-146162572D01*
X149991125Y-146251774D01*
X149720117Y-146396631D01*
X149482576Y-146591576D01*
X149287631Y-146829117D01*
X149142774Y-147100125D01*
X149053572Y-147394187D01*
X149023452Y-147700000D01*
X140856548Y-147700000D01*
X140826428Y-147394187D01*
X140737226Y-147100125D01*
X140592369Y-146829117D01*
X140397424Y-146591576D01*
X140159883Y-146396631D01*
X139888875Y-146251774D01*
X139594813Y-146162572D01*
X139365636Y-146140000D01*
X138014364Y-146140000D01*
X137785187Y-146162572D01*
X137491125Y-146251774D01*
X137220117Y-146396631D01*
X136982576Y-146591576D01*
X136787631Y-146829117D01*
X136642774Y-147100125D01*
X136553572Y-147394187D01*
X136523452Y-147700000D01*
X133350000Y-147700000D01*
X133350000Y-145338664D01*
X169525188Y-145338664D01*
X169551147Y-145449655D01*
X169673350Y-145731094D01*
X169848111Y-145983285D01*
X170068714Y-146196536D01*
X170326681Y-146362652D01*
X170612099Y-146475249D01*
X170914000Y-146530000D01*
X171513000Y-146530000D01*
X171513000Y-145097000D01*
X171767000Y-145097000D01*
X171767000Y-146530000D01*
X172366000Y-146530000D01*
X172667901Y-146475249D01*
X172953319Y-146362652D01*
X173211286Y-146196536D01*
X173431889Y-145983285D01*
X173606650Y-145731094D01*
X173728853Y-145449655D01*
X173754812Y-145338664D01*
X182025188Y-145338664D01*
X182051147Y-145449655D01*
X182173350Y-145731094D01*
X182348111Y-145983285D01*
X182568714Y-146196536D01*
X182826681Y-146362652D01*
X183112099Y-146475249D01*
X183414000Y-146530000D01*
X184013000Y-146530000D01*
X184013000Y-145097000D01*
X184267000Y-145097000D01*
X184267000Y-146530000D01*
X184866000Y-146530000D01*
X185167901Y-146475249D01*
X185453319Y-146362652D01*
X185711286Y-146196536D01*
X185931889Y-145983285D01*
X186106650Y-145731094D01*
X186228853Y-145449655D01*
X186254812Y-145338664D01*
X186134483Y-145097000D01*
X184267000Y-145097000D01*
X184013000Y-145097000D01*
X182145517Y-145097000D01*
X182025188Y-145338664D01*
X173754812Y-145338664D01*
X173634483Y-145097000D01*
X171767000Y-145097000D01*
X171513000Y-145097000D01*
X169645517Y-145097000D01*
X169525188Y-145338664D01*
X133350000Y-145338664D01*
X133350000Y-144601336D01*
X169525188Y-144601336D01*
X169645517Y-144843000D01*
X171513000Y-144843000D01*
X171513000Y-143410000D01*
X171767000Y-143410000D01*
X171767000Y-144843000D01*
X173634483Y-144843000D01*
X173754812Y-144601336D01*
X182025188Y-144601336D01*
X182145517Y-144843000D01*
X184013000Y-144843000D01*
X184013000Y-143410000D01*
X184267000Y-143410000D01*
X184267000Y-144843000D01*
X186134483Y-144843000D01*
X186254812Y-144601336D01*
X186228853Y-144490345D01*
X186106650Y-144208906D01*
X185931889Y-143956715D01*
X185711286Y-143743464D01*
X185453319Y-143577348D01*
X185167901Y-143464751D01*
X184866000Y-143410000D01*
X184267000Y-143410000D01*
X184013000Y-143410000D01*
X183414000Y-143410000D01*
X183112099Y-143464751D01*
X182826681Y-143577348D01*
X182568714Y-143743464D01*
X182348111Y-143956715D01*
X182173350Y-144208906D01*
X182051147Y-144490345D01*
X182025188Y-144601336D01*
X173754812Y-144601336D01*
X173728853Y-144490345D01*
X173606650Y-144208906D01*
X173431889Y-143956715D01*
X173211286Y-143743464D01*
X172953319Y-143577348D01*
X172667901Y-143464751D01*
X172366000Y-143410000D01*
X171767000Y-143410000D01*
X171513000Y-143410000D01*
X170914000Y-143410000D01*
X170612099Y-143464751D01*
X170326681Y-143577348D01*
X170068714Y-143743464D01*
X169848111Y-143956715D01*
X169673350Y-144208906D01*
X169551147Y-144490345D01*
X169525188Y-144601336D01*
X133350000Y-144601336D01*
X133350000Y-60410000D01*
X139991444Y-60410000D01*
X139995000Y-60446105D01*
X139995001Y-133373885D01*
X139991444Y-133410000D01*
X140005635Y-133554085D01*
X140040089Y-133667663D01*
X140047664Y-133692633D01*
X140115914Y-133820320D01*
X140207763Y-133932238D01*
X140235808Y-133955254D01*
X143984746Y-137704193D01*
X144007762Y-137732238D01*
X144035806Y-137755253D01*
X144119680Y-137824087D01*
X144247366Y-137892337D01*
X144385915Y-137934365D01*
X144530000Y-137948556D01*
X144566105Y-137945000D01*
X170053895Y-137945000D01*
X170090000Y-137948556D01*
X170126105Y-137945000D01*
X170234085Y-137934365D01*
X170372633Y-137892337D01*
X170500320Y-137824087D01*
X170612238Y-137732238D01*
X170635258Y-137704188D01*
X170905001Y-137434446D01*
X170905000Y-138415847D01*
X170735187Y-138432572D01*
X170441125Y-138521774D01*
X170170117Y-138666631D01*
X169932576Y-138861576D01*
X169737631Y-139099117D01*
X169592774Y-139370125D01*
X169503572Y-139664187D01*
X169473452Y-139970000D01*
X169503572Y-140275813D01*
X169592774Y-140569875D01*
X169737631Y-140840883D01*
X169932576Y-141078424D01*
X170170117Y-141273369D01*
X170441125Y-141418226D01*
X170735187Y-141507428D01*
X170964364Y-141530000D01*
X172315636Y-141530000D01*
X172544813Y-141507428D01*
X172838875Y-141418226D01*
X173109883Y-141273369D01*
X173347424Y-141078424D01*
X173542369Y-140840883D01*
X173601637Y-140730000D01*
X182178363Y-140730000D01*
X182237631Y-140840883D01*
X182432576Y-141078424D01*
X182670117Y-141273369D01*
X182941125Y-141418226D01*
X183235187Y-141507428D01*
X183464364Y-141530000D01*
X184815636Y-141530000D01*
X185044813Y-141507428D01*
X185338875Y-141418226D01*
X185609883Y-141273369D01*
X185847424Y-141078424D01*
X186042369Y-140840883D01*
X186187226Y-140569875D01*
X186276428Y-140275813D01*
X186306548Y-139970000D01*
X186276428Y-139664187D01*
X186187226Y-139370125D01*
X186042369Y-139099117D01*
X185847424Y-138861576D01*
X185609883Y-138666631D01*
X185338875Y-138521774D01*
X185044813Y-138432572D01*
X184815636Y-138410000D01*
X183464364Y-138410000D01*
X183235187Y-138432572D01*
X182941125Y-138521774D01*
X182670117Y-138666631D01*
X182432576Y-138861576D01*
X182237631Y-139099117D01*
X182178363Y-139210000D01*
X173601637Y-139210000D01*
X173542369Y-139099117D01*
X173347424Y-138861576D01*
X173109883Y-138666631D01*
X172838875Y-138521774D01*
X172544813Y-138432572D01*
X172375000Y-138415847D01*
X172375000Y-135646368D01*
X172804223Y-135217145D01*
X172938310Y-135351232D01*
X173149430Y-135492297D01*
X173384013Y-135589465D01*
X173633045Y-135639000D01*
X173886955Y-135639000D01*
X174135987Y-135589465D01*
X174370570Y-135492297D01*
X174581690Y-135351232D01*
X174761232Y-135171690D01*
X174902297Y-134960570D01*
X174999465Y-134725987D01*
X175030000Y-134572476D01*
X175060535Y-134725987D01*
X175157703Y-134960570D01*
X175298768Y-135171690D01*
X175478310Y-135351232D01*
X175689430Y-135492297D01*
X175924013Y-135589465D01*
X176173045Y-135639000D01*
X176426955Y-135639000D01*
X176675987Y-135589465D01*
X176910570Y-135492297D01*
X177121690Y-135351232D01*
X177301232Y-135171690D01*
X177442297Y-134960570D01*
X177539465Y-134725987D01*
X177570000Y-134572476D01*
X177600535Y-134725987D01*
X177697703Y-134960570D01*
X177838768Y-135171690D01*
X178018310Y-135351232D01*
X178229430Y-135492297D01*
X178464013Y-135589465D01*
X178713045Y-135639000D01*
X178966955Y-135639000D01*
X179215987Y-135589465D01*
X179450570Y-135492297D01*
X179661690Y-135351232D01*
X179841232Y-135171690D01*
X179982297Y-134960570D01*
X180079465Y-134725987D01*
X180110000Y-134572476D01*
X180140535Y-134725987D01*
X180237703Y-134960570D01*
X180378768Y-135171690D01*
X180558310Y-135351232D01*
X180769430Y-135492297D01*
X181004013Y-135589465D01*
X181253045Y-135639000D01*
X181506955Y-135639000D01*
X181755987Y-135589465D01*
X181990570Y-135492297D01*
X182201690Y-135351232D01*
X182381232Y-135171690D01*
X182522297Y-134960570D01*
X182619465Y-134725987D01*
X182650000Y-134572476D01*
X182680535Y-134725987D01*
X182777703Y-134960570D01*
X182918768Y-135171690D01*
X183098310Y-135351232D01*
X183309430Y-135492297D01*
X183544013Y-135589465D01*
X183793045Y-135639000D01*
X184046955Y-135639000D01*
X184295987Y-135589465D01*
X184530570Y-135492297D01*
X184741690Y-135351232D01*
X184921232Y-135171690D01*
X185062297Y-134960570D01*
X185159465Y-134725987D01*
X185190000Y-134572476D01*
X185220535Y-134725987D01*
X185317703Y-134960570D01*
X185458768Y-135171690D01*
X185638310Y-135351232D01*
X185849430Y-135492297D01*
X186084013Y-135589465D01*
X186333045Y-135639000D01*
X186586955Y-135639000D01*
X186835987Y-135589465D01*
X187070570Y-135492297D01*
X187281690Y-135351232D01*
X187461232Y-135171690D01*
X187602297Y-134960570D01*
X187699465Y-134725987D01*
X187730000Y-134572476D01*
X187760535Y-134725987D01*
X187857703Y-134960570D01*
X187998768Y-135171690D01*
X188178310Y-135351232D01*
X188389430Y-135492297D01*
X188624013Y-135589465D01*
X188873045Y-135639000D01*
X189126955Y-135639000D01*
X189375987Y-135589465D01*
X189610570Y-135492297D01*
X189821690Y-135351232D01*
X189934535Y-135238387D01*
X190831218Y-135238387D01*
X190885093Y-135467468D01*
X191115684Y-135573763D01*
X191362581Y-135633028D01*
X191616296Y-135642988D01*
X191867079Y-135603259D01*
X192105293Y-135515368D01*
X192194907Y-135467468D01*
X192248782Y-135238387D01*
X191540000Y-134529605D01*
X190831218Y-135238387D01*
X189934535Y-135238387D01*
X190001232Y-135171690D01*
X190142297Y-134960570D01*
X190239465Y-134725987D01*
X190270094Y-134572001D01*
X190286741Y-134677079D01*
X190374632Y-134915293D01*
X190422532Y-135004907D01*
X190651613Y-135058782D01*
X191360395Y-134350000D01*
X191719605Y-134350000D01*
X192428387Y-135058782D01*
X192657468Y-135004907D01*
X192763763Y-134774316D01*
X192823028Y-134527419D01*
X192832988Y-134273704D01*
X192793259Y-134022921D01*
X192705368Y-133784707D01*
X192657468Y-133695093D01*
X192428387Y-133641218D01*
X191719605Y-134350000D01*
X191360395Y-134350000D01*
X190651613Y-133641218D01*
X190422532Y-133695093D01*
X190316237Y-133925684D01*
X190268997Y-134122484D01*
X190239465Y-133974013D01*
X190143986Y-133743508D01*
X190180320Y-133724087D01*
X190292238Y-133632238D01*
X190315259Y-133604187D01*
X190448193Y-133471253D01*
X190476238Y-133448237D01*
X190568088Y-133336319D01*
X190636338Y-133208632D01*
X190678366Y-133070084D01*
X190689001Y-132962104D01*
X190689001Y-132962103D01*
X190692557Y-132925999D01*
X190689001Y-132889894D01*
X190689001Y-132781923D01*
X190718310Y-132811232D01*
X190929430Y-132952297D01*
X191164013Y-133049465D01*
X191317999Y-133080094D01*
X191212921Y-133096741D01*
X190974707Y-133184632D01*
X190885093Y-133232532D01*
X190831218Y-133461613D01*
X191540000Y-134170395D01*
X192248782Y-133461613D01*
X192194907Y-133232532D01*
X191964316Y-133126237D01*
X191767516Y-133078997D01*
X191915987Y-133049465D01*
X192150570Y-132952297D01*
X192361690Y-132811232D01*
X192541232Y-132631690D01*
X192599156Y-132545000D01*
X208183895Y-132545000D01*
X208220000Y-132548556D01*
X208256105Y-132545000D01*
X208364085Y-132534365D01*
X208502633Y-132492337D01*
X208630320Y-132424087D01*
X208742238Y-132332238D01*
X208765259Y-132304187D01*
X212094203Y-128975244D01*
X212122237Y-128952237D01*
X212145244Y-128924203D01*
X212145253Y-128924194D01*
X212214086Y-128840320D01*
X212282336Y-128712634D01*
X212324365Y-128574085D01*
X212338556Y-128430000D01*
X212324365Y-128285915D01*
X212315000Y-128255043D01*
X212315000Y-84399045D01*
X212470535Y-84295120D01*
X212665120Y-84100535D01*
X212818005Y-83871727D01*
X212850000Y-83794485D01*
X212881995Y-83871727D01*
X213034880Y-84100535D01*
X213229465Y-84295120D01*
X213458273Y-84448005D01*
X213712510Y-84553314D01*
X213982408Y-84607000D01*
X214257592Y-84607000D01*
X214527490Y-84553314D01*
X214781727Y-84448005D01*
X215010535Y-84295120D01*
X215205120Y-84100535D01*
X215358005Y-83871727D01*
X215463314Y-83617490D01*
X215517000Y-83347592D01*
X215517000Y-83072408D01*
X215463314Y-82802510D01*
X215358005Y-82548273D01*
X215205120Y-82319465D01*
X215010535Y-82124880D01*
X214781727Y-81971995D01*
X214527490Y-81866686D01*
X214257592Y-81813000D01*
X213982408Y-81813000D01*
X213712510Y-81866686D01*
X213458273Y-81971995D01*
X213229465Y-82124880D01*
X213034880Y-82319465D01*
X212881995Y-82548273D01*
X212850000Y-82625515D01*
X212818005Y-82548273D01*
X212665120Y-82319465D01*
X212470535Y-82124880D01*
X212241727Y-81971995D01*
X211987490Y-81866686D01*
X211717592Y-81813000D01*
X211442408Y-81813000D01*
X211172510Y-81866686D01*
X210918273Y-81971995D01*
X210689465Y-82124880D01*
X210494880Y-82319465D01*
X210341995Y-82548273D01*
X210310000Y-82625515D01*
X210278005Y-82548273D01*
X210125120Y-82319465D01*
X209930535Y-82124880D01*
X209800000Y-82037659D01*
X209800000Y-80538663D01*
X209809002Y-80508986D01*
X209823676Y-80360001D01*
X209809002Y-80211015D01*
X209795000Y-80164855D01*
X209795000Y-79438464D01*
X209798555Y-79402369D01*
X209795000Y-79366274D01*
X209795000Y-79366265D01*
X209784365Y-79258285D01*
X209742337Y-79119737D01*
X209674087Y-78992050D01*
X209582238Y-78880132D01*
X209554193Y-78857116D01*
X207885258Y-77188182D01*
X207862238Y-77160132D01*
X207750320Y-77068283D01*
X207622633Y-77000033D01*
X207484085Y-76958005D01*
X207376105Y-76947370D01*
X207340000Y-76943814D01*
X207303895Y-76947370D01*
X167783724Y-76947370D01*
X167747629Y-76943815D01*
X167711534Y-76947370D01*
X167711525Y-76947370D01*
X167603545Y-76958005D01*
X167464997Y-77000033D01*
X167337310Y-77068283D01*
X167225392Y-77160132D01*
X167202376Y-77188177D01*
X164445808Y-79944746D01*
X164417762Y-79967763D01*
X164325913Y-80079681D01*
X164257663Y-80207368D01*
X164250490Y-80231015D01*
X164215635Y-80345915D01*
X164201444Y-80490000D01*
X164205000Y-80526105D01*
X164205001Y-89753885D01*
X164201444Y-89790000D01*
X164215635Y-89934085D01*
X164251566Y-90052532D01*
X164257664Y-90072633D01*
X164325914Y-90200320D01*
X164417763Y-90312238D01*
X164445808Y-90335254D01*
X165774746Y-91664193D01*
X165797762Y-91692238D01*
X165825806Y-91715253D01*
X165909680Y-91784087D01*
X166037366Y-91852337D01*
X166175915Y-91894365D01*
X166320000Y-91908556D01*
X166356105Y-91905000D01*
X167620844Y-91905000D01*
X167678768Y-91991690D01*
X167858310Y-92171232D01*
X168069430Y-92312297D01*
X168304013Y-92409465D01*
X168553045Y-92459000D01*
X168806955Y-92459000D01*
X169055987Y-92409465D01*
X169290570Y-92312297D01*
X169501690Y-92171232D01*
X169681232Y-91991690D01*
X169822297Y-91780570D01*
X169919465Y-91545987D01*
X169950000Y-91392476D01*
X169980535Y-91545987D01*
X170077703Y-91780570D01*
X170218768Y-91991690D01*
X170398310Y-92171232D01*
X170609430Y-92312297D01*
X170844013Y-92409465D01*
X171093045Y-92459000D01*
X171346955Y-92459000D01*
X171595987Y-92409465D01*
X171830570Y-92312297D01*
X172041690Y-92171232D01*
X172221232Y-91991690D01*
X172362297Y-91780570D01*
X172459465Y-91545987D01*
X172490000Y-91392476D01*
X172520535Y-91545987D01*
X172617703Y-91780570D01*
X172758768Y-91991690D01*
X172938310Y-92171232D01*
X173149430Y-92312297D01*
X173384013Y-92409465D01*
X173633045Y-92459000D01*
X173886955Y-92459000D01*
X174135987Y-92409465D01*
X174370570Y-92312297D01*
X174581690Y-92171232D01*
X174761232Y-91991690D01*
X174902297Y-91780570D01*
X174999465Y-91545987D01*
X175030000Y-91392476D01*
X175060535Y-91545987D01*
X175157703Y-91780570D01*
X175298768Y-91991690D01*
X175478310Y-92171232D01*
X175565001Y-92229156D01*
X175565000Y-93815553D01*
X174185554Y-95195000D01*
X167916105Y-95195000D01*
X167880000Y-95191444D01*
X167843895Y-95195000D01*
X167735915Y-95205635D01*
X167597367Y-95247663D01*
X167469680Y-95315913D01*
X167357762Y-95407762D01*
X167334746Y-95435807D01*
X161495808Y-101274746D01*
X161467763Y-101297762D01*
X161375914Y-101409680D01*
X161318748Y-101516631D01*
X161307664Y-101537367D01*
X161265635Y-101675915D01*
X161251444Y-101820000D01*
X161255001Y-101856115D01*
X161255000Y-119715847D01*
X161085187Y-119732572D01*
X160791125Y-119821774D01*
X160520117Y-119966631D01*
X160282576Y-120161576D01*
X160087631Y-120399117D01*
X160028363Y-120510000D01*
X151451637Y-120510000D01*
X151392369Y-120399117D01*
X151197424Y-120161576D01*
X150959883Y-119966631D01*
X150688875Y-119821774D01*
X150394813Y-119732572D01*
X150165636Y-119710000D01*
X148814364Y-119710000D01*
X148585187Y-119732572D01*
X148291125Y-119821774D01*
X148020117Y-119966631D01*
X147782576Y-120161576D01*
X147587631Y-120399117D01*
X147442774Y-120670125D01*
X147353572Y-120964187D01*
X147323452Y-121270000D01*
X147353572Y-121575813D01*
X147442774Y-121869875D01*
X147587631Y-122140883D01*
X147782576Y-122378424D01*
X148020117Y-122573369D01*
X148291125Y-122718226D01*
X148585187Y-122807428D01*
X148814364Y-122830000D01*
X150165636Y-122830000D01*
X150394813Y-122807428D01*
X150688875Y-122718226D01*
X150959883Y-122573369D01*
X151197424Y-122378424D01*
X151392369Y-122140883D01*
X151451637Y-122030000D01*
X160028363Y-122030000D01*
X160087631Y-122140883D01*
X160282576Y-122378424D01*
X160520117Y-122573369D01*
X160791125Y-122718226D01*
X161085187Y-122807428D01*
X161314364Y-122830000D01*
X162665636Y-122830000D01*
X162894813Y-122807428D01*
X163188875Y-122718226D01*
X163459883Y-122573369D01*
X163697424Y-122378424D01*
X163892369Y-122140883D01*
X164037226Y-121869875D01*
X164126428Y-121575813D01*
X164156548Y-121270000D01*
X164126428Y-120964187D01*
X164037226Y-120670125D01*
X163892369Y-120399117D01*
X163697424Y-120161576D01*
X163459883Y-119966631D01*
X163188875Y-119821774D01*
X162894813Y-119732572D01*
X162725000Y-119715847D01*
X162725000Y-108188664D01*
X169525188Y-108188664D01*
X169551147Y-108299655D01*
X169673350Y-108581094D01*
X169848111Y-108833285D01*
X170068714Y-109046536D01*
X170326681Y-109212652D01*
X170612099Y-109325249D01*
X170914000Y-109380000D01*
X171513000Y-109380000D01*
X171513000Y-107947000D01*
X171767000Y-107947000D01*
X171767000Y-109380000D01*
X172366000Y-109380000D01*
X172667901Y-109325249D01*
X172953319Y-109212652D01*
X173211286Y-109046536D01*
X173431889Y-108833285D01*
X173606650Y-108581094D01*
X173728853Y-108299655D01*
X173754812Y-108188664D01*
X182025188Y-108188664D01*
X182051147Y-108299655D01*
X182173350Y-108581094D01*
X182348111Y-108833285D01*
X182568714Y-109046536D01*
X182826681Y-109212652D01*
X183112099Y-109325249D01*
X183414000Y-109380000D01*
X184013000Y-109380000D01*
X184013000Y-107947000D01*
X184267000Y-107947000D01*
X184267000Y-109380000D01*
X184866000Y-109380000D01*
X185167901Y-109325249D01*
X185453319Y-109212652D01*
X185711286Y-109046536D01*
X185931889Y-108833285D01*
X186106650Y-108581094D01*
X186228853Y-108299655D01*
X186254812Y-108188664D01*
X186134483Y-107947000D01*
X184267000Y-107947000D01*
X184013000Y-107947000D01*
X182145517Y-107947000D01*
X182025188Y-108188664D01*
X173754812Y-108188664D01*
X173634483Y-107947000D01*
X171767000Y-107947000D01*
X171513000Y-107947000D01*
X169645517Y-107947000D01*
X169525188Y-108188664D01*
X162725000Y-108188664D01*
X162725000Y-107451336D01*
X169525188Y-107451336D01*
X169645517Y-107693000D01*
X171513000Y-107693000D01*
X171513000Y-106260000D01*
X171767000Y-106260000D01*
X171767000Y-107693000D01*
X173634483Y-107693000D01*
X173754812Y-107451336D01*
X182025188Y-107451336D01*
X182145517Y-107693000D01*
X184013000Y-107693000D01*
X184013000Y-106260000D01*
X184267000Y-106260000D01*
X184267000Y-107693000D01*
X186134483Y-107693000D01*
X186254812Y-107451336D01*
X186228853Y-107340345D01*
X186106650Y-107058906D01*
X185931889Y-106806715D01*
X185711286Y-106593464D01*
X185453319Y-106427348D01*
X185167901Y-106314751D01*
X184866000Y-106260000D01*
X184267000Y-106260000D01*
X184013000Y-106260000D01*
X183414000Y-106260000D01*
X183112099Y-106314751D01*
X182826681Y-106427348D01*
X182568714Y-106593464D01*
X182348111Y-106806715D01*
X182173350Y-107058906D01*
X182051147Y-107340345D01*
X182025188Y-107451336D01*
X173754812Y-107451336D01*
X173728853Y-107340345D01*
X173606650Y-107058906D01*
X173431889Y-106806715D01*
X173211286Y-106593464D01*
X172953319Y-106427348D01*
X172667901Y-106314751D01*
X172366000Y-106260000D01*
X171767000Y-106260000D01*
X171513000Y-106260000D01*
X170914000Y-106260000D01*
X170612099Y-106314751D01*
X170326681Y-106427348D01*
X170068714Y-106593464D01*
X169848111Y-106806715D01*
X169673350Y-107058906D01*
X169551147Y-107340345D01*
X169525188Y-107451336D01*
X162725000Y-107451336D01*
X162725000Y-102124446D01*
X168184447Y-96665000D01*
X171052705Y-96665000D01*
X171009744Y-96682795D01*
X170840226Y-96796063D01*
X170696063Y-96940226D01*
X170582795Y-97109744D01*
X170504774Y-97298102D01*
X170465000Y-97498061D01*
X170465000Y-97701939D01*
X170504774Y-97901898D01*
X170582795Y-98090256D01*
X170696063Y-98259774D01*
X170840226Y-98403937D01*
X170880001Y-98430514D01*
X170880000Y-101268309D01*
X170735187Y-101282572D01*
X170441125Y-101371774D01*
X170170117Y-101516631D01*
X169932576Y-101711576D01*
X169737631Y-101949117D01*
X169592774Y-102220125D01*
X169503572Y-102514187D01*
X169473452Y-102820000D01*
X169503572Y-103125813D01*
X169592774Y-103419875D01*
X169737631Y-103690883D01*
X169932576Y-103928424D01*
X170170117Y-104123369D01*
X170441125Y-104268226D01*
X170735187Y-104357428D01*
X170964364Y-104380000D01*
X172315636Y-104380000D01*
X172544813Y-104357428D01*
X172838875Y-104268226D01*
X173109883Y-104123369D01*
X173347424Y-103928424D01*
X173542369Y-103690883D01*
X173601637Y-103580000D01*
X182178363Y-103580000D01*
X182237631Y-103690883D01*
X182432576Y-103928424D01*
X182670117Y-104123369D01*
X182941125Y-104268226D01*
X183235187Y-104357428D01*
X183464364Y-104380000D01*
X184815636Y-104380000D01*
X185044813Y-104357428D01*
X185338875Y-104268226D01*
X185609883Y-104123369D01*
X185847424Y-103928424D01*
X186042369Y-103690883D01*
X186187226Y-103419875D01*
X186276428Y-103125813D01*
X186306548Y-102820000D01*
X186276428Y-102514187D01*
X186187226Y-102220125D01*
X186042369Y-101949117D01*
X185847424Y-101711576D01*
X185609883Y-101516631D01*
X185338875Y-101371774D01*
X185044813Y-101282572D01*
X184815636Y-101260000D01*
X183464364Y-101260000D01*
X183235187Y-101282572D01*
X182941125Y-101371774D01*
X182670117Y-101516631D01*
X182432576Y-101711576D01*
X182237631Y-101949117D01*
X182178363Y-102060000D01*
X173601637Y-102060000D01*
X173542369Y-101949117D01*
X173347424Y-101711576D01*
X173109883Y-101516631D01*
X172838875Y-101371774D01*
X172544813Y-101282572D01*
X172400000Y-101268309D01*
X172400000Y-98116005D01*
X172417205Y-98090256D01*
X172495226Y-97901898D01*
X172535000Y-97701939D01*
X172535000Y-97498061D01*
X172495226Y-97298102D01*
X172417205Y-97109744D01*
X172303937Y-96940226D01*
X172159774Y-96796063D01*
X171990256Y-96682795D01*
X171947295Y-96665000D01*
X174453895Y-96665000D01*
X174490000Y-96668556D01*
X174526105Y-96665000D01*
X174634085Y-96654365D01*
X174772633Y-96612337D01*
X174900320Y-96544087D01*
X175012238Y-96452238D01*
X175035258Y-96424188D01*
X176794197Y-94665250D01*
X176822237Y-94642238D01*
X176845250Y-94614197D01*
X176845253Y-94614194D01*
X176914087Y-94530320D01*
X176982337Y-94402634D01*
X177024365Y-94264085D01*
X177038556Y-94120000D01*
X177035000Y-94083895D01*
X177035000Y-92229156D01*
X177121690Y-92171232D01*
X177301232Y-91991690D01*
X177442297Y-91780570D01*
X177539465Y-91545987D01*
X177570000Y-91392476D01*
X177600535Y-91545987D01*
X177697703Y-91780570D01*
X177838768Y-91991690D01*
X178018310Y-92171232D01*
X178229430Y-92312297D01*
X178464013Y-92409465D01*
X178713045Y-92459000D01*
X178966955Y-92459000D01*
X179215987Y-92409465D01*
X179450570Y-92312297D01*
X179661690Y-92171232D01*
X179841232Y-91991690D01*
X179982297Y-91780570D01*
X180079465Y-91545987D01*
X180110000Y-91392476D01*
X180140535Y-91545987D01*
X180237703Y-91780570D01*
X180378768Y-91991690D01*
X180558310Y-92171232D01*
X180769430Y-92312297D01*
X181004013Y-92409465D01*
X181253045Y-92459000D01*
X181506955Y-92459000D01*
X181755987Y-92409465D01*
X181990570Y-92312297D01*
X182201690Y-92171232D01*
X182381232Y-91991690D01*
X182522297Y-91780570D01*
X182619465Y-91545987D01*
X182650000Y-91392476D01*
X182680535Y-91545987D01*
X182777703Y-91780570D01*
X182918768Y-91991690D01*
X183098310Y-92171232D01*
X183309430Y-92312297D01*
X183544013Y-92409465D01*
X183793045Y-92459000D01*
X184046955Y-92459000D01*
X184295987Y-92409465D01*
X184530570Y-92312297D01*
X184741690Y-92171232D01*
X184921232Y-91991690D01*
X185062297Y-91780570D01*
X185159465Y-91545987D01*
X185190000Y-91392476D01*
X185220535Y-91545987D01*
X185317703Y-91780570D01*
X185458768Y-91991690D01*
X185638310Y-92171232D01*
X185849430Y-92312297D01*
X186084013Y-92409465D01*
X186333045Y-92459000D01*
X186586955Y-92459000D01*
X186835987Y-92409465D01*
X187070570Y-92312297D01*
X187281690Y-92171232D01*
X187394535Y-92058387D01*
X188291218Y-92058387D01*
X188345093Y-92287468D01*
X188575684Y-92393763D01*
X188822581Y-92453028D01*
X189076296Y-92462988D01*
X189327079Y-92423259D01*
X189565293Y-92335368D01*
X189654907Y-92287468D01*
X189708782Y-92058387D01*
X189000000Y-91349605D01*
X188291218Y-92058387D01*
X187394535Y-92058387D01*
X187461232Y-91991690D01*
X187602297Y-91780570D01*
X187699465Y-91545987D01*
X187730094Y-91392001D01*
X187746741Y-91497079D01*
X187834632Y-91735293D01*
X187882532Y-91824907D01*
X188111613Y-91878782D01*
X188820395Y-91170000D01*
X188111613Y-90461218D01*
X187882532Y-90515093D01*
X187776237Y-90745684D01*
X187728997Y-90942484D01*
X187699465Y-90794013D01*
X187602297Y-90559430D01*
X187461232Y-90348310D01*
X187281690Y-90168768D01*
X187070570Y-90027703D01*
X186835987Y-89930535D01*
X186682476Y-89900000D01*
X186835987Y-89869465D01*
X187070570Y-89772297D01*
X187281690Y-89631232D01*
X187461232Y-89451690D01*
X187602297Y-89240570D01*
X187699465Y-89005987D01*
X187730000Y-88852476D01*
X187760535Y-89005987D01*
X187857703Y-89240570D01*
X187998768Y-89451690D01*
X188178310Y-89631232D01*
X188389430Y-89772297D01*
X188624013Y-89869465D01*
X188777999Y-89900094D01*
X188672921Y-89916741D01*
X188434707Y-90004632D01*
X188345093Y-90052532D01*
X188291218Y-90281613D01*
X189000000Y-90990395D01*
X189708782Y-90281613D01*
X189654907Y-90052532D01*
X189424316Y-89946237D01*
X189227516Y-89898997D01*
X189375987Y-89869465D01*
X189610570Y-89772297D01*
X189821690Y-89631232D01*
X190001232Y-89451690D01*
X190142297Y-89240570D01*
X190239465Y-89005987D01*
X190247928Y-88963440D01*
X190247928Y-89284000D01*
X190260188Y-89408482D01*
X190296498Y-89528180D01*
X190355463Y-89638494D01*
X190434815Y-89735185D01*
X190531506Y-89814537D01*
X190641820Y-89873502D01*
X190761518Y-89909812D01*
X190886000Y-89922072D01*
X191206560Y-89922072D01*
X191164013Y-89930535D01*
X190929430Y-90027703D01*
X190718310Y-90168768D01*
X190538768Y-90348310D01*
X190397703Y-90559430D01*
X190300535Y-90794013D01*
X190269906Y-90947999D01*
X190253259Y-90842921D01*
X190165368Y-90604707D01*
X190117468Y-90515093D01*
X189888387Y-90461218D01*
X189179605Y-91170000D01*
X189888387Y-91878782D01*
X190117468Y-91824907D01*
X190223763Y-91594316D01*
X190271003Y-91397516D01*
X190300535Y-91545987D01*
X190397703Y-91780570D01*
X190538768Y-91991690D01*
X190718310Y-92171232D01*
X190929430Y-92312297D01*
X191164013Y-92409465D01*
X191413045Y-92459000D01*
X191666955Y-92459000D01*
X191915987Y-92409465D01*
X192150570Y-92312297D01*
X192361690Y-92171232D01*
X192541232Y-91991690D01*
X192682297Y-91780570D01*
X192779465Y-91545987D01*
X192829000Y-91296955D01*
X192829000Y-91043045D01*
X192779465Y-90794013D01*
X192682297Y-90559430D01*
X192541232Y-90348310D01*
X192361690Y-90168768D01*
X192150570Y-90027703D01*
X191915987Y-89930535D01*
X191873440Y-89922072D01*
X192194000Y-89922072D01*
X192318482Y-89909812D01*
X192438180Y-89873502D01*
X192548494Y-89814537D01*
X192645185Y-89735185D01*
X192724537Y-89638494D01*
X192783502Y-89528180D01*
X192819812Y-89408482D01*
X192832072Y-89284000D01*
X192832072Y-87976000D01*
X192819812Y-87851518D01*
X192783502Y-87731820D01*
X192724537Y-87621506D01*
X192645185Y-87524815D01*
X192548494Y-87445463D01*
X192438180Y-87386498D01*
X192318482Y-87350188D01*
X192194000Y-87337928D01*
X190886000Y-87337928D01*
X190761518Y-87350188D01*
X190641820Y-87386498D01*
X190531506Y-87445463D01*
X190434815Y-87524815D01*
X190355463Y-87621506D01*
X190296498Y-87731820D01*
X190260188Y-87851518D01*
X190247928Y-87976000D01*
X190247928Y-88296560D01*
X190239465Y-88254013D01*
X190142297Y-88019430D01*
X190001232Y-87808310D01*
X189821690Y-87628768D01*
X189610570Y-87487703D01*
X189375987Y-87390535D01*
X189126955Y-87341000D01*
X188873045Y-87341000D01*
X188624013Y-87390535D01*
X188389430Y-87487703D01*
X188178310Y-87628768D01*
X187998768Y-87808310D01*
X187857703Y-88019430D01*
X187760535Y-88254013D01*
X187730000Y-88407524D01*
X187699465Y-88254013D01*
X187602297Y-88019430D01*
X187461232Y-87808310D01*
X187281690Y-87628768D01*
X187070570Y-87487703D01*
X186835987Y-87390535D01*
X186586955Y-87341000D01*
X186333045Y-87341000D01*
X186084013Y-87390535D01*
X185849430Y-87487703D01*
X185638310Y-87628768D01*
X185458768Y-87808310D01*
X185317703Y-88019430D01*
X185220535Y-88254013D01*
X185190000Y-88407524D01*
X185159465Y-88254013D01*
X185062297Y-88019430D01*
X184921232Y-87808310D01*
X184741690Y-87628768D01*
X184530570Y-87487703D01*
X184295987Y-87390535D01*
X184046955Y-87341000D01*
X183793045Y-87341000D01*
X183687441Y-87362006D01*
X184394447Y-86655000D01*
X194025554Y-86655000D01*
X194615001Y-87244448D01*
X194615000Y-110555553D01*
X191905554Y-113265000D01*
X190321094Y-113265000D01*
X190284999Y-113261445D01*
X190248904Y-113265000D01*
X190248895Y-113265000D01*
X190140915Y-113275635D01*
X190002367Y-113317663D01*
X189874680Y-113385913D01*
X189762762Y-113477762D01*
X189739746Y-113505807D01*
X183645808Y-119599746D01*
X183617763Y-119622762D01*
X183546168Y-119710000D01*
X183464364Y-119710000D01*
X183235187Y-119732572D01*
X182941125Y-119821774D01*
X182670117Y-119966631D01*
X182432576Y-120161576D01*
X182237631Y-120399117D01*
X182178363Y-120510000D01*
X173601637Y-120510000D01*
X173542369Y-120399117D01*
X173347424Y-120161576D01*
X173109883Y-119966631D01*
X172838875Y-119821774D01*
X172544813Y-119732572D01*
X172315636Y-119710000D01*
X170964364Y-119710000D01*
X170735187Y-119732572D01*
X170441125Y-119821774D01*
X170170117Y-119966631D01*
X169932576Y-120161576D01*
X169737631Y-120399117D01*
X169592774Y-120670125D01*
X169503572Y-120964187D01*
X169473452Y-121270000D01*
X169503572Y-121575813D01*
X169592774Y-121869875D01*
X169737631Y-122140883D01*
X169932576Y-122378424D01*
X170170117Y-122573369D01*
X170441125Y-122718226D01*
X170735187Y-122807428D01*
X170964364Y-122830000D01*
X172315636Y-122830000D01*
X172544813Y-122807428D01*
X172838875Y-122718226D01*
X173109883Y-122573369D01*
X173347424Y-122378424D01*
X173542369Y-122140883D01*
X173601637Y-122030000D01*
X182178363Y-122030000D01*
X182237631Y-122140883D01*
X182432576Y-122378424D01*
X182670117Y-122573369D01*
X182941125Y-122718226D01*
X183235187Y-122807428D01*
X183464364Y-122830000D01*
X184815636Y-122830000D01*
X185044813Y-122807428D01*
X185338875Y-122718226D01*
X185609883Y-122573369D01*
X185847424Y-122378424D01*
X186042369Y-122140883D01*
X186187226Y-121869875D01*
X186276428Y-121575813D01*
X186306548Y-121270000D01*
X186276428Y-120964187D01*
X186187226Y-120670125D01*
X186042369Y-120399117D01*
X185847424Y-120161576D01*
X185609883Y-119966631D01*
X185445617Y-119878829D01*
X190589447Y-114735000D01*
X192173895Y-114735000D01*
X192210000Y-114738556D01*
X192246105Y-114735000D01*
X192354085Y-114724365D01*
X192492633Y-114682337D01*
X192620320Y-114614087D01*
X192732238Y-114522238D01*
X192755259Y-114494187D01*
X195725000Y-111524447D01*
X195725000Y-112715553D01*
X189459809Y-118980745D01*
X189431764Y-119003761D01*
X189339915Y-119115679D01*
X189271665Y-119243366D01*
X189229636Y-119381914D01*
X189215445Y-119525999D01*
X189219002Y-119562114D01*
X189219001Y-130539309D01*
X189126955Y-130521000D01*
X188873045Y-130521000D01*
X188624013Y-130570535D01*
X188389430Y-130667703D01*
X188178310Y-130808768D01*
X187998768Y-130988310D01*
X187857703Y-131199430D01*
X187760535Y-131434013D01*
X187730000Y-131587524D01*
X187699465Y-131434013D01*
X187602297Y-131199430D01*
X187461232Y-130988310D01*
X187281690Y-130808768D01*
X187070570Y-130667703D01*
X186835987Y-130570535D01*
X186586955Y-130521000D01*
X186333045Y-130521000D01*
X186084013Y-130570535D01*
X185849430Y-130667703D01*
X185638310Y-130808768D01*
X185458768Y-130988310D01*
X185317703Y-131199430D01*
X185220535Y-131434013D01*
X185190000Y-131587524D01*
X185159465Y-131434013D01*
X185062297Y-131199430D01*
X184921232Y-130988310D01*
X184741690Y-130808768D01*
X184530570Y-130667703D01*
X184295987Y-130570535D01*
X184046955Y-130521000D01*
X183793045Y-130521000D01*
X183544013Y-130570535D01*
X183309430Y-130667703D01*
X183098310Y-130808768D01*
X182918768Y-130988310D01*
X182777703Y-131199430D01*
X182680535Y-131434013D01*
X182650000Y-131587524D01*
X182619465Y-131434013D01*
X182522297Y-131199430D01*
X182381232Y-130988310D01*
X182201690Y-130808768D01*
X181990570Y-130667703D01*
X181755987Y-130570535D01*
X181506955Y-130521000D01*
X181253045Y-130521000D01*
X181004013Y-130570535D01*
X180769430Y-130667703D01*
X180558310Y-130808768D01*
X180378768Y-130988310D01*
X180237703Y-131199430D01*
X180140535Y-131434013D01*
X180110000Y-131587524D01*
X180079465Y-131434013D01*
X179982297Y-131199430D01*
X179841232Y-130988310D01*
X179661690Y-130808768D01*
X179450570Y-130667703D01*
X179215987Y-130570535D01*
X178966955Y-130521000D01*
X178713045Y-130521000D01*
X178464013Y-130570535D01*
X178229430Y-130667703D01*
X178018310Y-130808768D01*
X177838768Y-130988310D01*
X177697703Y-131199430D01*
X177600535Y-131434013D01*
X177570000Y-131587524D01*
X177539465Y-131434013D01*
X177442297Y-131199430D01*
X177301232Y-130988310D01*
X177121690Y-130808768D01*
X176910570Y-130667703D01*
X176675987Y-130570535D01*
X176426955Y-130521000D01*
X176173045Y-130521000D01*
X175924013Y-130570535D01*
X175689430Y-130667703D01*
X175478310Y-130808768D01*
X175298768Y-130988310D01*
X175157703Y-131199430D01*
X175060535Y-131434013D01*
X175030000Y-131587524D01*
X174999465Y-131434013D01*
X174902297Y-131199430D01*
X174761232Y-130988310D01*
X174581690Y-130808768D01*
X174370570Y-130667703D01*
X174135987Y-130570535D01*
X173886955Y-130521000D01*
X173633045Y-130521000D01*
X173384013Y-130570535D01*
X173149430Y-130667703D01*
X172938310Y-130808768D01*
X172758768Y-130988310D01*
X172617703Y-131199430D01*
X172520535Y-131434013D01*
X172490000Y-131587524D01*
X172459465Y-131434013D01*
X172362297Y-131199430D01*
X172221232Y-130988310D01*
X172041690Y-130808768D01*
X171830570Y-130667703D01*
X171595987Y-130570535D01*
X171346955Y-130521000D01*
X171093045Y-130521000D01*
X170844013Y-130570535D01*
X170609430Y-130667703D01*
X170398310Y-130808768D01*
X170218768Y-130988310D01*
X170077703Y-131199430D01*
X169980535Y-131434013D01*
X169950000Y-131587524D01*
X169919465Y-131434013D01*
X169822297Y-131199430D01*
X169681232Y-130988310D01*
X169501690Y-130808768D01*
X169290570Y-130667703D01*
X169055987Y-130570535D01*
X168806955Y-130521000D01*
X168553045Y-130521000D01*
X168304013Y-130570535D01*
X168069430Y-130667703D01*
X167858310Y-130808768D01*
X167678768Y-130988310D01*
X167537703Y-131199430D01*
X167440535Y-131434013D01*
X167391000Y-131683045D01*
X167391000Y-131936955D01*
X167440535Y-132185987D01*
X167537703Y-132420570D01*
X167678768Y-132631690D01*
X167858310Y-132811232D01*
X168069430Y-132952297D01*
X168304013Y-133049465D01*
X168457524Y-133080000D01*
X168304013Y-133110535D01*
X168069430Y-133207703D01*
X167858310Y-133348768D01*
X167678768Y-133528310D01*
X167620844Y-133615000D01*
X147534447Y-133615000D01*
X144845000Y-130925554D01*
X144845000Y-126638664D01*
X147375188Y-126638664D01*
X147401147Y-126749655D01*
X147523350Y-127031094D01*
X147698111Y-127283285D01*
X147918714Y-127496536D01*
X148176681Y-127662652D01*
X148462099Y-127775249D01*
X148764000Y-127830000D01*
X149363000Y-127830000D01*
X149363000Y-126397000D01*
X149617000Y-126397000D01*
X149617000Y-127830000D01*
X150216000Y-127830000D01*
X150517901Y-127775249D01*
X150803319Y-127662652D01*
X151061286Y-127496536D01*
X151281889Y-127283285D01*
X151456650Y-127031094D01*
X151578853Y-126749655D01*
X151604812Y-126638664D01*
X159875188Y-126638664D01*
X159901147Y-126749655D01*
X160023350Y-127031094D01*
X160198111Y-127283285D01*
X160418714Y-127496536D01*
X160676681Y-127662652D01*
X160962099Y-127775249D01*
X161264000Y-127830000D01*
X161863000Y-127830000D01*
X161863000Y-126397000D01*
X162117000Y-126397000D01*
X162117000Y-127830000D01*
X162716000Y-127830000D01*
X163017901Y-127775249D01*
X163303319Y-127662652D01*
X163561286Y-127496536D01*
X163781889Y-127283285D01*
X163956650Y-127031094D01*
X164078853Y-126749655D01*
X164104812Y-126638664D01*
X169525188Y-126638664D01*
X169551147Y-126749655D01*
X169673350Y-127031094D01*
X169848111Y-127283285D01*
X170068714Y-127496536D01*
X170326681Y-127662652D01*
X170612099Y-127775249D01*
X170914000Y-127830000D01*
X171513000Y-127830000D01*
X171513000Y-126397000D01*
X171767000Y-126397000D01*
X171767000Y-127830000D01*
X172366000Y-127830000D01*
X172667901Y-127775249D01*
X172953319Y-127662652D01*
X173211286Y-127496536D01*
X173431889Y-127283285D01*
X173606650Y-127031094D01*
X173728853Y-126749655D01*
X173754812Y-126638664D01*
X182025188Y-126638664D01*
X182051147Y-126749655D01*
X182173350Y-127031094D01*
X182348111Y-127283285D01*
X182568714Y-127496536D01*
X182826681Y-127662652D01*
X183112099Y-127775249D01*
X183414000Y-127830000D01*
X184013000Y-127830000D01*
X184013000Y-126397000D01*
X184267000Y-126397000D01*
X184267000Y-127830000D01*
X184866000Y-127830000D01*
X185167901Y-127775249D01*
X185453319Y-127662652D01*
X185711286Y-127496536D01*
X185931889Y-127283285D01*
X186106650Y-127031094D01*
X186228853Y-126749655D01*
X186254812Y-126638664D01*
X186134483Y-126397000D01*
X184267000Y-126397000D01*
X184013000Y-126397000D01*
X182145517Y-126397000D01*
X182025188Y-126638664D01*
X173754812Y-126638664D01*
X173634483Y-126397000D01*
X171767000Y-126397000D01*
X171513000Y-126397000D01*
X169645517Y-126397000D01*
X169525188Y-126638664D01*
X164104812Y-126638664D01*
X163984483Y-126397000D01*
X162117000Y-126397000D01*
X161863000Y-126397000D01*
X159995517Y-126397000D01*
X159875188Y-126638664D01*
X151604812Y-126638664D01*
X151484483Y-126397000D01*
X149617000Y-126397000D01*
X149363000Y-126397000D01*
X147495517Y-126397000D01*
X147375188Y-126638664D01*
X144845000Y-126638664D01*
X144845000Y-125901336D01*
X147375188Y-125901336D01*
X147495517Y-126143000D01*
X149363000Y-126143000D01*
X149363000Y-124710000D01*
X149617000Y-124710000D01*
X149617000Y-126143000D01*
X151484483Y-126143000D01*
X151604812Y-125901336D01*
X159875188Y-125901336D01*
X159995517Y-126143000D01*
X161863000Y-126143000D01*
X161863000Y-124710000D01*
X162117000Y-124710000D01*
X162117000Y-126143000D01*
X163984483Y-126143000D01*
X164104812Y-125901336D01*
X169525188Y-125901336D01*
X169645517Y-126143000D01*
X171513000Y-126143000D01*
X171513000Y-124710000D01*
X171767000Y-124710000D01*
X171767000Y-126143000D01*
X173634483Y-126143000D01*
X173754812Y-125901336D01*
X182025188Y-125901336D01*
X182145517Y-126143000D01*
X184013000Y-126143000D01*
X184013000Y-124710000D01*
X184267000Y-124710000D01*
X184267000Y-126143000D01*
X186134483Y-126143000D01*
X186254812Y-125901336D01*
X186228853Y-125790345D01*
X186106650Y-125508906D01*
X185931889Y-125256715D01*
X185711286Y-125043464D01*
X185453319Y-124877348D01*
X185167901Y-124764751D01*
X184866000Y-124710000D01*
X184267000Y-124710000D01*
X184013000Y-124710000D01*
X183414000Y-124710000D01*
X183112099Y-124764751D01*
X182826681Y-124877348D01*
X182568714Y-125043464D01*
X182348111Y-125256715D01*
X182173350Y-125508906D01*
X182051147Y-125790345D01*
X182025188Y-125901336D01*
X173754812Y-125901336D01*
X173728853Y-125790345D01*
X173606650Y-125508906D01*
X173431889Y-125256715D01*
X173211286Y-125043464D01*
X172953319Y-124877348D01*
X172667901Y-124764751D01*
X172366000Y-124710000D01*
X171767000Y-124710000D01*
X171513000Y-124710000D01*
X170914000Y-124710000D01*
X170612099Y-124764751D01*
X170326681Y-124877348D01*
X170068714Y-125043464D01*
X169848111Y-125256715D01*
X169673350Y-125508906D01*
X169551147Y-125790345D01*
X169525188Y-125901336D01*
X164104812Y-125901336D01*
X164078853Y-125790345D01*
X163956650Y-125508906D01*
X163781889Y-125256715D01*
X163561286Y-125043464D01*
X163303319Y-124877348D01*
X163017901Y-124764751D01*
X162716000Y-124710000D01*
X162117000Y-124710000D01*
X161863000Y-124710000D01*
X161264000Y-124710000D01*
X160962099Y-124764751D01*
X160676681Y-124877348D01*
X160418714Y-125043464D01*
X160198111Y-125256715D01*
X160023350Y-125508906D01*
X159901147Y-125790345D01*
X159875188Y-125901336D01*
X151604812Y-125901336D01*
X151578853Y-125790345D01*
X151456650Y-125508906D01*
X151281889Y-125256715D01*
X151061286Y-125043464D01*
X150803319Y-124877348D01*
X150517901Y-124764751D01*
X150216000Y-124710000D01*
X149617000Y-124710000D01*
X149363000Y-124710000D01*
X148764000Y-124710000D01*
X148462099Y-124764751D01*
X148176681Y-124877348D01*
X147918714Y-125043464D01*
X147698111Y-125256715D01*
X147523350Y-125508906D01*
X147401147Y-125790345D01*
X147375188Y-125901336D01*
X144845000Y-125901336D01*
X144845000Y-73425565D01*
X204094040Y-73425565D01*
X204161020Y-73665656D01*
X204410048Y-73782756D01*
X204677135Y-73849023D01*
X204952017Y-73861910D01*
X205224133Y-73820922D01*
X205483023Y-73727636D01*
X205598980Y-73665656D01*
X205665960Y-73425565D01*
X204880000Y-72639605D01*
X204094040Y-73425565D01*
X144845000Y-73425565D01*
X144845000Y-72532017D01*
X203478090Y-72532017D01*
X203519078Y-72804133D01*
X203612364Y-73063023D01*
X203674344Y-73178980D01*
X203914435Y-73245960D01*
X204700395Y-72460000D01*
X205059605Y-72460000D01*
X205845565Y-73245960D01*
X206085656Y-73178980D01*
X206202756Y-72929952D01*
X206269023Y-72662865D01*
X206281910Y-72387983D01*
X206240922Y-72115867D01*
X206147636Y-71856977D01*
X206085656Y-71741020D01*
X205845565Y-71674040D01*
X205059605Y-72460000D01*
X204700395Y-72460000D01*
X203914435Y-71674040D01*
X203674344Y-71741020D01*
X203557244Y-71990048D01*
X203490977Y-72257135D01*
X203478090Y-72532017D01*
X144845000Y-72532017D01*
X144845000Y-71234446D01*
X148094447Y-67985000D01*
X180141289Y-67985000D01*
X180210226Y-68053937D01*
X180379744Y-68167205D01*
X180568102Y-68245226D01*
X180768061Y-68285000D01*
X180971939Y-68285000D01*
X181171898Y-68245226D01*
X181360256Y-68167205D01*
X181529774Y-68053937D01*
X181673937Y-67909774D01*
X181787205Y-67740256D01*
X181865226Y-67551898D01*
X181905000Y-67351939D01*
X181905000Y-67148061D01*
X181865226Y-66948102D01*
X181787205Y-66759744D01*
X181673937Y-66590226D01*
X181529774Y-66446063D01*
X181360256Y-66332795D01*
X181171898Y-66254774D01*
X180971939Y-66215000D01*
X180768061Y-66215000D01*
X180568102Y-66254774D01*
X180379744Y-66332795D01*
X180210226Y-66446063D01*
X180141289Y-66515000D01*
X147826105Y-66515000D01*
X147790000Y-66511444D01*
X147753895Y-66515000D01*
X147645915Y-66525635D01*
X147507367Y-66567663D01*
X147379680Y-66635913D01*
X147267762Y-66727762D01*
X147244746Y-66755807D01*
X143615808Y-70384746D01*
X143587762Y-70407763D01*
X143495913Y-70519681D01*
X143427663Y-70647368D01*
X143398384Y-70743887D01*
X143385635Y-70785915D01*
X143371444Y-70930000D01*
X143375000Y-70966105D01*
X143375001Y-131193885D01*
X143371444Y-131230000D01*
X143385635Y-131374085D01*
X143427664Y-131512633D01*
X143495914Y-131640320D01*
X143587763Y-131752238D01*
X143615808Y-131775254D01*
X146684746Y-134844193D01*
X146707762Y-134872238D01*
X146819680Y-134964087D01*
X146947367Y-135032337D01*
X147085915Y-135074365D01*
X147193895Y-135085000D01*
X147193904Y-135085000D01*
X147229999Y-135088555D01*
X147266094Y-135085000D01*
X167620844Y-135085000D01*
X167678768Y-135171690D01*
X167858310Y-135351232D01*
X168069430Y-135492297D01*
X168304013Y-135589465D01*
X168553045Y-135639000D01*
X168806955Y-135639000D01*
X169055987Y-135589465D01*
X169290570Y-135492297D01*
X169501690Y-135351232D01*
X169681232Y-135171690D01*
X169822297Y-134960570D01*
X169919465Y-134725987D01*
X169950000Y-134572476D01*
X169980535Y-134725987D01*
X170077703Y-134960570D01*
X170218768Y-135171690D01*
X170398310Y-135351232D01*
X170485000Y-135409156D01*
X170485000Y-135775553D01*
X169785554Y-136475000D01*
X144834447Y-136475000D01*
X141465000Y-133105554D01*
X141465000Y-60714446D01*
X144244447Y-57935000D01*
X175971289Y-57935000D01*
X176040226Y-58003937D01*
X176209744Y-58117205D01*
X176398102Y-58195226D01*
X176598061Y-58235000D01*
X176801939Y-58235000D01*
X177001898Y-58195226D01*
X177190256Y-58117205D01*
X177359774Y-58003937D01*
X177503937Y-57859774D01*
X177617205Y-57690256D01*
X177695226Y-57501898D01*
X177735000Y-57301939D01*
X177735000Y-57098061D01*
X177695226Y-56898102D01*
X177655573Y-56802370D01*
X200916324Y-56802370D01*
X200920000Y-56839692D01*
X200920001Y-68692668D01*
X200916324Y-68730000D01*
X200930998Y-68878985D01*
X200974454Y-69022246D01*
X201045026Y-69154276D01*
X201116201Y-69241002D01*
X201140000Y-69270001D01*
X201168998Y-69293799D01*
X202306201Y-70431003D01*
X202329999Y-70460001D01*
X202358997Y-70483799D01*
X202445723Y-70554974D01*
X202577753Y-70625546D01*
X202721014Y-70669003D01*
X202832667Y-70680000D01*
X202832676Y-70680000D01*
X202869999Y-70683676D01*
X202907322Y-70680000D01*
X203707659Y-70680000D01*
X203794880Y-70810535D01*
X203989465Y-71005120D01*
X204218273Y-71158005D01*
X204289943Y-71187692D01*
X204276977Y-71192364D01*
X204161020Y-71254344D01*
X204094040Y-71494435D01*
X204880000Y-72280395D01*
X205665960Y-71494435D01*
X205598980Y-71254344D01*
X205463240Y-71190515D01*
X205541727Y-71158005D01*
X205770535Y-71005120D01*
X205965120Y-70810535D01*
X206118005Y-70581727D01*
X206223314Y-70327490D01*
X206277000Y-70057592D01*
X206277000Y-69782408D01*
X206223314Y-69512510D01*
X206118005Y-69258273D01*
X205965120Y-69029465D01*
X205770535Y-68834880D01*
X205541727Y-68681995D01*
X205464485Y-68650000D01*
X205541727Y-68618005D01*
X205770535Y-68465120D01*
X205965120Y-68270535D01*
X206118005Y-68041727D01*
X206223314Y-67787490D01*
X206277000Y-67517592D01*
X206277000Y-67242408D01*
X206223314Y-66972510D01*
X206118005Y-66718273D01*
X205965120Y-66489465D01*
X205770535Y-66294880D01*
X205541727Y-66141995D01*
X205464485Y-66110000D01*
X205541727Y-66078005D01*
X205770535Y-65925120D01*
X205965120Y-65730535D01*
X206118005Y-65501727D01*
X206223314Y-65247490D01*
X206277000Y-64977592D01*
X206277000Y-64702408D01*
X206223314Y-64432510D01*
X206118005Y-64178273D01*
X205965120Y-63949465D01*
X205770535Y-63754880D01*
X205541727Y-63601995D01*
X205464485Y-63570000D01*
X205541727Y-63538005D01*
X205770535Y-63385120D01*
X205965120Y-63190535D01*
X206118005Y-62961727D01*
X206223314Y-62707490D01*
X206277000Y-62437592D01*
X206277000Y-62162408D01*
X206223314Y-61892510D01*
X206118005Y-61638273D01*
X205965120Y-61409465D01*
X205770535Y-61214880D01*
X205541727Y-61061995D01*
X205464485Y-61030000D01*
X205541727Y-60998005D01*
X205770535Y-60845120D01*
X205965120Y-60650535D01*
X206118005Y-60421727D01*
X206223314Y-60167490D01*
X206277000Y-59897592D01*
X206277000Y-59622408D01*
X206223314Y-59352510D01*
X206118005Y-59098273D01*
X205965120Y-58869465D01*
X205770535Y-58674880D01*
X205541727Y-58521995D01*
X205464485Y-58490000D01*
X205541727Y-58458005D01*
X205770535Y-58305120D01*
X205965120Y-58110535D01*
X206118005Y-57881727D01*
X206223314Y-57627490D01*
X206277000Y-57357592D01*
X206277000Y-57082408D01*
X206223314Y-56812510D01*
X206118005Y-56558273D01*
X205965120Y-56329465D01*
X205770535Y-56134880D01*
X205541727Y-55981995D01*
X205464485Y-55950000D01*
X205541727Y-55918005D01*
X205770535Y-55765120D01*
X205965120Y-55570535D01*
X206118005Y-55341727D01*
X206223314Y-55087490D01*
X206277000Y-54817592D01*
X206277000Y-54542408D01*
X206223314Y-54272510D01*
X206118005Y-54018273D01*
X205965120Y-53789465D01*
X205770535Y-53594880D01*
X205541727Y-53441995D01*
X205287490Y-53336686D01*
X205017592Y-53283000D01*
X204742408Y-53283000D01*
X204472510Y-53336686D01*
X204218273Y-53441995D01*
X203989465Y-53594880D01*
X203794880Y-53789465D01*
X203703617Y-53926049D01*
X203653384Y-53930997D01*
X203510123Y-53974454D01*
X203378094Y-54045026D01*
X203378092Y-54045027D01*
X203378093Y-54045027D01*
X203291366Y-54116201D01*
X203291362Y-54116205D01*
X203262369Y-54139999D01*
X203238575Y-54168992D01*
X201169002Y-56238566D01*
X201139999Y-56262369D01*
X201084935Y-56329465D01*
X201045026Y-56378094D01*
X200992889Y-56475635D01*
X200974454Y-56510124D01*
X200930997Y-56653385D01*
X200920000Y-56765038D01*
X200920000Y-56765048D01*
X200916324Y-56802370D01*
X177655573Y-56802370D01*
X177617205Y-56709744D01*
X177503937Y-56540226D01*
X177359774Y-56396063D01*
X177190256Y-56282795D01*
X177001898Y-56204774D01*
X176801939Y-56165000D01*
X176598061Y-56165000D01*
X176398102Y-56204774D01*
X176209744Y-56282795D01*
X176040226Y-56396063D01*
X175971289Y-56465000D01*
X143976105Y-56465000D01*
X143940000Y-56461444D01*
X143795915Y-56475635D01*
X143657366Y-56517663D01*
X143529680Y-56585913D01*
X143417762Y-56677762D01*
X143394746Y-56705807D01*
X140235808Y-59864746D01*
X140207762Y-59887763D01*
X140115913Y-59999681D01*
X140047663Y-60127368D01*
X140018384Y-60223887D01*
X140005635Y-60265915D01*
X139991444Y-60410000D01*
X133350000Y-60410000D01*
X133350000Y-42680000D01*
X222020000Y-42680000D01*
X222020001Y-161340000D01*
G36*
X208325001Y-79706818D02*
G01*
X208325000Y-80118920D01*
X208290998Y-80231015D01*
X208276324Y-80380000D01*
X208280001Y-80417332D01*
X208280000Y-82037659D01*
X208149465Y-82124880D01*
X207954880Y-82319465D01*
X207801995Y-82548273D01*
X207770000Y-82625515D01*
X207738005Y-82548273D01*
X207585120Y-82319465D01*
X207390535Y-82124880D01*
X207161727Y-81971995D01*
X206907490Y-81866686D01*
X206637592Y-81813000D01*
X206362408Y-81813000D01*
X206092510Y-81866686D01*
X205838273Y-81971995D01*
X205609465Y-82124880D01*
X205414880Y-82319465D01*
X205261995Y-82548273D01*
X205230000Y-82625515D01*
X205198005Y-82548273D01*
X205045120Y-82319465D01*
X204850535Y-82124880D01*
X204621727Y-81971995D01*
X204367490Y-81866686D01*
X204097592Y-81813000D01*
X203822408Y-81813000D01*
X203552510Y-81866686D01*
X203298273Y-81971995D01*
X203069465Y-82124880D01*
X202874880Y-82319465D01*
X202721995Y-82548273D01*
X202692308Y-82619943D01*
X202687636Y-82606977D01*
X202625656Y-82491020D01*
X202385565Y-82424040D01*
X201599605Y-83210000D01*
X202385565Y-83995960D01*
X202625656Y-83928980D01*
X202689485Y-83793240D01*
X202721995Y-83871727D01*
X202874880Y-84100535D01*
X203069465Y-84295120D01*
X203298273Y-84448005D01*
X203552510Y-84553314D01*
X203822408Y-84607000D01*
X204097592Y-84607000D01*
X204367490Y-84553314D01*
X204621727Y-84448005D01*
X204850535Y-84295120D01*
X205045120Y-84100535D01*
X205198005Y-83871727D01*
X205230000Y-83794485D01*
X205261995Y-83871727D01*
X205414880Y-84100535D01*
X205609465Y-84295120D01*
X205838273Y-84448005D01*
X206092510Y-84553314D01*
X206362408Y-84607000D01*
X206637592Y-84607000D01*
X206907490Y-84553314D01*
X207161727Y-84448005D01*
X207390535Y-84295120D01*
X207585120Y-84100535D01*
X207738005Y-83871727D01*
X207770000Y-83794485D01*
X207801995Y-83871727D01*
X207954880Y-84100535D01*
X208149465Y-84295120D01*
X208378273Y-84448005D01*
X208632510Y-84553314D01*
X208902408Y-84607000D01*
X209177592Y-84607000D01*
X209447490Y-84553314D01*
X209701727Y-84448005D01*
X209930535Y-84295120D01*
X210125120Y-84100535D01*
X210278005Y-83871727D01*
X210310000Y-83794485D01*
X210341995Y-83871727D01*
X210494880Y-84100535D01*
X210689465Y-84295120D01*
X210845001Y-84399046D01*
X210845000Y-128145553D01*
X207915554Y-131075000D01*
X192599156Y-131075000D01*
X192541232Y-130988310D01*
X192361690Y-130808768D01*
X192150570Y-130667703D01*
X191915987Y-130570535D01*
X191666955Y-130521000D01*
X191413045Y-130521000D01*
X191164013Y-130570535D01*
X190929430Y-130667703D01*
X190718310Y-130808768D01*
X190689001Y-130838077D01*
X190689001Y-126638664D01*
X191505188Y-126638664D01*
X191531147Y-126749655D01*
X191653350Y-127031094D01*
X191828111Y-127283285D01*
X192048714Y-127496536D01*
X192306681Y-127662652D01*
X192592099Y-127775249D01*
X192894000Y-127830000D01*
X193493000Y-127830000D01*
X193493000Y-126397000D01*
X193747000Y-126397000D01*
X193747000Y-127830000D01*
X194346000Y-127830000D01*
X194647901Y-127775249D01*
X194933319Y-127662652D01*
X195191286Y-127496536D01*
X195411889Y-127283285D01*
X195586650Y-127031094D01*
X195708853Y-126749655D01*
X195734812Y-126638664D01*
X204005188Y-126638664D01*
X204031147Y-126749655D01*
X204153350Y-127031094D01*
X204328111Y-127283285D01*
X204548714Y-127496536D01*
X204806681Y-127662652D01*
X205092099Y-127775249D01*
X205394000Y-127830000D01*
X205993000Y-127830000D01*
X205993000Y-126397000D01*
X206247000Y-126397000D01*
X206247000Y-127830000D01*
X206846000Y-127830000D01*
X207147901Y-127775249D01*
X207433319Y-127662652D01*
X207691286Y-127496536D01*
X207911889Y-127283285D01*
X208086650Y-127031094D01*
X208208853Y-126749655D01*
X208234812Y-126638664D01*
X208114483Y-126397000D01*
X206247000Y-126397000D01*
X205993000Y-126397000D01*
X204125517Y-126397000D01*
X204005188Y-126638664D01*
X195734812Y-126638664D01*
X195614483Y-126397000D01*
X193747000Y-126397000D01*
X193493000Y-126397000D01*
X191625517Y-126397000D01*
X191505188Y-126638664D01*
X190689001Y-126638664D01*
X190689001Y-125901336D01*
X191505188Y-125901336D01*
X191625517Y-126143000D01*
X193493000Y-126143000D01*
X193493000Y-124710000D01*
X193747000Y-124710000D01*
X193747000Y-126143000D01*
X195614483Y-126143000D01*
X195734812Y-125901336D01*
X204005188Y-125901336D01*
X204125517Y-126143000D01*
X205993000Y-126143000D01*
X205993000Y-124710000D01*
X206247000Y-124710000D01*
X206247000Y-126143000D01*
X208114483Y-126143000D01*
X208234812Y-125901336D01*
X208208853Y-125790345D01*
X208086650Y-125508906D01*
X207911889Y-125256715D01*
X207691286Y-125043464D01*
X207433319Y-124877348D01*
X207147901Y-124764751D01*
X206846000Y-124710000D01*
X206247000Y-124710000D01*
X205993000Y-124710000D01*
X205394000Y-124710000D01*
X205092099Y-124764751D01*
X204806681Y-124877348D01*
X204548714Y-125043464D01*
X204328111Y-125256715D01*
X204153350Y-125508906D01*
X204031147Y-125790345D01*
X204005188Y-125901336D01*
X195734812Y-125901336D01*
X195708853Y-125790345D01*
X195586650Y-125508906D01*
X195411889Y-125256715D01*
X195191286Y-125043464D01*
X194933319Y-124877348D01*
X194647901Y-124764751D01*
X194346000Y-124710000D01*
X193747000Y-124710000D01*
X193493000Y-124710000D01*
X192894000Y-124710000D01*
X192592099Y-124764751D01*
X192306681Y-124877348D01*
X192048714Y-125043464D01*
X191828111Y-125256715D01*
X191653350Y-125508906D01*
X191531147Y-125790345D01*
X191505188Y-125901336D01*
X190689001Y-125901336D01*
X190689001Y-119830445D01*
X196954198Y-113565249D01*
X196982237Y-113542238D01*
X197005250Y-113514197D01*
X197005253Y-113514194D01*
X197035152Y-113477762D01*
X197045000Y-113465762D01*
X197045000Y-115680553D01*
X193125808Y-119599746D01*
X193097763Y-119622762D01*
X193026168Y-119710000D01*
X192944364Y-119710000D01*
X192715187Y-119732572D01*
X192421125Y-119821774D01*
X192150117Y-119966631D01*
X191912576Y-120161576D01*
X191717631Y-120399117D01*
X191572774Y-120670125D01*
X191483572Y-120964187D01*
X191453452Y-121270000D01*
X191483572Y-121575813D01*
X191572774Y-121869875D01*
X191717631Y-122140883D01*
X191912576Y-122378424D01*
X192150117Y-122573369D01*
X192421125Y-122718226D01*
X192715187Y-122807428D01*
X192944364Y-122830000D01*
X194295636Y-122830000D01*
X194524813Y-122807428D01*
X194818875Y-122718226D01*
X195089883Y-122573369D01*
X195327424Y-122378424D01*
X195522369Y-122140883D01*
X195581637Y-122030000D01*
X204158363Y-122030000D01*
X204217631Y-122140883D01*
X204412576Y-122378424D01*
X204650117Y-122573369D01*
X204921125Y-122718226D01*
X205215187Y-122807428D01*
X205444364Y-122830000D01*
X206795636Y-122830000D01*
X207024813Y-122807428D01*
X207318875Y-122718226D01*
X207589883Y-122573369D01*
X207827424Y-122378424D01*
X208022369Y-122140883D01*
X208167226Y-121869875D01*
X208256428Y-121575813D01*
X208286548Y-121270000D01*
X208256428Y-120964187D01*
X208167226Y-120670125D01*
X208022369Y-120399117D01*
X207827424Y-120161576D01*
X207589883Y-119966631D01*
X207318875Y-119821774D01*
X207024813Y-119732572D01*
X206795636Y-119710000D01*
X205444364Y-119710000D01*
X205215187Y-119732572D01*
X204921125Y-119821774D01*
X204650117Y-119966631D01*
X204412576Y-120161576D01*
X204217631Y-120399117D01*
X204158363Y-120510000D01*
X195581637Y-120510000D01*
X195522369Y-120399117D01*
X195327424Y-120161576D01*
X195089883Y-119966631D01*
X194925617Y-119878829D01*
X198274197Y-116530250D01*
X198302237Y-116507238D01*
X198325250Y-116479197D01*
X198325253Y-116479194D01*
X198394086Y-116395321D01*
X198394087Y-116395320D01*
X198462337Y-116267633D01*
X198504365Y-116129085D01*
X198515000Y-116021105D01*
X198515000Y-116021096D01*
X198518555Y-115985001D01*
X198515000Y-115948906D01*
X198515000Y-85216104D01*
X198518556Y-85179999D01*
X198504365Y-85035914D01*
X198485079Y-84972337D01*
X198462337Y-84897367D01*
X198394087Y-84769680D01*
X198302238Y-84657762D01*
X198274193Y-84634746D01*
X197815012Y-84175565D01*
X200634040Y-84175565D01*
X200701020Y-84415656D01*
X200950048Y-84532756D01*
X201217135Y-84599023D01*
X201492017Y-84611910D01*
X201764133Y-84570922D01*
X202023023Y-84477636D01*
X202138980Y-84415656D01*
X202205960Y-84175565D01*
X201420000Y-83389605D01*
X200634040Y-84175565D01*
X197815012Y-84175565D01*
X197435258Y-83795812D01*
X197412238Y-83767762D01*
X197300320Y-83675913D01*
X197172633Y-83607663D01*
X197034085Y-83565635D01*
X196926105Y-83555000D01*
X196890000Y-83551444D01*
X196853895Y-83555000D01*
X180556105Y-83555000D01*
X180520000Y-83551444D01*
X180483895Y-83555000D01*
X180375915Y-83565635D01*
X180237367Y-83607663D01*
X180109680Y-83675913D01*
X179997762Y-83767762D01*
X179974746Y-83795807D01*
X178345808Y-85424746D01*
X178317763Y-85447762D01*
X178225914Y-85559680D01*
X178184390Y-85637367D01*
X178157664Y-85687367D01*
X178115635Y-85825915D01*
X178101444Y-85970000D01*
X178105001Y-86006115D01*
X178105000Y-87570844D01*
X178018310Y-87628768D01*
X177838768Y-87808310D01*
X177697703Y-88019430D01*
X177600535Y-88254013D01*
X177570000Y-88407524D01*
X177539465Y-88254013D01*
X177442297Y-88019430D01*
X177301232Y-87808310D01*
X177121690Y-87628768D01*
X176910570Y-87487703D01*
X176675987Y-87390535D01*
X176426955Y-87341000D01*
X176173045Y-87341000D01*
X175924013Y-87390535D01*
X175689430Y-87487703D01*
X175478310Y-87628768D01*
X175298768Y-87808310D01*
X175157703Y-88019430D01*
X175060535Y-88254013D01*
X175030000Y-88407524D01*
X174999465Y-88254013D01*
X174902297Y-88019430D01*
X174761232Y-87808310D01*
X174581690Y-87628768D01*
X174370570Y-87487703D01*
X174135987Y-87390535D01*
X173886955Y-87341000D01*
X173633045Y-87341000D01*
X173384013Y-87390535D01*
X173149430Y-87487703D01*
X172938310Y-87628768D01*
X172758768Y-87808310D01*
X172617703Y-88019430D01*
X172520535Y-88254013D01*
X172490000Y-88407524D01*
X172459465Y-88254013D01*
X172362297Y-88019430D01*
X172221232Y-87808310D01*
X172041690Y-87628768D01*
X171830570Y-87487703D01*
X171595987Y-87390535D01*
X171346955Y-87341000D01*
X171093045Y-87341000D01*
X170844013Y-87390535D01*
X170609430Y-87487703D01*
X170398310Y-87628768D01*
X170218768Y-87808310D01*
X170077703Y-88019430D01*
X169980535Y-88254013D01*
X169950000Y-88407524D01*
X169919465Y-88254013D01*
X169822297Y-88019430D01*
X169681232Y-87808310D01*
X169501690Y-87628768D01*
X169290570Y-87487703D01*
X169055987Y-87390535D01*
X168806955Y-87341000D01*
X168553045Y-87341000D01*
X168304013Y-87390535D01*
X168069430Y-87487703D01*
X167858310Y-87628768D01*
X167678768Y-87808310D01*
X167537703Y-88019430D01*
X167440535Y-88254013D01*
X167391000Y-88503045D01*
X167391000Y-88756955D01*
X167440535Y-89005987D01*
X167537703Y-89240570D01*
X167678768Y-89451690D01*
X167858310Y-89631232D01*
X168069430Y-89772297D01*
X168304013Y-89869465D01*
X168457524Y-89900000D01*
X168304013Y-89930535D01*
X168069430Y-90027703D01*
X167858310Y-90168768D01*
X167678768Y-90348310D01*
X167620844Y-90435000D01*
X166624447Y-90435000D01*
X165675000Y-89485554D01*
X165675000Y-83282017D01*
X200018090Y-83282017D01*
X200059078Y-83554133D01*
X200152364Y-83813023D01*
X200214344Y-83928980D01*
X200454435Y-83995960D01*
X201240395Y-83210000D01*
X200454435Y-82424040D01*
X200214344Y-82491020D01*
X200097244Y-82740048D01*
X200030977Y-83007135D01*
X200018090Y-83282017D01*
X165675000Y-83282017D01*
X165675000Y-82244435D01*
X200634040Y-82244435D01*
X201420000Y-83030395D01*
X202205960Y-82244435D01*
X202138980Y-82004344D01*
X201889952Y-81887244D01*
X201622865Y-81820977D01*
X201347983Y-81808090D01*
X201075867Y-81849078D01*
X200816977Y-81942364D01*
X200701020Y-82004344D01*
X200634040Y-82244435D01*
X165675000Y-82244435D01*
X165675000Y-80794446D01*
X168052077Y-78417370D01*
X207035554Y-78417370D01*
X208325001Y-79706818D01*
X208325001Y-79706818D01*
G37*
X208325001Y-79706818D02*
X208325000Y-80118920D01*
X208290998Y-80231015D01*
X208276324Y-80380000D01*
X208280001Y-80417332D01*
X208280000Y-82037659D01*
X208149465Y-82124880D01*
X207954880Y-82319465D01*
X207801995Y-82548273D01*
X207770000Y-82625515D01*
X207738005Y-82548273D01*
X207585120Y-82319465D01*
X207390535Y-82124880D01*
X207161727Y-81971995D01*
X206907490Y-81866686D01*
X206637592Y-81813000D01*
X206362408Y-81813000D01*
X206092510Y-81866686D01*
X205838273Y-81971995D01*
X205609465Y-82124880D01*
X205414880Y-82319465D01*
X205261995Y-82548273D01*
X205230000Y-82625515D01*
X205198005Y-82548273D01*
X205045120Y-82319465D01*
X204850535Y-82124880D01*
X204621727Y-81971995D01*
X204367490Y-81866686D01*
X204097592Y-81813000D01*
X203822408Y-81813000D01*
X203552510Y-81866686D01*
X203298273Y-81971995D01*
X203069465Y-82124880D01*
X202874880Y-82319465D01*
X202721995Y-82548273D01*
X202692308Y-82619943D01*
X202687636Y-82606977D01*
X202625656Y-82491020D01*
X202385565Y-82424040D01*
X201599605Y-83210000D01*
X202385565Y-83995960D01*
X202625656Y-83928980D01*
X202689485Y-83793240D01*
X202721995Y-83871727D01*
X202874880Y-84100535D01*
X203069465Y-84295120D01*
X203298273Y-84448005D01*
X203552510Y-84553314D01*
X203822408Y-84607000D01*
X204097592Y-84607000D01*
X204367490Y-84553314D01*
X204621727Y-84448005D01*
X204850535Y-84295120D01*
X205045120Y-84100535D01*
X205198005Y-83871727D01*
X205230000Y-83794485D01*
X205261995Y-83871727D01*
X205414880Y-84100535D01*
X205609465Y-84295120D01*
X205838273Y-84448005D01*
X206092510Y-84553314D01*
X206362408Y-84607000D01*
X206637592Y-84607000D01*
X206907490Y-84553314D01*
X207161727Y-84448005D01*
X207390535Y-84295120D01*
X207585120Y-84100535D01*
X207738005Y-83871727D01*
X207770000Y-83794485D01*
X207801995Y-83871727D01*
X207954880Y-84100535D01*
X208149465Y-84295120D01*
X208378273Y-84448005D01*
X208632510Y-84553314D01*
X208902408Y-84607000D01*
X209177592Y-84607000D01*
X209447490Y-84553314D01*
X209701727Y-84448005D01*
X209930535Y-84295120D01*
X210125120Y-84100535D01*
X210278005Y-83871727D01*
X210310000Y-83794485D01*
X210341995Y-83871727D01*
X210494880Y-84100535D01*
X210689465Y-84295120D01*
X210845001Y-84399046D01*
X210845000Y-128145553D01*
X207915554Y-131075000D01*
X192599156Y-131075000D01*
X192541232Y-130988310D01*
X192361690Y-130808768D01*
X192150570Y-130667703D01*
X191915987Y-130570535D01*
X191666955Y-130521000D01*
X191413045Y-130521000D01*
X191164013Y-130570535D01*
X190929430Y-130667703D01*
X190718310Y-130808768D01*
X190689001Y-130838077D01*
X190689001Y-126638664D01*
X191505188Y-126638664D01*
X191531147Y-126749655D01*
X191653350Y-127031094D01*
X191828111Y-127283285D01*
X192048714Y-127496536D01*
X192306681Y-127662652D01*
X192592099Y-127775249D01*
X192894000Y-127830000D01*
X193493000Y-127830000D01*
X193493000Y-126397000D01*
X193747000Y-126397000D01*
X193747000Y-127830000D01*
X194346000Y-127830000D01*
X194647901Y-127775249D01*
X194933319Y-127662652D01*
X195191286Y-127496536D01*
X195411889Y-127283285D01*
X195586650Y-127031094D01*
X195708853Y-126749655D01*
X195734812Y-126638664D01*
X204005188Y-126638664D01*
X204031147Y-126749655D01*
X204153350Y-127031094D01*
X204328111Y-127283285D01*
X204548714Y-127496536D01*
X204806681Y-127662652D01*
X205092099Y-127775249D01*
X205394000Y-127830000D01*
X205993000Y-127830000D01*
X205993000Y-126397000D01*
X206247000Y-126397000D01*
X206247000Y-127830000D01*
X206846000Y-127830000D01*
X207147901Y-127775249D01*
X207433319Y-127662652D01*
X207691286Y-127496536D01*
X207911889Y-127283285D01*
X208086650Y-127031094D01*
X208208853Y-126749655D01*
X208234812Y-126638664D01*
X208114483Y-126397000D01*
X206247000Y-126397000D01*
X205993000Y-126397000D01*
X204125517Y-126397000D01*
X204005188Y-126638664D01*
X195734812Y-126638664D01*
X195614483Y-126397000D01*
X193747000Y-126397000D01*
X193493000Y-126397000D01*
X191625517Y-126397000D01*
X191505188Y-126638664D01*
X190689001Y-126638664D01*
X190689001Y-125901336D01*
X191505188Y-125901336D01*
X191625517Y-126143000D01*
X193493000Y-126143000D01*
X193493000Y-124710000D01*
X193747000Y-124710000D01*
X193747000Y-126143000D01*
X195614483Y-126143000D01*
X195734812Y-125901336D01*
X204005188Y-125901336D01*
X204125517Y-126143000D01*
X205993000Y-126143000D01*
X205993000Y-124710000D01*
X206247000Y-124710000D01*
X206247000Y-126143000D01*
X208114483Y-126143000D01*
X208234812Y-125901336D01*
X208208853Y-125790345D01*
X208086650Y-125508906D01*
X207911889Y-125256715D01*
X207691286Y-125043464D01*
X207433319Y-124877348D01*
X207147901Y-124764751D01*
X206846000Y-124710000D01*
X206247000Y-124710000D01*
X205993000Y-124710000D01*
X205394000Y-124710000D01*
X205092099Y-124764751D01*
X204806681Y-124877348D01*
X204548714Y-125043464D01*
X204328111Y-125256715D01*
X204153350Y-125508906D01*
X204031147Y-125790345D01*
X204005188Y-125901336D01*
X195734812Y-125901336D01*
X195708853Y-125790345D01*
X195586650Y-125508906D01*
X195411889Y-125256715D01*
X195191286Y-125043464D01*
X194933319Y-124877348D01*
X194647901Y-124764751D01*
X194346000Y-124710000D01*
X193747000Y-124710000D01*
X193493000Y-124710000D01*
X192894000Y-124710000D01*
X192592099Y-124764751D01*
X192306681Y-124877348D01*
X192048714Y-125043464D01*
X191828111Y-125256715D01*
X191653350Y-125508906D01*
X191531147Y-125790345D01*
X191505188Y-125901336D01*
X190689001Y-125901336D01*
X190689001Y-119830445D01*
X196954198Y-113565249D01*
X196982237Y-113542238D01*
X197005250Y-113514197D01*
X197005253Y-113514194D01*
X197035152Y-113477762D01*
X197045000Y-113465762D01*
X197045000Y-115680553D01*
X193125808Y-119599746D01*
X193097763Y-119622762D01*
X193026168Y-119710000D01*
X192944364Y-119710000D01*
X192715187Y-119732572D01*
X192421125Y-119821774D01*
X192150117Y-119966631D01*
X191912576Y-120161576D01*
X191717631Y-120399117D01*
X191572774Y-120670125D01*
X191483572Y-120964187D01*
X191453452Y-121270000D01*
X191483572Y-121575813D01*
X191572774Y-121869875D01*
X191717631Y-122140883D01*
X191912576Y-122378424D01*
X192150117Y-122573369D01*
X192421125Y-122718226D01*
X192715187Y-122807428D01*
X192944364Y-122830000D01*
X194295636Y-122830000D01*
X194524813Y-122807428D01*
X194818875Y-122718226D01*
X195089883Y-122573369D01*
X195327424Y-122378424D01*
X195522369Y-122140883D01*
X195581637Y-122030000D01*
X204158363Y-122030000D01*
X204217631Y-122140883D01*
X204412576Y-122378424D01*
X204650117Y-122573369D01*
X204921125Y-122718226D01*
X205215187Y-122807428D01*
X205444364Y-122830000D01*
X206795636Y-122830000D01*
X207024813Y-122807428D01*
X207318875Y-122718226D01*
X207589883Y-122573369D01*
X207827424Y-122378424D01*
X208022369Y-122140883D01*
X208167226Y-121869875D01*
X208256428Y-121575813D01*
X208286548Y-121270000D01*
X208256428Y-120964187D01*
X208167226Y-120670125D01*
X208022369Y-120399117D01*
X207827424Y-120161576D01*
X207589883Y-119966631D01*
X207318875Y-119821774D01*
X207024813Y-119732572D01*
X206795636Y-119710000D01*
X205444364Y-119710000D01*
X205215187Y-119732572D01*
X204921125Y-119821774D01*
X204650117Y-119966631D01*
X204412576Y-120161576D01*
X204217631Y-120399117D01*
X204158363Y-120510000D01*
X195581637Y-120510000D01*
X195522369Y-120399117D01*
X195327424Y-120161576D01*
X195089883Y-119966631D01*
X194925617Y-119878829D01*
X198274197Y-116530250D01*
X198302237Y-116507238D01*
X198325250Y-116479197D01*
X198325253Y-116479194D01*
X198394086Y-116395321D01*
X198394087Y-116395320D01*
X198462337Y-116267633D01*
X198504365Y-116129085D01*
X198515000Y-116021105D01*
X198515000Y-116021096D01*
X198518555Y-115985001D01*
X198515000Y-115948906D01*
X198515000Y-85216104D01*
X198518556Y-85179999D01*
X198504365Y-85035914D01*
X198485079Y-84972337D01*
X198462337Y-84897367D01*
X198394087Y-84769680D01*
X198302238Y-84657762D01*
X198274193Y-84634746D01*
X197815012Y-84175565D01*
X200634040Y-84175565D01*
X200701020Y-84415656D01*
X200950048Y-84532756D01*
X201217135Y-84599023D01*
X201492017Y-84611910D01*
X201764133Y-84570922D01*
X202023023Y-84477636D01*
X202138980Y-84415656D01*
X202205960Y-84175565D01*
X201420000Y-83389605D01*
X200634040Y-84175565D01*
X197815012Y-84175565D01*
X197435258Y-83795812D01*
X197412238Y-83767762D01*
X197300320Y-83675913D01*
X197172633Y-83607663D01*
X197034085Y-83565635D01*
X196926105Y-83555000D01*
X196890000Y-83551444D01*
X196853895Y-83555000D01*
X180556105Y-83555000D01*
X180520000Y-83551444D01*
X180483895Y-83555000D01*
X180375915Y-83565635D01*
X180237367Y-83607663D01*
X180109680Y-83675913D01*
X179997762Y-83767762D01*
X179974746Y-83795807D01*
X178345808Y-85424746D01*
X178317763Y-85447762D01*
X178225914Y-85559680D01*
X178184390Y-85637367D01*
X178157664Y-85687367D01*
X178115635Y-85825915D01*
X178101444Y-85970000D01*
X178105001Y-86006115D01*
X178105000Y-87570844D01*
X178018310Y-87628768D01*
X177838768Y-87808310D01*
X177697703Y-88019430D01*
X177600535Y-88254013D01*
X177570000Y-88407524D01*
X177539465Y-88254013D01*
X177442297Y-88019430D01*
X177301232Y-87808310D01*
X177121690Y-87628768D01*
X176910570Y-87487703D01*
X176675987Y-87390535D01*
X176426955Y-87341000D01*
X176173045Y-87341000D01*
X175924013Y-87390535D01*
X175689430Y-87487703D01*
X175478310Y-87628768D01*
X175298768Y-87808310D01*
X175157703Y-88019430D01*
X175060535Y-88254013D01*
X175030000Y-88407524D01*
X174999465Y-88254013D01*
X174902297Y-88019430D01*
X174761232Y-87808310D01*
X174581690Y-87628768D01*
X174370570Y-87487703D01*
X174135987Y-87390535D01*
X173886955Y-87341000D01*
X173633045Y-87341000D01*
X173384013Y-87390535D01*
X173149430Y-87487703D01*
X172938310Y-87628768D01*
X172758768Y-87808310D01*
X172617703Y-88019430D01*
X172520535Y-88254013D01*
X172490000Y-88407524D01*
X172459465Y-88254013D01*
X172362297Y-88019430D01*
X172221232Y-87808310D01*
X172041690Y-87628768D01*
X171830570Y-87487703D01*
X171595987Y-87390535D01*
X171346955Y-87341000D01*
X171093045Y-87341000D01*
X170844013Y-87390535D01*
X170609430Y-87487703D01*
X170398310Y-87628768D01*
X170218768Y-87808310D01*
X170077703Y-88019430D01*
X169980535Y-88254013D01*
X169950000Y-88407524D01*
X169919465Y-88254013D01*
X169822297Y-88019430D01*
X169681232Y-87808310D01*
X169501690Y-87628768D01*
X169290570Y-87487703D01*
X169055987Y-87390535D01*
X168806955Y-87341000D01*
X168553045Y-87341000D01*
X168304013Y-87390535D01*
X168069430Y-87487703D01*
X167858310Y-87628768D01*
X167678768Y-87808310D01*
X167537703Y-88019430D01*
X167440535Y-88254013D01*
X167391000Y-88503045D01*
X167391000Y-88756955D01*
X167440535Y-89005987D01*
X167537703Y-89240570D01*
X167678768Y-89451690D01*
X167858310Y-89631232D01*
X168069430Y-89772297D01*
X168304013Y-89869465D01*
X168457524Y-89900000D01*
X168304013Y-89930535D01*
X168069430Y-90027703D01*
X167858310Y-90168768D01*
X167678768Y-90348310D01*
X167620844Y-90435000D01*
X166624447Y-90435000D01*
X165675000Y-89485554D01*
X165675000Y-83282017D01*
X200018090Y-83282017D01*
X200059078Y-83554133D01*
X200152364Y-83813023D01*
X200214344Y-83928980D01*
X200454435Y-83995960D01*
X201240395Y-83210000D01*
X200454435Y-82424040D01*
X200214344Y-82491020D01*
X200097244Y-82740048D01*
X200030977Y-83007135D01*
X200018090Y-83282017D01*
X165675000Y-83282017D01*
X165675000Y-82244435D01*
X200634040Y-82244435D01*
X201420000Y-83030395D01*
X202205960Y-82244435D01*
X202138980Y-82004344D01*
X201889952Y-81887244D01*
X201622865Y-81820977D01*
X201347983Y-81808090D01*
X201075867Y-81849078D01*
X200816977Y-81942364D01*
X200701020Y-82004344D01*
X200634040Y-82244435D01*
X165675000Y-82244435D01*
X165675000Y-80794446D01*
X168052077Y-78417370D01*
X207035554Y-78417370D01*
X208325001Y-79706818D01*
M02*
